M48
; DRILL file {KiCad (5.1.4)-1} date 29/07/2020 14:25:13
; FORMAT={-:-/ absolute / inch / decimal}
; #@! TF.CreationDate,2020-07-29T14:25:13+02:00
; #@! TF.GenerationSoftware,Kicad,Pcbnew,(5.1.4)-1
; #@! TF.FileFunction,Plated,1,2,PTH
FMAT,2
INCH
T1C0.0157
T2C0.0276
T3C0.0409
T4C0.0579
%
G90
G05
T1
X5.4375Y-3.5938
X5.4375Y-4.1875
X5.5881Y-3.4943
X5.7064Y-3.8464
X5.7064Y-4.001
X6.3125Y-4.25
X6.5Y-3.7812
T3
X6.8875Y-4.45
X6.9875Y-4.45
X7.6375Y-3.7
X7.7375Y-3.7
X7.6375Y-4.45
X7.7375Y-4.45
X6.8875Y-3.7
X6.9875Y-3.7
T4
X6.7875Y-4.15
X6.8391Y-4.0925
X7.0359Y-4.0728
X7.0375Y-4.05
X7.5375Y-3.4
X7.5891Y-3.3425
X7.7859Y-3.3228
X7.7875Y-3.3
X7.5375Y-4.15
X7.5891Y-4.0925
X7.7859Y-4.0728
X7.7875Y-4.05
X6.7875Y-3.4
X6.8391Y-3.3425
X7.0359Y-3.3228
X7.0375Y-3.3
T2
G00X5.0713Y-3.1664
M15
G01X5.0713Y-3.2136
M16
G05
G00X5.0713Y-3.3435
M15
G01X5.0713Y-3.3908
M16
G05
G00X5.3587Y-3.1664
M15
G01X5.3587Y-3.2136
M16
G05
G00X5.3587Y-3.3435
M15
G01X5.3587Y-3.3908
M16
G05
T0
M30
