G04 #@! TF.GenerationSoftware,KiCad,Pcbnew,(5.1.4)-1*
G04 #@! TF.CreationDate,2020-07-29T14:25:06+02:00*
G04 #@! TF.ProjectId,ai03-pcb-2x2-macroboard,61693033-2d70-4636-922d-3278322d6d61,rev?*
G04 #@! TF.SameCoordinates,Original*
G04 #@! TF.FileFunction,Copper,L1,Top*
G04 #@! TF.FilePolarity,Positive*
%FSLAX46Y46*%
G04 Gerber Fmt 4.6, Leading zero omitted, Abs format (unit mm)*
G04 Created by KiCad (PCBNEW (5.1.4)-1) date 2020-07-29 14:25:06*
%MOMM*%
%LPD*%
G04 APERTURE LIST*
%ADD10O,1.700000X2.700000*%
%ADD11R,1.905000X1.905000*%
%ADD12C,1.905000*%
%ADD13C,2.250000*%
%ADD14C,2.250000*%
%ADD15C,0.800000*%
%ADD16C,0.381000*%
%ADD17C,0.254000*%
G04 APERTURE END LIST*
D10*
X128811000Y-81026000D03*
X136111000Y-81026000D03*
X136111000Y-85526000D03*
X128811000Y-85526000D03*
D11*
X196532500Y-113030000D03*
D12*
X193992500Y-113030000D03*
D13*
X192762500Y-103950000D03*
X192107501Y-104680000D03*
D14*
X191452500Y-105410000D02*
X192762502Y-103950000D01*
D13*
X197802500Y-102870000D03*
X197782500Y-103160000D03*
D14*
X197762500Y-103450000D02*
X197802500Y-102870000D01*
D11*
X177482500Y-113030000D03*
D12*
X174942500Y-113030000D03*
D13*
X173712500Y-103950000D03*
X173057501Y-104680000D03*
D14*
X172402500Y-105410000D02*
X173712502Y-103950000D01*
D13*
X178752500Y-102870000D03*
X178732500Y-103160000D03*
D14*
X178712500Y-103450000D02*
X178752500Y-102870000D01*
D11*
X196532500Y-93980000D03*
D12*
X193992500Y-93980000D03*
D13*
X192762500Y-84900000D03*
X192107501Y-85630000D03*
D14*
X191452500Y-86360000D02*
X192762502Y-84900000D01*
D13*
X197802500Y-83820000D03*
X197782500Y-84110000D03*
D14*
X197762500Y-84400000D02*
X197802500Y-83820000D01*
D11*
X177482500Y-93980000D03*
D12*
X174942500Y-93980000D03*
D13*
X173712500Y-84900000D03*
X173057501Y-85630000D03*
D14*
X172402500Y-86360000D02*
X173712502Y-84900000D01*
D13*
X178752500Y-83820000D03*
X178732500Y-84110000D03*
D14*
X178712500Y-84400000D02*
X178752500Y-83820000D01*
D15*
X160337500Y-107950000D03*
X165100000Y-96043750D03*
X144943750Y-101625000D03*
X141937500Y-88756250D03*
X144943750Y-97698000D03*
X138112500Y-91281250D03*
X138112500Y-106362500D03*
D16*
X160337500Y-107950000D02*
X163512500Y-107950000D01*
X163512500Y-107950000D02*
X165100000Y-106362500D01*
X165100000Y-106362500D02*
X165100000Y-96043750D01*
X144943750Y-101625000D02*
X144943750Y-91762500D01*
X151268750Y-107950000D02*
X160337500Y-107950000D01*
X146558000Y-107950000D02*
X151268750Y-107950000D01*
X144943750Y-101625000D02*
X144943750Y-106335750D01*
X144943750Y-106335750D02*
X146558000Y-107950000D01*
X141937500Y-88756250D02*
X142731250Y-88756250D01*
X144943750Y-90968750D02*
X144943750Y-91762500D01*
X142731250Y-88756250D02*
X144943750Y-90968750D01*
D17*
X172402500Y-102640000D02*
X172402500Y-105410000D01*
X172402500Y-86360000D02*
X172402500Y-102640000D01*
X191452500Y-86360000D02*
X191452500Y-105410000D01*
X138112500Y-91281250D02*
X138112500Y-106362500D01*
M02*
