G04 #@! TF.GenerationSoftware,KiCad,Pcbnew,(5.1.4)-1*
G04 #@! TF.CreationDate,2020-07-29T14:25:06+02:00*
G04 #@! TF.ProjectId,ai03-pcb-2x2-macroboard,61693033-2d70-4636-922d-3278322d6d61,rev?*
G04 #@! TF.SameCoordinates,Original*
G04 #@! TF.FileFunction,Legend,Bot*
G04 #@! TF.FilePolarity,Positive*
%FSLAX46Y46*%
G04 Gerber Fmt 4.6, Leading zero omitted, Abs format (unit mm)*
G04 Created by KiCad (PCBNEW (5.1.4)-1) date 2020-07-29 14:25:06*
%MOMM*%
%LPD*%
G04 APERTURE LIST*
%ADD10C,0.150000*%
%ADD11C,0.120000*%
%ADD12O,1.802000X2.802000*%
%ADD13R,0.602000X2.352000*%
%ADD14R,1.502000X1.302000*%
%ADD15R,0.652000X1.602000*%
%ADD16R,1.602000X0.652000*%
%ADD17R,1.902000X1.202000*%
%ADD18C,0.100000*%
%ADD19C,1.077000*%
%ADD20C,1.852000*%
%ADD21R,2.007000X2.007000*%
%ADD22C,2.007000*%
%ADD23C,2.352000*%
%ADD24C,4.089800*%
%ADD25C,2.352000*%
%ADD26C,1.352000*%
%ADD27R,1.302000X1.002000*%
G04 APERTURE END LIST*
D10*
X128611000Y-81026000D02*
X128611000Y-86476000D01*
X136311000Y-81026000D02*
X136311000Y-86476000D01*
X128611000Y-86476000D02*
X136311000Y-86476000D01*
D11*
X154400000Y-85787500D02*
X150400000Y-85787500D01*
X154400000Y-82487500D02*
X154400000Y-85787500D01*
D10*
X147225000Y-103025000D02*
X145950000Y-103025000D01*
X157575000Y-103600000D02*
X156900000Y-103600000D01*
X157575000Y-93250000D02*
X156900000Y-93250000D01*
X147225000Y-93250000D02*
X147900000Y-93250000D01*
X147225000Y-103600000D02*
X147900000Y-103600000D01*
X147225000Y-93250000D02*
X147225000Y-93925000D01*
X157575000Y-93250000D02*
X157575000Y-93925000D01*
X157575000Y-103600000D02*
X157575000Y-102925000D01*
X147225000Y-103600000D02*
X147225000Y-103025000D01*
X134362500Y-106937500D02*
X129162500Y-106937500D01*
X129162500Y-106937500D02*
X129162500Y-112137500D01*
X129162500Y-112137500D02*
X134362500Y-112137500D01*
X134362500Y-112137500D02*
X134362500Y-106937500D01*
X132762500Y-109537500D02*
G75*
G03X132762500Y-109537500I-1000000J0D01*
G01*
D11*
X162008750Y-103302328D02*
X162008750Y-102785172D01*
X163428750Y-103302328D02*
X163428750Y-102785172D01*
X129687250Y-91063578D02*
X129687250Y-90546422D01*
X131107250Y-91063578D02*
X131107250Y-90546422D01*
X133021000Y-91063578D02*
X133021000Y-90546422D01*
X134441000Y-91063578D02*
X134441000Y-90546422D01*
X141203750Y-89435172D02*
X141203750Y-89952328D01*
X139783750Y-89435172D02*
X139783750Y-89952328D01*
X126090000Y-97439564D02*
X126090000Y-96235436D01*
X127910000Y-97439564D02*
X127910000Y-96235436D01*
X204200000Y-110200000D02*
X204200000Y-106300000D01*
X202200000Y-110200000D02*
X202200000Y-106300000D01*
X204200000Y-110200000D02*
X202200000Y-110200000D01*
X185150000Y-110200000D02*
X185150000Y-106300000D01*
X183150000Y-110200000D02*
X183150000Y-106300000D01*
X185150000Y-110200000D02*
X183150000Y-110200000D01*
X204200000Y-91150000D02*
X204200000Y-87250000D01*
X202200000Y-91150000D02*
X202200000Y-87250000D01*
X204200000Y-91150000D02*
X202200000Y-91150000D01*
X185150000Y-91150000D02*
X185150000Y-87250000D01*
X183150000Y-91150000D02*
X183150000Y-87250000D01*
X185150000Y-91150000D02*
X183150000Y-91150000D01*
X141997500Y-103722672D02*
X141997500Y-104239828D01*
X140577500Y-103722672D02*
X140577500Y-104239828D01*
X157421078Y-108660000D02*
X156903922Y-108660000D01*
X157421078Y-107240000D02*
X156903922Y-107240000D01*
X161215000Y-93921078D02*
X161215000Y-93403922D01*
X162635000Y-93921078D02*
X162635000Y-93403922D01*
X142958750Y-89952328D02*
X142958750Y-89435172D01*
X144378750Y-89952328D02*
X144378750Y-89435172D01*
X141822672Y-96921250D02*
X142339828Y-96921250D01*
X141822672Y-98341250D02*
X142339828Y-98341250D01*
X147721250Y-84396078D02*
X147721250Y-83878922D01*
X149141250Y-84396078D02*
X149141250Y-83878922D01*
X157078750Y-83878922D02*
X157078750Y-84396078D01*
X155658750Y-83878922D02*
X155658750Y-84396078D01*
D10*
X134199095Y-82510380D02*
X134199095Y-83319904D01*
X134151476Y-83415142D01*
X134103857Y-83462761D01*
X134008619Y-83510380D01*
X133818142Y-83510380D01*
X133722904Y-83462761D01*
X133675285Y-83415142D01*
X133627666Y-83319904D01*
X133627666Y-82510380D01*
X133199095Y-83462761D02*
X133056238Y-83510380D01*
X132818142Y-83510380D01*
X132722904Y-83462761D01*
X132675285Y-83415142D01*
X132627666Y-83319904D01*
X132627666Y-83224666D01*
X132675285Y-83129428D01*
X132722904Y-83081809D01*
X132818142Y-83034190D01*
X133008619Y-82986571D01*
X133103857Y-82938952D01*
X133151476Y-82891333D01*
X133199095Y-82796095D01*
X133199095Y-82700857D01*
X133151476Y-82605619D01*
X133103857Y-82558000D01*
X133008619Y-82510380D01*
X132770523Y-82510380D01*
X132627666Y-82558000D01*
X131865761Y-82986571D02*
X131722904Y-83034190D01*
X131675285Y-83081809D01*
X131627666Y-83177047D01*
X131627666Y-83319904D01*
X131675285Y-83415142D01*
X131722904Y-83462761D01*
X131818142Y-83510380D01*
X132199095Y-83510380D01*
X132199095Y-82510380D01*
X131865761Y-82510380D01*
X131770523Y-82558000D01*
X131722904Y-82605619D01*
X131675285Y-82700857D01*
X131675285Y-82796095D01*
X131722904Y-82891333D01*
X131770523Y-82938952D01*
X131865761Y-82986571D01*
X132199095Y-82986571D01*
X130675285Y-83510380D02*
X131246714Y-83510380D01*
X130961000Y-83510380D02*
X130961000Y-82510380D01*
X131056238Y-82653238D01*
X131151476Y-82748476D01*
X131246714Y-82796095D01*
X152876190Y-81663690D02*
X152876190Y-82139880D01*
X153209523Y-81139880D02*
X152876190Y-81663690D01*
X152542857Y-81139880D01*
X151685714Y-82139880D02*
X152257142Y-82139880D01*
X151971428Y-82139880D02*
X151971428Y-81139880D01*
X152066666Y-81282738D01*
X152161904Y-81377976D01*
X152257142Y-81425595D01*
X153161904Y-105327380D02*
X153161904Y-106136904D01*
X153114285Y-106232142D01*
X153066666Y-106279761D01*
X152971428Y-106327380D01*
X152780952Y-106327380D01*
X152685714Y-106279761D01*
X152638095Y-106232142D01*
X152590476Y-106136904D01*
X152590476Y-105327380D01*
X151590476Y-106327380D02*
X152161904Y-106327380D01*
X151876190Y-106327380D02*
X151876190Y-105327380D01*
X151971428Y-105470238D01*
X152066666Y-105565476D01*
X152161904Y-105613095D01*
X133095833Y-114006261D02*
X132952976Y-114053880D01*
X132714880Y-114053880D01*
X132619642Y-114006261D01*
X132572023Y-113958642D01*
X132524404Y-113863404D01*
X132524404Y-113768166D01*
X132572023Y-113672928D01*
X132619642Y-113625309D01*
X132714880Y-113577690D01*
X132905357Y-113530071D01*
X133000595Y-113482452D01*
X133048214Y-113434833D01*
X133095833Y-113339595D01*
X133095833Y-113244357D01*
X133048214Y-113149119D01*
X133000595Y-113101500D01*
X132905357Y-113053880D01*
X132667261Y-113053880D01*
X132524404Y-113101500D01*
X132191071Y-113053880D02*
X131952976Y-114053880D01*
X131762500Y-113339595D01*
X131572023Y-114053880D01*
X131333928Y-113053880D01*
X130429166Y-114053880D02*
X131000595Y-114053880D01*
X130714880Y-114053880D02*
X130714880Y-113053880D01*
X130810119Y-113196738D01*
X130905357Y-113291976D01*
X131000595Y-113339595D01*
X164821130Y-102877083D02*
X164344940Y-102543750D01*
X164821130Y-102305654D02*
X163821130Y-102305654D01*
X163821130Y-102686607D01*
X163868750Y-102781845D01*
X163916369Y-102829464D01*
X164011607Y-102877083D01*
X164154464Y-102877083D01*
X164249702Y-102829464D01*
X164297321Y-102781845D01*
X164344940Y-102686607D01*
X164344940Y-102305654D01*
X164154464Y-103734226D02*
X164821130Y-103734226D01*
X163773511Y-103496130D02*
X164487797Y-103258035D01*
X164487797Y-103877083D01*
X132499630Y-90638333D02*
X132023440Y-90305000D01*
X132499630Y-90066904D02*
X131499630Y-90066904D01*
X131499630Y-90447857D01*
X131547250Y-90543095D01*
X131594869Y-90590714D01*
X131690107Y-90638333D01*
X131832964Y-90638333D01*
X131928202Y-90590714D01*
X131975821Y-90543095D01*
X132023440Y-90447857D01*
X132023440Y-90066904D01*
X131499630Y-90971666D02*
X131499630Y-91590714D01*
X131880583Y-91257380D01*
X131880583Y-91400238D01*
X131928202Y-91495476D01*
X131975821Y-91543095D01*
X132071059Y-91590714D01*
X132309154Y-91590714D01*
X132404392Y-91543095D01*
X132452011Y-91495476D01*
X132499630Y-91400238D01*
X132499630Y-91114523D01*
X132452011Y-91019285D01*
X132404392Y-90971666D01*
X135833380Y-90638333D02*
X135357190Y-90305000D01*
X135833380Y-90066904D02*
X134833380Y-90066904D01*
X134833380Y-90447857D01*
X134881000Y-90543095D01*
X134928619Y-90590714D01*
X135023857Y-90638333D01*
X135166714Y-90638333D01*
X135261952Y-90590714D01*
X135309571Y-90543095D01*
X135357190Y-90447857D01*
X135357190Y-90066904D01*
X134928619Y-91019285D02*
X134881000Y-91066904D01*
X134833380Y-91162142D01*
X134833380Y-91400238D01*
X134881000Y-91495476D01*
X134928619Y-91543095D01*
X135023857Y-91590714D01*
X135119095Y-91590714D01*
X135261952Y-91543095D01*
X135833380Y-90971666D01*
X135833380Y-91590714D01*
X139296130Y-89527083D02*
X138819940Y-89193750D01*
X139296130Y-88955654D02*
X138296130Y-88955654D01*
X138296130Y-89336607D01*
X138343750Y-89431845D01*
X138391369Y-89479464D01*
X138486607Y-89527083D01*
X138629464Y-89527083D01*
X138724702Y-89479464D01*
X138772321Y-89431845D01*
X138819940Y-89336607D01*
X138819940Y-88955654D01*
X139296130Y-90479464D02*
X139296130Y-89908035D01*
X139296130Y-90193750D02*
X138296130Y-90193750D01*
X138438988Y-90098511D01*
X138534226Y-90003273D01*
X138581845Y-89908035D01*
X128748571Y-96504166D02*
X128748571Y-96170833D01*
X129272380Y-96170833D02*
X128272380Y-96170833D01*
X128272380Y-96647023D01*
X129272380Y-97551785D02*
X129272380Y-96980357D01*
X129272380Y-97266071D02*
X128272380Y-97266071D01*
X128415238Y-97170833D01*
X128510476Y-97075595D01*
X128558095Y-96980357D01*
X205652380Y-107211904D02*
X204652380Y-107211904D01*
X204652380Y-107450000D01*
X204700000Y-107592857D01*
X204795238Y-107688095D01*
X204890476Y-107735714D01*
X205080952Y-107783333D01*
X205223809Y-107783333D01*
X205414285Y-107735714D01*
X205509523Y-107688095D01*
X205604761Y-107592857D01*
X205652380Y-107450000D01*
X205652380Y-107211904D01*
X204985714Y-108640476D02*
X205652380Y-108640476D01*
X204604761Y-108402380D02*
X205319047Y-108164285D01*
X205319047Y-108783333D01*
X186602380Y-107211904D02*
X185602380Y-107211904D01*
X185602380Y-107450000D01*
X185650000Y-107592857D01*
X185745238Y-107688095D01*
X185840476Y-107735714D01*
X186030952Y-107783333D01*
X186173809Y-107783333D01*
X186364285Y-107735714D01*
X186459523Y-107688095D01*
X186554761Y-107592857D01*
X186602380Y-107450000D01*
X186602380Y-107211904D01*
X185602380Y-108116666D02*
X185602380Y-108735714D01*
X185983333Y-108402380D01*
X185983333Y-108545238D01*
X186030952Y-108640476D01*
X186078571Y-108688095D01*
X186173809Y-108735714D01*
X186411904Y-108735714D01*
X186507142Y-108688095D01*
X186554761Y-108640476D01*
X186602380Y-108545238D01*
X186602380Y-108259523D01*
X186554761Y-108164285D01*
X186507142Y-108116666D01*
X205652380Y-88161904D02*
X204652380Y-88161904D01*
X204652380Y-88400000D01*
X204700000Y-88542857D01*
X204795238Y-88638095D01*
X204890476Y-88685714D01*
X205080952Y-88733333D01*
X205223809Y-88733333D01*
X205414285Y-88685714D01*
X205509523Y-88638095D01*
X205604761Y-88542857D01*
X205652380Y-88400000D01*
X205652380Y-88161904D01*
X204747619Y-89114285D02*
X204700000Y-89161904D01*
X204652380Y-89257142D01*
X204652380Y-89495238D01*
X204700000Y-89590476D01*
X204747619Y-89638095D01*
X204842857Y-89685714D01*
X204938095Y-89685714D01*
X205080952Y-89638095D01*
X205652380Y-89066666D01*
X205652380Y-89685714D01*
X186602380Y-88161904D02*
X185602380Y-88161904D01*
X185602380Y-88400000D01*
X185650000Y-88542857D01*
X185745238Y-88638095D01*
X185840476Y-88685714D01*
X186030952Y-88733333D01*
X186173809Y-88733333D01*
X186364285Y-88685714D01*
X186459523Y-88638095D01*
X186554761Y-88542857D01*
X186602380Y-88400000D01*
X186602380Y-88161904D01*
X186602380Y-89685714D02*
X186602380Y-89114285D01*
X186602380Y-89400000D02*
X185602380Y-89400000D01*
X185745238Y-89304761D01*
X185840476Y-89209523D01*
X185888095Y-89114285D01*
X139994642Y-103814583D02*
X140042261Y-103766964D01*
X140089880Y-103624107D01*
X140089880Y-103528869D01*
X140042261Y-103386011D01*
X139947023Y-103290773D01*
X139851785Y-103243154D01*
X139661309Y-103195535D01*
X139518452Y-103195535D01*
X139327976Y-103243154D01*
X139232738Y-103290773D01*
X139137500Y-103386011D01*
X139089880Y-103528869D01*
X139089880Y-103624107D01*
X139137500Y-103766964D01*
X139185119Y-103814583D01*
X139089880Y-104147916D02*
X139089880Y-104814583D01*
X140089880Y-104386011D01*
X157329166Y-106657142D02*
X157376785Y-106704761D01*
X157519642Y-106752380D01*
X157614880Y-106752380D01*
X157757738Y-106704761D01*
X157852976Y-106609523D01*
X157900595Y-106514285D01*
X157948214Y-106323809D01*
X157948214Y-106180952D01*
X157900595Y-105990476D01*
X157852976Y-105895238D01*
X157757738Y-105800000D01*
X157614880Y-105752380D01*
X157519642Y-105752380D01*
X157376785Y-105800000D01*
X157329166Y-105847619D01*
X156472023Y-105752380D02*
X156662500Y-105752380D01*
X156757738Y-105800000D01*
X156805357Y-105847619D01*
X156900595Y-105990476D01*
X156948214Y-106180952D01*
X156948214Y-106561904D01*
X156900595Y-106657142D01*
X156852976Y-106704761D01*
X156757738Y-106752380D01*
X156567261Y-106752380D01*
X156472023Y-106704761D01*
X156424404Y-106657142D01*
X156376785Y-106561904D01*
X156376785Y-106323809D01*
X156424404Y-106228571D01*
X156472023Y-106180952D01*
X156567261Y-106133333D01*
X156757738Y-106133333D01*
X156852976Y-106180952D01*
X156900595Y-106228571D01*
X156948214Y-106323809D01*
X163932142Y-93495833D02*
X163979761Y-93448214D01*
X164027380Y-93305357D01*
X164027380Y-93210119D01*
X163979761Y-93067261D01*
X163884523Y-92972023D01*
X163789285Y-92924404D01*
X163598809Y-92876785D01*
X163455952Y-92876785D01*
X163265476Y-92924404D01*
X163170238Y-92972023D01*
X163075000Y-93067261D01*
X163027380Y-93210119D01*
X163027380Y-93305357D01*
X163075000Y-93448214D01*
X163122619Y-93495833D01*
X163027380Y-94400595D02*
X163027380Y-93924404D01*
X163503571Y-93876785D01*
X163455952Y-93924404D01*
X163408333Y-94019642D01*
X163408333Y-94257738D01*
X163455952Y-94352976D01*
X163503571Y-94400595D01*
X163598809Y-94448214D01*
X163836904Y-94448214D01*
X163932142Y-94400595D01*
X163979761Y-94352976D01*
X164027380Y-94257738D01*
X164027380Y-94019642D01*
X163979761Y-93924404D01*
X163932142Y-93876785D01*
X145675892Y-89527083D02*
X145723511Y-89479464D01*
X145771130Y-89336607D01*
X145771130Y-89241369D01*
X145723511Y-89098511D01*
X145628273Y-89003273D01*
X145533035Y-88955654D01*
X145342559Y-88908035D01*
X145199702Y-88908035D01*
X145009226Y-88955654D01*
X144913988Y-89003273D01*
X144818750Y-89098511D01*
X144771130Y-89241369D01*
X144771130Y-89336607D01*
X144818750Y-89479464D01*
X144866369Y-89527083D01*
X145104464Y-90384226D02*
X145771130Y-90384226D01*
X144723511Y-90146130D02*
X145437797Y-89908035D01*
X145437797Y-90527083D01*
X142247916Y-99638392D02*
X142295535Y-99686011D01*
X142438392Y-99733630D01*
X142533630Y-99733630D01*
X142676488Y-99686011D01*
X142771726Y-99590773D01*
X142819345Y-99495535D01*
X142866964Y-99305059D01*
X142866964Y-99162202D01*
X142819345Y-98971726D01*
X142771726Y-98876488D01*
X142676488Y-98781250D01*
X142533630Y-98733630D01*
X142438392Y-98733630D01*
X142295535Y-98781250D01*
X142247916Y-98828869D01*
X141914583Y-98733630D02*
X141295535Y-98733630D01*
X141628869Y-99114583D01*
X141486011Y-99114583D01*
X141390773Y-99162202D01*
X141343154Y-99209821D01*
X141295535Y-99305059D01*
X141295535Y-99543154D01*
X141343154Y-99638392D01*
X141390773Y-99686011D01*
X141486011Y-99733630D01*
X141771726Y-99733630D01*
X141866964Y-99686011D01*
X141914583Y-99638392D01*
X150438392Y-83970833D02*
X150486011Y-83923214D01*
X150533630Y-83780357D01*
X150533630Y-83685119D01*
X150486011Y-83542261D01*
X150390773Y-83447023D01*
X150295535Y-83399404D01*
X150105059Y-83351785D01*
X149962202Y-83351785D01*
X149771726Y-83399404D01*
X149676488Y-83447023D01*
X149581250Y-83542261D01*
X149533630Y-83685119D01*
X149533630Y-83780357D01*
X149581250Y-83923214D01*
X149628869Y-83970833D01*
X149628869Y-84351785D02*
X149581250Y-84399404D01*
X149533630Y-84494642D01*
X149533630Y-84732738D01*
X149581250Y-84827976D01*
X149628869Y-84875595D01*
X149724107Y-84923214D01*
X149819345Y-84923214D01*
X149962202Y-84875595D01*
X150533630Y-84304166D01*
X150533630Y-84923214D01*
X155075892Y-83970833D02*
X155123511Y-83923214D01*
X155171130Y-83780357D01*
X155171130Y-83685119D01*
X155123511Y-83542261D01*
X155028273Y-83447023D01*
X154933035Y-83399404D01*
X154742559Y-83351785D01*
X154599702Y-83351785D01*
X154409226Y-83399404D01*
X154313988Y-83447023D01*
X154218750Y-83542261D01*
X154171130Y-83685119D01*
X154171130Y-83780357D01*
X154218750Y-83923214D01*
X154266369Y-83970833D01*
X155171130Y-84923214D02*
X155171130Y-84351785D01*
X155171130Y-84637500D02*
X154171130Y-84637500D01*
X154313988Y-84542261D01*
X154409226Y-84447023D01*
X154456845Y-84351785D01*
%LPC*%
D12*
X128811000Y-81026000D03*
X136111000Y-81026000D03*
X136111000Y-85526000D03*
X128811000Y-85526000D03*
D13*
X130861000Y-85526000D03*
X131661000Y-85526000D03*
X132461000Y-85526000D03*
X133261000Y-85526000D03*
X134061000Y-85526000D03*
D14*
X153500000Y-83287500D03*
X151300000Y-83287500D03*
X151300000Y-84987500D03*
X153500000Y-84987500D03*
D15*
X148400000Y-104125000D03*
X149200000Y-104125000D03*
X150000000Y-104125000D03*
X150800000Y-104125000D03*
X151600000Y-104125000D03*
X152400000Y-104125000D03*
X153200000Y-104125000D03*
X154000000Y-104125000D03*
X154800000Y-104125000D03*
X155600000Y-104125000D03*
X156400000Y-104125000D03*
D16*
X158100000Y-102425000D03*
X158100000Y-101625000D03*
X158100000Y-100825000D03*
X158100000Y-100025000D03*
X158100000Y-99225000D03*
X158100000Y-98425000D03*
X158100000Y-97625000D03*
X158100000Y-96825000D03*
X158100000Y-96025000D03*
X158100000Y-95225000D03*
X158100000Y-94425000D03*
D15*
X156400000Y-92725000D03*
X155600000Y-92725000D03*
X154800000Y-92725000D03*
X154000000Y-92725000D03*
X153200000Y-92725000D03*
X152400000Y-92725000D03*
X151600000Y-92725000D03*
X150800000Y-92725000D03*
X150000000Y-92725000D03*
X149200000Y-92725000D03*
X148400000Y-92725000D03*
D16*
X146700000Y-94425000D03*
X146700000Y-95225000D03*
X146700000Y-96025000D03*
X146700000Y-96825000D03*
X146700000Y-97625000D03*
X146700000Y-98425000D03*
X146700000Y-99225000D03*
X146700000Y-100025000D03*
X146700000Y-100825000D03*
X146700000Y-101625000D03*
X146700000Y-102425000D03*
D17*
X134862500Y-111387500D03*
X128662500Y-107687500D03*
X134862500Y-107687500D03*
X128662500Y-111387500D03*
D18*
G36*
X163226891Y-101569047D02*
G01*
X163253028Y-101572924D01*
X163278659Y-101579344D01*
X163303538Y-101588245D01*
X163327424Y-101599543D01*
X163350087Y-101613127D01*
X163371310Y-101628867D01*
X163390889Y-101646611D01*
X163408633Y-101666190D01*
X163424373Y-101687413D01*
X163437957Y-101710076D01*
X163449255Y-101733962D01*
X163458156Y-101758841D01*
X163464576Y-101784472D01*
X163468453Y-101810609D01*
X163469750Y-101837000D01*
X163469750Y-102375500D01*
X163468453Y-102401891D01*
X163464576Y-102428028D01*
X163458156Y-102453659D01*
X163449255Y-102478538D01*
X163437957Y-102502424D01*
X163424373Y-102525087D01*
X163408633Y-102546310D01*
X163390889Y-102565889D01*
X163371310Y-102583633D01*
X163350087Y-102599373D01*
X163327424Y-102612957D01*
X163303538Y-102624255D01*
X163278659Y-102633156D01*
X163253028Y-102639576D01*
X163226891Y-102643453D01*
X163200500Y-102644750D01*
X162237000Y-102644750D01*
X162210609Y-102643453D01*
X162184472Y-102639576D01*
X162158841Y-102633156D01*
X162133962Y-102624255D01*
X162110076Y-102612957D01*
X162087413Y-102599373D01*
X162066190Y-102583633D01*
X162046611Y-102565889D01*
X162028867Y-102546310D01*
X162013127Y-102525087D01*
X161999543Y-102502424D01*
X161988245Y-102478538D01*
X161979344Y-102453659D01*
X161972924Y-102428028D01*
X161969047Y-102401891D01*
X161967750Y-102375500D01*
X161967750Y-101837000D01*
X161969047Y-101810609D01*
X161972924Y-101784472D01*
X161979344Y-101758841D01*
X161988245Y-101733962D01*
X161999543Y-101710076D01*
X162013127Y-101687413D01*
X162028867Y-101666190D01*
X162046611Y-101646611D01*
X162066190Y-101628867D01*
X162087413Y-101613127D01*
X162110076Y-101599543D01*
X162133962Y-101588245D01*
X162158841Y-101579344D01*
X162184472Y-101572924D01*
X162210609Y-101569047D01*
X162237000Y-101567750D01*
X163200500Y-101567750D01*
X163226891Y-101569047D01*
X163226891Y-101569047D01*
G37*
D19*
X162718750Y-102106250D03*
D18*
G36*
X163226891Y-103444047D02*
G01*
X163253028Y-103447924D01*
X163278659Y-103454344D01*
X163303538Y-103463245D01*
X163327424Y-103474543D01*
X163350087Y-103488127D01*
X163371310Y-103503867D01*
X163390889Y-103521611D01*
X163408633Y-103541190D01*
X163424373Y-103562413D01*
X163437957Y-103585076D01*
X163449255Y-103608962D01*
X163458156Y-103633841D01*
X163464576Y-103659472D01*
X163468453Y-103685609D01*
X163469750Y-103712000D01*
X163469750Y-104250500D01*
X163468453Y-104276891D01*
X163464576Y-104303028D01*
X163458156Y-104328659D01*
X163449255Y-104353538D01*
X163437957Y-104377424D01*
X163424373Y-104400087D01*
X163408633Y-104421310D01*
X163390889Y-104440889D01*
X163371310Y-104458633D01*
X163350087Y-104474373D01*
X163327424Y-104487957D01*
X163303538Y-104499255D01*
X163278659Y-104508156D01*
X163253028Y-104514576D01*
X163226891Y-104518453D01*
X163200500Y-104519750D01*
X162237000Y-104519750D01*
X162210609Y-104518453D01*
X162184472Y-104514576D01*
X162158841Y-104508156D01*
X162133962Y-104499255D01*
X162110076Y-104487957D01*
X162087413Y-104474373D01*
X162066190Y-104458633D01*
X162046611Y-104440889D01*
X162028867Y-104421310D01*
X162013127Y-104400087D01*
X161999543Y-104377424D01*
X161988245Y-104353538D01*
X161979344Y-104328659D01*
X161972924Y-104303028D01*
X161969047Y-104276891D01*
X161967750Y-104250500D01*
X161967750Y-103712000D01*
X161969047Y-103685609D01*
X161972924Y-103659472D01*
X161979344Y-103633841D01*
X161988245Y-103608962D01*
X161999543Y-103585076D01*
X162013127Y-103562413D01*
X162028867Y-103541190D01*
X162046611Y-103521611D01*
X162066190Y-103503867D01*
X162087413Y-103488127D01*
X162110076Y-103474543D01*
X162133962Y-103463245D01*
X162158841Y-103454344D01*
X162184472Y-103447924D01*
X162210609Y-103444047D01*
X162237000Y-103442750D01*
X163200500Y-103442750D01*
X163226891Y-103444047D01*
X163226891Y-103444047D01*
G37*
D19*
X162718750Y-103981250D03*
D18*
G36*
X130905391Y-89330297D02*
G01*
X130931528Y-89334174D01*
X130957159Y-89340594D01*
X130982038Y-89349495D01*
X131005924Y-89360793D01*
X131028587Y-89374377D01*
X131049810Y-89390117D01*
X131069389Y-89407861D01*
X131087133Y-89427440D01*
X131102873Y-89448663D01*
X131116457Y-89471326D01*
X131127755Y-89495212D01*
X131136656Y-89520091D01*
X131143076Y-89545722D01*
X131146953Y-89571859D01*
X131148250Y-89598250D01*
X131148250Y-90136750D01*
X131146953Y-90163141D01*
X131143076Y-90189278D01*
X131136656Y-90214909D01*
X131127755Y-90239788D01*
X131116457Y-90263674D01*
X131102873Y-90286337D01*
X131087133Y-90307560D01*
X131069389Y-90327139D01*
X131049810Y-90344883D01*
X131028587Y-90360623D01*
X131005924Y-90374207D01*
X130982038Y-90385505D01*
X130957159Y-90394406D01*
X130931528Y-90400826D01*
X130905391Y-90404703D01*
X130879000Y-90406000D01*
X129915500Y-90406000D01*
X129889109Y-90404703D01*
X129862972Y-90400826D01*
X129837341Y-90394406D01*
X129812462Y-90385505D01*
X129788576Y-90374207D01*
X129765913Y-90360623D01*
X129744690Y-90344883D01*
X129725111Y-90327139D01*
X129707367Y-90307560D01*
X129691627Y-90286337D01*
X129678043Y-90263674D01*
X129666745Y-90239788D01*
X129657844Y-90214909D01*
X129651424Y-90189278D01*
X129647547Y-90163141D01*
X129646250Y-90136750D01*
X129646250Y-89598250D01*
X129647547Y-89571859D01*
X129651424Y-89545722D01*
X129657844Y-89520091D01*
X129666745Y-89495212D01*
X129678043Y-89471326D01*
X129691627Y-89448663D01*
X129707367Y-89427440D01*
X129725111Y-89407861D01*
X129744690Y-89390117D01*
X129765913Y-89374377D01*
X129788576Y-89360793D01*
X129812462Y-89349495D01*
X129837341Y-89340594D01*
X129862972Y-89334174D01*
X129889109Y-89330297D01*
X129915500Y-89329000D01*
X130879000Y-89329000D01*
X130905391Y-89330297D01*
X130905391Y-89330297D01*
G37*
D19*
X130397250Y-89867500D03*
D18*
G36*
X130905391Y-91205297D02*
G01*
X130931528Y-91209174D01*
X130957159Y-91215594D01*
X130982038Y-91224495D01*
X131005924Y-91235793D01*
X131028587Y-91249377D01*
X131049810Y-91265117D01*
X131069389Y-91282861D01*
X131087133Y-91302440D01*
X131102873Y-91323663D01*
X131116457Y-91346326D01*
X131127755Y-91370212D01*
X131136656Y-91395091D01*
X131143076Y-91420722D01*
X131146953Y-91446859D01*
X131148250Y-91473250D01*
X131148250Y-92011750D01*
X131146953Y-92038141D01*
X131143076Y-92064278D01*
X131136656Y-92089909D01*
X131127755Y-92114788D01*
X131116457Y-92138674D01*
X131102873Y-92161337D01*
X131087133Y-92182560D01*
X131069389Y-92202139D01*
X131049810Y-92219883D01*
X131028587Y-92235623D01*
X131005924Y-92249207D01*
X130982038Y-92260505D01*
X130957159Y-92269406D01*
X130931528Y-92275826D01*
X130905391Y-92279703D01*
X130879000Y-92281000D01*
X129915500Y-92281000D01*
X129889109Y-92279703D01*
X129862972Y-92275826D01*
X129837341Y-92269406D01*
X129812462Y-92260505D01*
X129788576Y-92249207D01*
X129765913Y-92235623D01*
X129744690Y-92219883D01*
X129725111Y-92202139D01*
X129707367Y-92182560D01*
X129691627Y-92161337D01*
X129678043Y-92138674D01*
X129666745Y-92114788D01*
X129657844Y-92089909D01*
X129651424Y-92064278D01*
X129647547Y-92038141D01*
X129646250Y-92011750D01*
X129646250Y-91473250D01*
X129647547Y-91446859D01*
X129651424Y-91420722D01*
X129657844Y-91395091D01*
X129666745Y-91370212D01*
X129678043Y-91346326D01*
X129691627Y-91323663D01*
X129707367Y-91302440D01*
X129725111Y-91282861D01*
X129744690Y-91265117D01*
X129765913Y-91249377D01*
X129788576Y-91235793D01*
X129812462Y-91224495D01*
X129837341Y-91215594D01*
X129862972Y-91209174D01*
X129889109Y-91205297D01*
X129915500Y-91204000D01*
X130879000Y-91204000D01*
X130905391Y-91205297D01*
X130905391Y-91205297D01*
G37*
D19*
X130397250Y-91742500D03*
D18*
G36*
X134239141Y-89330297D02*
G01*
X134265278Y-89334174D01*
X134290909Y-89340594D01*
X134315788Y-89349495D01*
X134339674Y-89360793D01*
X134362337Y-89374377D01*
X134383560Y-89390117D01*
X134403139Y-89407861D01*
X134420883Y-89427440D01*
X134436623Y-89448663D01*
X134450207Y-89471326D01*
X134461505Y-89495212D01*
X134470406Y-89520091D01*
X134476826Y-89545722D01*
X134480703Y-89571859D01*
X134482000Y-89598250D01*
X134482000Y-90136750D01*
X134480703Y-90163141D01*
X134476826Y-90189278D01*
X134470406Y-90214909D01*
X134461505Y-90239788D01*
X134450207Y-90263674D01*
X134436623Y-90286337D01*
X134420883Y-90307560D01*
X134403139Y-90327139D01*
X134383560Y-90344883D01*
X134362337Y-90360623D01*
X134339674Y-90374207D01*
X134315788Y-90385505D01*
X134290909Y-90394406D01*
X134265278Y-90400826D01*
X134239141Y-90404703D01*
X134212750Y-90406000D01*
X133249250Y-90406000D01*
X133222859Y-90404703D01*
X133196722Y-90400826D01*
X133171091Y-90394406D01*
X133146212Y-90385505D01*
X133122326Y-90374207D01*
X133099663Y-90360623D01*
X133078440Y-90344883D01*
X133058861Y-90327139D01*
X133041117Y-90307560D01*
X133025377Y-90286337D01*
X133011793Y-90263674D01*
X133000495Y-90239788D01*
X132991594Y-90214909D01*
X132985174Y-90189278D01*
X132981297Y-90163141D01*
X132980000Y-90136750D01*
X132980000Y-89598250D01*
X132981297Y-89571859D01*
X132985174Y-89545722D01*
X132991594Y-89520091D01*
X133000495Y-89495212D01*
X133011793Y-89471326D01*
X133025377Y-89448663D01*
X133041117Y-89427440D01*
X133058861Y-89407861D01*
X133078440Y-89390117D01*
X133099663Y-89374377D01*
X133122326Y-89360793D01*
X133146212Y-89349495D01*
X133171091Y-89340594D01*
X133196722Y-89334174D01*
X133222859Y-89330297D01*
X133249250Y-89329000D01*
X134212750Y-89329000D01*
X134239141Y-89330297D01*
X134239141Y-89330297D01*
G37*
D19*
X133731000Y-89867500D03*
D18*
G36*
X134239141Y-91205297D02*
G01*
X134265278Y-91209174D01*
X134290909Y-91215594D01*
X134315788Y-91224495D01*
X134339674Y-91235793D01*
X134362337Y-91249377D01*
X134383560Y-91265117D01*
X134403139Y-91282861D01*
X134420883Y-91302440D01*
X134436623Y-91323663D01*
X134450207Y-91346326D01*
X134461505Y-91370212D01*
X134470406Y-91395091D01*
X134476826Y-91420722D01*
X134480703Y-91446859D01*
X134482000Y-91473250D01*
X134482000Y-92011750D01*
X134480703Y-92038141D01*
X134476826Y-92064278D01*
X134470406Y-92089909D01*
X134461505Y-92114788D01*
X134450207Y-92138674D01*
X134436623Y-92161337D01*
X134420883Y-92182560D01*
X134403139Y-92202139D01*
X134383560Y-92219883D01*
X134362337Y-92235623D01*
X134339674Y-92249207D01*
X134315788Y-92260505D01*
X134290909Y-92269406D01*
X134265278Y-92275826D01*
X134239141Y-92279703D01*
X134212750Y-92281000D01*
X133249250Y-92281000D01*
X133222859Y-92279703D01*
X133196722Y-92275826D01*
X133171091Y-92269406D01*
X133146212Y-92260505D01*
X133122326Y-92249207D01*
X133099663Y-92235623D01*
X133078440Y-92219883D01*
X133058861Y-92202139D01*
X133041117Y-92182560D01*
X133025377Y-92161337D01*
X133011793Y-92138674D01*
X133000495Y-92114788D01*
X132991594Y-92089909D01*
X132985174Y-92064278D01*
X132981297Y-92038141D01*
X132980000Y-92011750D01*
X132980000Y-91473250D01*
X132981297Y-91446859D01*
X132985174Y-91420722D01*
X132991594Y-91395091D01*
X133000495Y-91370212D01*
X133011793Y-91346326D01*
X133025377Y-91323663D01*
X133041117Y-91302440D01*
X133058861Y-91282861D01*
X133078440Y-91265117D01*
X133099663Y-91249377D01*
X133122326Y-91235793D01*
X133146212Y-91224495D01*
X133171091Y-91215594D01*
X133196722Y-91209174D01*
X133222859Y-91205297D01*
X133249250Y-91204000D01*
X134212750Y-91204000D01*
X134239141Y-91205297D01*
X134239141Y-91205297D01*
G37*
D19*
X133731000Y-91742500D03*
D18*
G36*
X141001891Y-90094047D02*
G01*
X141028028Y-90097924D01*
X141053659Y-90104344D01*
X141078538Y-90113245D01*
X141102424Y-90124543D01*
X141125087Y-90138127D01*
X141146310Y-90153867D01*
X141165889Y-90171611D01*
X141183633Y-90191190D01*
X141199373Y-90212413D01*
X141212957Y-90235076D01*
X141224255Y-90258962D01*
X141233156Y-90283841D01*
X141239576Y-90309472D01*
X141243453Y-90335609D01*
X141244750Y-90362000D01*
X141244750Y-90900500D01*
X141243453Y-90926891D01*
X141239576Y-90953028D01*
X141233156Y-90978659D01*
X141224255Y-91003538D01*
X141212957Y-91027424D01*
X141199373Y-91050087D01*
X141183633Y-91071310D01*
X141165889Y-91090889D01*
X141146310Y-91108633D01*
X141125087Y-91124373D01*
X141102424Y-91137957D01*
X141078538Y-91149255D01*
X141053659Y-91158156D01*
X141028028Y-91164576D01*
X141001891Y-91168453D01*
X140975500Y-91169750D01*
X140012000Y-91169750D01*
X139985609Y-91168453D01*
X139959472Y-91164576D01*
X139933841Y-91158156D01*
X139908962Y-91149255D01*
X139885076Y-91137957D01*
X139862413Y-91124373D01*
X139841190Y-91108633D01*
X139821611Y-91090889D01*
X139803867Y-91071310D01*
X139788127Y-91050087D01*
X139774543Y-91027424D01*
X139763245Y-91003538D01*
X139754344Y-90978659D01*
X139747924Y-90953028D01*
X139744047Y-90926891D01*
X139742750Y-90900500D01*
X139742750Y-90362000D01*
X139744047Y-90335609D01*
X139747924Y-90309472D01*
X139754344Y-90283841D01*
X139763245Y-90258962D01*
X139774543Y-90235076D01*
X139788127Y-90212413D01*
X139803867Y-90191190D01*
X139821611Y-90171611D01*
X139841190Y-90153867D01*
X139862413Y-90138127D01*
X139885076Y-90124543D01*
X139908962Y-90113245D01*
X139933841Y-90104344D01*
X139959472Y-90097924D01*
X139985609Y-90094047D01*
X140012000Y-90092750D01*
X140975500Y-90092750D01*
X141001891Y-90094047D01*
X141001891Y-90094047D01*
G37*
D19*
X140493750Y-90631250D03*
D18*
G36*
X141001891Y-88219047D02*
G01*
X141028028Y-88222924D01*
X141053659Y-88229344D01*
X141078538Y-88238245D01*
X141102424Y-88249543D01*
X141125087Y-88263127D01*
X141146310Y-88278867D01*
X141165889Y-88296611D01*
X141183633Y-88316190D01*
X141199373Y-88337413D01*
X141212957Y-88360076D01*
X141224255Y-88383962D01*
X141233156Y-88408841D01*
X141239576Y-88434472D01*
X141243453Y-88460609D01*
X141244750Y-88487000D01*
X141244750Y-89025500D01*
X141243453Y-89051891D01*
X141239576Y-89078028D01*
X141233156Y-89103659D01*
X141224255Y-89128538D01*
X141212957Y-89152424D01*
X141199373Y-89175087D01*
X141183633Y-89196310D01*
X141165889Y-89215889D01*
X141146310Y-89233633D01*
X141125087Y-89249373D01*
X141102424Y-89262957D01*
X141078538Y-89274255D01*
X141053659Y-89283156D01*
X141028028Y-89289576D01*
X141001891Y-89293453D01*
X140975500Y-89294750D01*
X140012000Y-89294750D01*
X139985609Y-89293453D01*
X139959472Y-89289576D01*
X139933841Y-89283156D01*
X139908962Y-89274255D01*
X139885076Y-89262957D01*
X139862413Y-89249373D01*
X139841190Y-89233633D01*
X139821611Y-89215889D01*
X139803867Y-89196310D01*
X139788127Y-89175087D01*
X139774543Y-89152424D01*
X139763245Y-89128538D01*
X139754344Y-89103659D01*
X139747924Y-89078028D01*
X139744047Y-89051891D01*
X139742750Y-89025500D01*
X139742750Y-88487000D01*
X139744047Y-88460609D01*
X139747924Y-88434472D01*
X139754344Y-88408841D01*
X139763245Y-88383962D01*
X139774543Y-88360076D01*
X139788127Y-88337413D01*
X139803867Y-88316190D01*
X139821611Y-88296611D01*
X139841190Y-88278867D01*
X139862413Y-88263127D01*
X139885076Y-88249543D01*
X139908962Y-88238245D01*
X139933841Y-88229344D01*
X139959472Y-88222924D01*
X139985609Y-88219047D01*
X140012000Y-88217750D01*
X140975500Y-88217750D01*
X141001891Y-88219047D01*
X141001891Y-88219047D01*
G37*
D19*
X140493750Y-88756250D03*
D20*
X200342500Y-107950000D03*
X190182500Y-107950000D03*
D21*
X196532500Y-113030000D03*
D22*
X193992500Y-113030000D03*
D23*
X192762500Y-103950000D03*
D24*
X195262500Y-107950000D03*
D23*
X192107501Y-104680000D03*
D25*
X191452500Y-105410000D02*
X192762502Y-103950000D01*
D23*
X197802500Y-102870000D03*
X197782500Y-103160000D03*
D25*
X197762500Y-103450000D02*
X197802500Y-102870000D01*
D20*
X181292500Y-107950000D03*
X171132500Y-107950000D03*
D21*
X177482500Y-113030000D03*
D22*
X174942500Y-113030000D03*
D23*
X173712500Y-103950000D03*
D24*
X176212500Y-107950000D03*
D23*
X173057501Y-104680000D03*
D25*
X172402500Y-105410000D02*
X173712502Y-103950000D01*
D23*
X178752500Y-102870000D03*
X178732500Y-103160000D03*
D25*
X178712500Y-103450000D02*
X178752500Y-102870000D01*
D20*
X200342500Y-88900000D03*
X190182500Y-88900000D03*
D21*
X196532500Y-93980000D03*
D22*
X193992500Y-93980000D03*
D23*
X192762500Y-84900000D03*
D24*
X195262500Y-88900000D03*
D23*
X192107501Y-85630000D03*
D25*
X191452500Y-86360000D02*
X192762502Y-84900000D01*
D23*
X197802500Y-83820000D03*
X197782500Y-84110000D03*
D25*
X197762500Y-84400000D02*
X197802500Y-83820000D01*
D20*
X181292500Y-88900000D03*
X171132500Y-88900000D03*
D21*
X177482500Y-93980000D03*
D22*
X174942500Y-93980000D03*
D23*
X173712500Y-84900000D03*
D24*
X176212500Y-88900000D03*
D23*
X173057501Y-85630000D03*
D25*
X172402500Y-86360000D02*
X173712502Y-84900000D01*
D23*
X178752500Y-83820000D03*
X178732500Y-84110000D03*
D25*
X178712500Y-84400000D02*
X178752500Y-83820000D01*
D18*
G36*
X127682104Y-94762802D02*
G01*
X127708352Y-94766696D01*
X127734093Y-94773143D01*
X127759078Y-94782083D01*
X127783066Y-94793428D01*
X127805826Y-94807071D01*
X127827140Y-94822878D01*
X127846802Y-94840698D01*
X127864622Y-94860360D01*
X127880429Y-94881674D01*
X127894072Y-94904434D01*
X127905417Y-94928422D01*
X127914357Y-94953407D01*
X127920804Y-94979148D01*
X127924698Y-95005396D01*
X127926000Y-95031900D01*
X127926000Y-95843100D01*
X127924698Y-95869604D01*
X127920804Y-95895852D01*
X127914357Y-95921593D01*
X127905417Y-95946578D01*
X127894072Y-95970566D01*
X127880429Y-95993326D01*
X127864622Y-96014640D01*
X127846802Y-96034302D01*
X127827140Y-96052122D01*
X127805826Y-96067929D01*
X127783066Y-96081572D01*
X127759078Y-96092917D01*
X127734093Y-96101857D01*
X127708352Y-96108304D01*
X127682104Y-96112198D01*
X127655600Y-96113500D01*
X126344400Y-96113500D01*
X126317896Y-96112198D01*
X126291648Y-96108304D01*
X126265907Y-96101857D01*
X126240922Y-96092917D01*
X126216934Y-96081572D01*
X126194174Y-96067929D01*
X126172860Y-96052122D01*
X126153198Y-96034302D01*
X126135378Y-96014640D01*
X126119571Y-95993326D01*
X126105928Y-95970566D01*
X126094583Y-95946578D01*
X126085643Y-95921593D01*
X126079196Y-95895852D01*
X126075302Y-95869604D01*
X126074000Y-95843100D01*
X126074000Y-95031900D01*
X126075302Y-95005396D01*
X126079196Y-94979148D01*
X126085643Y-94953407D01*
X126094583Y-94928422D01*
X126105928Y-94904434D01*
X126119571Y-94881674D01*
X126135378Y-94860360D01*
X126153198Y-94840698D01*
X126172860Y-94822878D01*
X126194174Y-94807071D01*
X126216934Y-94793428D01*
X126240922Y-94782083D01*
X126265907Y-94773143D01*
X126291648Y-94766696D01*
X126317896Y-94762802D01*
X126344400Y-94761500D01*
X127655600Y-94761500D01*
X127682104Y-94762802D01*
X127682104Y-94762802D01*
G37*
D26*
X127000000Y-95437500D03*
D18*
G36*
X127682104Y-97562802D02*
G01*
X127708352Y-97566696D01*
X127734093Y-97573143D01*
X127759078Y-97582083D01*
X127783066Y-97593428D01*
X127805826Y-97607071D01*
X127827140Y-97622878D01*
X127846802Y-97640698D01*
X127864622Y-97660360D01*
X127880429Y-97681674D01*
X127894072Y-97704434D01*
X127905417Y-97728422D01*
X127914357Y-97753407D01*
X127920804Y-97779148D01*
X127924698Y-97805396D01*
X127926000Y-97831900D01*
X127926000Y-98643100D01*
X127924698Y-98669604D01*
X127920804Y-98695852D01*
X127914357Y-98721593D01*
X127905417Y-98746578D01*
X127894072Y-98770566D01*
X127880429Y-98793326D01*
X127864622Y-98814640D01*
X127846802Y-98834302D01*
X127827140Y-98852122D01*
X127805826Y-98867929D01*
X127783066Y-98881572D01*
X127759078Y-98892917D01*
X127734093Y-98901857D01*
X127708352Y-98908304D01*
X127682104Y-98912198D01*
X127655600Y-98913500D01*
X126344400Y-98913500D01*
X126317896Y-98912198D01*
X126291648Y-98908304D01*
X126265907Y-98901857D01*
X126240922Y-98892917D01*
X126216934Y-98881572D01*
X126194174Y-98867929D01*
X126172860Y-98852122D01*
X126153198Y-98834302D01*
X126135378Y-98814640D01*
X126119571Y-98793326D01*
X126105928Y-98770566D01*
X126094583Y-98746578D01*
X126085643Y-98721593D01*
X126079196Y-98695852D01*
X126075302Y-98669604D01*
X126074000Y-98643100D01*
X126074000Y-97831900D01*
X126075302Y-97805396D01*
X126079196Y-97779148D01*
X126085643Y-97753407D01*
X126094583Y-97728422D01*
X126105928Y-97704434D01*
X126119571Y-97681674D01*
X126135378Y-97660360D01*
X126153198Y-97640698D01*
X126172860Y-97622878D01*
X126194174Y-97607071D01*
X126216934Y-97593428D01*
X126240922Y-97582083D01*
X126265907Y-97573143D01*
X126291648Y-97566696D01*
X126317896Y-97562802D01*
X126344400Y-97561500D01*
X127655600Y-97561500D01*
X127682104Y-97562802D01*
X127682104Y-97562802D01*
G37*
D26*
X127000000Y-98237500D03*
D27*
X203200000Y-106300000D03*
X203200000Y-109600000D03*
X184150000Y-106300000D03*
X184150000Y-109600000D03*
X203200000Y-87250000D03*
X203200000Y-90550000D03*
X184150000Y-87250000D03*
X184150000Y-90550000D03*
D18*
G36*
X141795641Y-104381547D02*
G01*
X141821778Y-104385424D01*
X141847409Y-104391844D01*
X141872288Y-104400745D01*
X141896174Y-104412043D01*
X141918837Y-104425627D01*
X141940060Y-104441367D01*
X141959639Y-104459111D01*
X141977383Y-104478690D01*
X141993123Y-104499913D01*
X142006707Y-104522576D01*
X142018005Y-104546462D01*
X142026906Y-104571341D01*
X142033326Y-104596972D01*
X142037203Y-104623109D01*
X142038500Y-104649500D01*
X142038500Y-105188000D01*
X142037203Y-105214391D01*
X142033326Y-105240528D01*
X142026906Y-105266159D01*
X142018005Y-105291038D01*
X142006707Y-105314924D01*
X141993123Y-105337587D01*
X141977383Y-105358810D01*
X141959639Y-105378389D01*
X141940060Y-105396133D01*
X141918837Y-105411873D01*
X141896174Y-105425457D01*
X141872288Y-105436755D01*
X141847409Y-105445656D01*
X141821778Y-105452076D01*
X141795641Y-105455953D01*
X141769250Y-105457250D01*
X140805750Y-105457250D01*
X140779359Y-105455953D01*
X140753222Y-105452076D01*
X140727591Y-105445656D01*
X140702712Y-105436755D01*
X140678826Y-105425457D01*
X140656163Y-105411873D01*
X140634940Y-105396133D01*
X140615361Y-105378389D01*
X140597617Y-105358810D01*
X140581877Y-105337587D01*
X140568293Y-105314924D01*
X140556995Y-105291038D01*
X140548094Y-105266159D01*
X140541674Y-105240528D01*
X140537797Y-105214391D01*
X140536500Y-105188000D01*
X140536500Y-104649500D01*
X140537797Y-104623109D01*
X140541674Y-104596972D01*
X140548094Y-104571341D01*
X140556995Y-104546462D01*
X140568293Y-104522576D01*
X140581877Y-104499913D01*
X140597617Y-104478690D01*
X140615361Y-104459111D01*
X140634940Y-104441367D01*
X140656163Y-104425627D01*
X140678826Y-104412043D01*
X140702712Y-104400745D01*
X140727591Y-104391844D01*
X140753222Y-104385424D01*
X140779359Y-104381547D01*
X140805750Y-104380250D01*
X141769250Y-104380250D01*
X141795641Y-104381547D01*
X141795641Y-104381547D01*
G37*
D19*
X141287500Y-104918750D03*
D18*
G36*
X141795641Y-102506547D02*
G01*
X141821778Y-102510424D01*
X141847409Y-102516844D01*
X141872288Y-102525745D01*
X141896174Y-102537043D01*
X141918837Y-102550627D01*
X141940060Y-102566367D01*
X141959639Y-102584111D01*
X141977383Y-102603690D01*
X141993123Y-102624913D01*
X142006707Y-102647576D01*
X142018005Y-102671462D01*
X142026906Y-102696341D01*
X142033326Y-102721972D01*
X142037203Y-102748109D01*
X142038500Y-102774500D01*
X142038500Y-103313000D01*
X142037203Y-103339391D01*
X142033326Y-103365528D01*
X142026906Y-103391159D01*
X142018005Y-103416038D01*
X142006707Y-103439924D01*
X141993123Y-103462587D01*
X141977383Y-103483810D01*
X141959639Y-103503389D01*
X141940060Y-103521133D01*
X141918837Y-103536873D01*
X141896174Y-103550457D01*
X141872288Y-103561755D01*
X141847409Y-103570656D01*
X141821778Y-103577076D01*
X141795641Y-103580953D01*
X141769250Y-103582250D01*
X140805750Y-103582250D01*
X140779359Y-103580953D01*
X140753222Y-103577076D01*
X140727591Y-103570656D01*
X140702712Y-103561755D01*
X140678826Y-103550457D01*
X140656163Y-103536873D01*
X140634940Y-103521133D01*
X140615361Y-103503389D01*
X140597617Y-103483810D01*
X140581877Y-103462587D01*
X140568293Y-103439924D01*
X140556995Y-103416038D01*
X140548094Y-103391159D01*
X140541674Y-103365528D01*
X140537797Y-103339391D01*
X140536500Y-103313000D01*
X140536500Y-102774500D01*
X140537797Y-102748109D01*
X140541674Y-102721972D01*
X140548094Y-102696341D01*
X140556995Y-102671462D01*
X140568293Y-102647576D01*
X140581877Y-102624913D01*
X140597617Y-102603690D01*
X140615361Y-102584111D01*
X140634940Y-102566367D01*
X140656163Y-102550627D01*
X140678826Y-102537043D01*
X140702712Y-102525745D01*
X140727591Y-102516844D01*
X140753222Y-102510424D01*
X140779359Y-102506547D01*
X140805750Y-102505250D01*
X141769250Y-102505250D01*
X141795641Y-102506547D01*
X141795641Y-102506547D01*
G37*
D19*
X141287500Y-103043750D03*
D18*
G36*
X156520641Y-107200297D02*
G01*
X156546778Y-107204174D01*
X156572409Y-107210594D01*
X156597288Y-107219495D01*
X156621174Y-107230793D01*
X156643837Y-107244377D01*
X156665060Y-107260117D01*
X156684639Y-107277861D01*
X156702383Y-107297440D01*
X156718123Y-107318663D01*
X156731707Y-107341326D01*
X156743005Y-107365212D01*
X156751906Y-107390091D01*
X156758326Y-107415722D01*
X156762203Y-107441859D01*
X156763500Y-107468250D01*
X156763500Y-108431750D01*
X156762203Y-108458141D01*
X156758326Y-108484278D01*
X156751906Y-108509909D01*
X156743005Y-108534788D01*
X156731707Y-108558674D01*
X156718123Y-108581337D01*
X156702383Y-108602560D01*
X156684639Y-108622139D01*
X156665060Y-108639883D01*
X156643837Y-108655623D01*
X156621174Y-108669207D01*
X156597288Y-108680505D01*
X156572409Y-108689406D01*
X156546778Y-108695826D01*
X156520641Y-108699703D01*
X156494250Y-108701000D01*
X155955750Y-108701000D01*
X155929359Y-108699703D01*
X155903222Y-108695826D01*
X155877591Y-108689406D01*
X155852712Y-108680505D01*
X155828826Y-108669207D01*
X155806163Y-108655623D01*
X155784940Y-108639883D01*
X155765361Y-108622139D01*
X155747617Y-108602560D01*
X155731877Y-108581337D01*
X155718293Y-108558674D01*
X155706995Y-108534788D01*
X155698094Y-108509909D01*
X155691674Y-108484278D01*
X155687797Y-108458141D01*
X155686500Y-108431750D01*
X155686500Y-107468250D01*
X155687797Y-107441859D01*
X155691674Y-107415722D01*
X155698094Y-107390091D01*
X155706995Y-107365212D01*
X155718293Y-107341326D01*
X155731877Y-107318663D01*
X155747617Y-107297440D01*
X155765361Y-107277861D01*
X155784940Y-107260117D01*
X155806163Y-107244377D01*
X155828826Y-107230793D01*
X155852712Y-107219495D01*
X155877591Y-107210594D01*
X155903222Y-107204174D01*
X155929359Y-107200297D01*
X155955750Y-107199000D01*
X156494250Y-107199000D01*
X156520641Y-107200297D01*
X156520641Y-107200297D01*
G37*
D19*
X156225000Y-107950000D03*
D18*
G36*
X158395641Y-107200297D02*
G01*
X158421778Y-107204174D01*
X158447409Y-107210594D01*
X158472288Y-107219495D01*
X158496174Y-107230793D01*
X158518837Y-107244377D01*
X158540060Y-107260117D01*
X158559639Y-107277861D01*
X158577383Y-107297440D01*
X158593123Y-107318663D01*
X158606707Y-107341326D01*
X158618005Y-107365212D01*
X158626906Y-107390091D01*
X158633326Y-107415722D01*
X158637203Y-107441859D01*
X158638500Y-107468250D01*
X158638500Y-108431750D01*
X158637203Y-108458141D01*
X158633326Y-108484278D01*
X158626906Y-108509909D01*
X158618005Y-108534788D01*
X158606707Y-108558674D01*
X158593123Y-108581337D01*
X158577383Y-108602560D01*
X158559639Y-108622139D01*
X158540060Y-108639883D01*
X158518837Y-108655623D01*
X158496174Y-108669207D01*
X158472288Y-108680505D01*
X158447409Y-108689406D01*
X158421778Y-108695826D01*
X158395641Y-108699703D01*
X158369250Y-108701000D01*
X157830750Y-108701000D01*
X157804359Y-108699703D01*
X157778222Y-108695826D01*
X157752591Y-108689406D01*
X157727712Y-108680505D01*
X157703826Y-108669207D01*
X157681163Y-108655623D01*
X157659940Y-108639883D01*
X157640361Y-108622139D01*
X157622617Y-108602560D01*
X157606877Y-108581337D01*
X157593293Y-108558674D01*
X157581995Y-108534788D01*
X157573094Y-108509909D01*
X157566674Y-108484278D01*
X157562797Y-108458141D01*
X157561500Y-108431750D01*
X157561500Y-107468250D01*
X157562797Y-107441859D01*
X157566674Y-107415722D01*
X157573094Y-107390091D01*
X157581995Y-107365212D01*
X157593293Y-107341326D01*
X157606877Y-107318663D01*
X157622617Y-107297440D01*
X157640361Y-107277861D01*
X157659940Y-107260117D01*
X157681163Y-107244377D01*
X157703826Y-107230793D01*
X157727712Y-107219495D01*
X157752591Y-107210594D01*
X157778222Y-107204174D01*
X157804359Y-107200297D01*
X157830750Y-107199000D01*
X158369250Y-107199000D01*
X158395641Y-107200297D01*
X158395641Y-107200297D01*
G37*
D19*
X158100000Y-107950000D03*
D18*
G36*
X162433141Y-92187797D02*
G01*
X162459278Y-92191674D01*
X162484909Y-92198094D01*
X162509788Y-92206995D01*
X162533674Y-92218293D01*
X162556337Y-92231877D01*
X162577560Y-92247617D01*
X162597139Y-92265361D01*
X162614883Y-92284940D01*
X162630623Y-92306163D01*
X162644207Y-92328826D01*
X162655505Y-92352712D01*
X162664406Y-92377591D01*
X162670826Y-92403222D01*
X162674703Y-92429359D01*
X162676000Y-92455750D01*
X162676000Y-92994250D01*
X162674703Y-93020641D01*
X162670826Y-93046778D01*
X162664406Y-93072409D01*
X162655505Y-93097288D01*
X162644207Y-93121174D01*
X162630623Y-93143837D01*
X162614883Y-93165060D01*
X162597139Y-93184639D01*
X162577560Y-93202383D01*
X162556337Y-93218123D01*
X162533674Y-93231707D01*
X162509788Y-93243005D01*
X162484909Y-93251906D01*
X162459278Y-93258326D01*
X162433141Y-93262203D01*
X162406750Y-93263500D01*
X161443250Y-93263500D01*
X161416859Y-93262203D01*
X161390722Y-93258326D01*
X161365091Y-93251906D01*
X161340212Y-93243005D01*
X161316326Y-93231707D01*
X161293663Y-93218123D01*
X161272440Y-93202383D01*
X161252861Y-93184639D01*
X161235117Y-93165060D01*
X161219377Y-93143837D01*
X161205793Y-93121174D01*
X161194495Y-93097288D01*
X161185594Y-93072409D01*
X161179174Y-93046778D01*
X161175297Y-93020641D01*
X161174000Y-92994250D01*
X161174000Y-92455750D01*
X161175297Y-92429359D01*
X161179174Y-92403222D01*
X161185594Y-92377591D01*
X161194495Y-92352712D01*
X161205793Y-92328826D01*
X161219377Y-92306163D01*
X161235117Y-92284940D01*
X161252861Y-92265361D01*
X161272440Y-92247617D01*
X161293663Y-92231877D01*
X161316326Y-92218293D01*
X161340212Y-92206995D01*
X161365091Y-92198094D01*
X161390722Y-92191674D01*
X161416859Y-92187797D01*
X161443250Y-92186500D01*
X162406750Y-92186500D01*
X162433141Y-92187797D01*
X162433141Y-92187797D01*
G37*
D19*
X161925000Y-92725000D03*
D18*
G36*
X162433141Y-94062797D02*
G01*
X162459278Y-94066674D01*
X162484909Y-94073094D01*
X162509788Y-94081995D01*
X162533674Y-94093293D01*
X162556337Y-94106877D01*
X162577560Y-94122617D01*
X162597139Y-94140361D01*
X162614883Y-94159940D01*
X162630623Y-94181163D01*
X162644207Y-94203826D01*
X162655505Y-94227712D01*
X162664406Y-94252591D01*
X162670826Y-94278222D01*
X162674703Y-94304359D01*
X162676000Y-94330750D01*
X162676000Y-94869250D01*
X162674703Y-94895641D01*
X162670826Y-94921778D01*
X162664406Y-94947409D01*
X162655505Y-94972288D01*
X162644207Y-94996174D01*
X162630623Y-95018837D01*
X162614883Y-95040060D01*
X162597139Y-95059639D01*
X162577560Y-95077383D01*
X162556337Y-95093123D01*
X162533674Y-95106707D01*
X162509788Y-95118005D01*
X162484909Y-95126906D01*
X162459278Y-95133326D01*
X162433141Y-95137203D01*
X162406750Y-95138500D01*
X161443250Y-95138500D01*
X161416859Y-95137203D01*
X161390722Y-95133326D01*
X161365091Y-95126906D01*
X161340212Y-95118005D01*
X161316326Y-95106707D01*
X161293663Y-95093123D01*
X161272440Y-95077383D01*
X161252861Y-95059639D01*
X161235117Y-95040060D01*
X161219377Y-95018837D01*
X161205793Y-94996174D01*
X161194495Y-94972288D01*
X161185594Y-94947409D01*
X161179174Y-94921778D01*
X161175297Y-94895641D01*
X161174000Y-94869250D01*
X161174000Y-94330750D01*
X161175297Y-94304359D01*
X161179174Y-94278222D01*
X161185594Y-94252591D01*
X161194495Y-94227712D01*
X161205793Y-94203826D01*
X161219377Y-94181163D01*
X161235117Y-94159940D01*
X161252861Y-94140361D01*
X161272440Y-94122617D01*
X161293663Y-94106877D01*
X161316326Y-94093293D01*
X161340212Y-94081995D01*
X161365091Y-94073094D01*
X161390722Y-94066674D01*
X161416859Y-94062797D01*
X161443250Y-94061500D01*
X162406750Y-94061500D01*
X162433141Y-94062797D01*
X162433141Y-94062797D01*
G37*
D19*
X161925000Y-94600000D03*
D18*
G36*
X144176891Y-88219047D02*
G01*
X144203028Y-88222924D01*
X144228659Y-88229344D01*
X144253538Y-88238245D01*
X144277424Y-88249543D01*
X144300087Y-88263127D01*
X144321310Y-88278867D01*
X144340889Y-88296611D01*
X144358633Y-88316190D01*
X144374373Y-88337413D01*
X144387957Y-88360076D01*
X144399255Y-88383962D01*
X144408156Y-88408841D01*
X144414576Y-88434472D01*
X144418453Y-88460609D01*
X144419750Y-88487000D01*
X144419750Y-89025500D01*
X144418453Y-89051891D01*
X144414576Y-89078028D01*
X144408156Y-89103659D01*
X144399255Y-89128538D01*
X144387957Y-89152424D01*
X144374373Y-89175087D01*
X144358633Y-89196310D01*
X144340889Y-89215889D01*
X144321310Y-89233633D01*
X144300087Y-89249373D01*
X144277424Y-89262957D01*
X144253538Y-89274255D01*
X144228659Y-89283156D01*
X144203028Y-89289576D01*
X144176891Y-89293453D01*
X144150500Y-89294750D01*
X143187000Y-89294750D01*
X143160609Y-89293453D01*
X143134472Y-89289576D01*
X143108841Y-89283156D01*
X143083962Y-89274255D01*
X143060076Y-89262957D01*
X143037413Y-89249373D01*
X143016190Y-89233633D01*
X142996611Y-89215889D01*
X142978867Y-89196310D01*
X142963127Y-89175087D01*
X142949543Y-89152424D01*
X142938245Y-89128538D01*
X142929344Y-89103659D01*
X142922924Y-89078028D01*
X142919047Y-89051891D01*
X142917750Y-89025500D01*
X142917750Y-88487000D01*
X142919047Y-88460609D01*
X142922924Y-88434472D01*
X142929344Y-88408841D01*
X142938245Y-88383962D01*
X142949543Y-88360076D01*
X142963127Y-88337413D01*
X142978867Y-88316190D01*
X142996611Y-88296611D01*
X143016190Y-88278867D01*
X143037413Y-88263127D01*
X143060076Y-88249543D01*
X143083962Y-88238245D01*
X143108841Y-88229344D01*
X143134472Y-88222924D01*
X143160609Y-88219047D01*
X143187000Y-88217750D01*
X144150500Y-88217750D01*
X144176891Y-88219047D01*
X144176891Y-88219047D01*
G37*
D19*
X143668750Y-88756250D03*
D18*
G36*
X144176891Y-90094047D02*
G01*
X144203028Y-90097924D01*
X144228659Y-90104344D01*
X144253538Y-90113245D01*
X144277424Y-90124543D01*
X144300087Y-90138127D01*
X144321310Y-90153867D01*
X144340889Y-90171611D01*
X144358633Y-90191190D01*
X144374373Y-90212413D01*
X144387957Y-90235076D01*
X144399255Y-90258962D01*
X144408156Y-90283841D01*
X144414576Y-90309472D01*
X144418453Y-90335609D01*
X144419750Y-90362000D01*
X144419750Y-90900500D01*
X144418453Y-90926891D01*
X144414576Y-90953028D01*
X144408156Y-90978659D01*
X144399255Y-91003538D01*
X144387957Y-91027424D01*
X144374373Y-91050087D01*
X144358633Y-91071310D01*
X144340889Y-91090889D01*
X144321310Y-91108633D01*
X144300087Y-91124373D01*
X144277424Y-91137957D01*
X144253538Y-91149255D01*
X144228659Y-91158156D01*
X144203028Y-91164576D01*
X144176891Y-91168453D01*
X144150500Y-91169750D01*
X143187000Y-91169750D01*
X143160609Y-91168453D01*
X143134472Y-91164576D01*
X143108841Y-91158156D01*
X143083962Y-91149255D01*
X143060076Y-91137957D01*
X143037413Y-91124373D01*
X143016190Y-91108633D01*
X142996611Y-91090889D01*
X142978867Y-91071310D01*
X142963127Y-91050087D01*
X142949543Y-91027424D01*
X142938245Y-91003538D01*
X142929344Y-90978659D01*
X142922924Y-90953028D01*
X142919047Y-90926891D01*
X142917750Y-90900500D01*
X142917750Y-90362000D01*
X142919047Y-90335609D01*
X142922924Y-90309472D01*
X142929344Y-90283841D01*
X142938245Y-90258962D01*
X142949543Y-90235076D01*
X142963127Y-90212413D01*
X142978867Y-90191190D01*
X142996611Y-90171611D01*
X143016190Y-90153867D01*
X143037413Y-90138127D01*
X143060076Y-90124543D01*
X143083962Y-90113245D01*
X143108841Y-90104344D01*
X143134472Y-90097924D01*
X143160609Y-90094047D01*
X143187000Y-90092750D01*
X144150500Y-90092750D01*
X144176891Y-90094047D01*
X144176891Y-90094047D01*
G37*
D19*
X143668750Y-90631250D03*
D18*
G36*
X143314391Y-96881547D02*
G01*
X143340528Y-96885424D01*
X143366159Y-96891844D01*
X143391038Y-96900745D01*
X143414924Y-96912043D01*
X143437587Y-96925627D01*
X143458810Y-96941367D01*
X143478389Y-96959111D01*
X143496133Y-96978690D01*
X143511873Y-96999913D01*
X143525457Y-97022576D01*
X143536755Y-97046462D01*
X143545656Y-97071341D01*
X143552076Y-97096972D01*
X143555953Y-97123109D01*
X143557250Y-97149500D01*
X143557250Y-98113000D01*
X143555953Y-98139391D01*
X143552076Y-98165528D01*
X143545656Y-98191159D01*
X143536755Y-98216038D01*
X143525457Y-98239924D01*
X143511873Y-98262587D01*
X143496133Y-98283810D01*
X143478389Y-98303389D01*
X143458810Y-98321133D01*
X143437587Y-98336873D01*
X143414924Y-98350457D01*
X143391038Y-98361755D01*
X143366159Y-98370656D01*
X143340528Y-98377076D01*
X143314391Y-98380953D01*
X143288000Y-98382250D01*
X142749500Y-98382250D01*
X142723109Y-98380953D01*
X142696972Y-98377076D01*
X142671341Y-98370656D01*
X142646462Y-98361755D01*
X142622576Y-98350457D01*
X142599913Y-98336873D01*
X142578690Y-98321133D01*
X142559111Y-98303389D01*
X142541367Y-98283810D01*
X142525627Y-98262587D01*
X142512043Y-98239924D01*
X142500745Y-98216038D01*
X142491844Y-98191159D01*
X142485424Y-98165528D01*
X142481547Y-98139391D01*
X142480250Y-98113000D01*
X142480250Y-97149500D01*
X142481547Y-97123109D01*
X142485424Y-97096972D01*
X142491844Y-97071341D01*
X142500745Y-97046462D01*
X142512043Y-97022576D01*
X142525627Y-96999913D01*
X142541367Y-96978690D01*
X142559111Y-96959111D01*
X142578690Y-96941367D01*
X142599913Y-96925627D01*
X142622576Y-96912043D01*
X142646462Y-96900745D01*
X142671341Y-96891844D01*
X142696972Y-96885424D01*
X142723109Y-96881547D01*
X142749500Y-96880250D01*
X143288000Y-96880250D01*
X143314391Y-96881547D01*
X143314391Y-96881547D01*
G37*
D19*
X143018750Y-97631250D03*
D18*
G36*
X141439391Y-96881547D02*
G01*
X141465528Y-96885424D01*
X141491159Y-96891844D01*
X141516038Y-96900745D01*
X141539924Y-96912043D01*
X141562587Y-96925627D01*
X141583810Y-96941367D01*
X141603389Y-96959111D01*
X141621133Y-96978690D01*
X141636873Y-96999913D01*
X141650457Y-97022576D01*
X141661755Y-97046462D01*
X141670656Y-97071341D01*
X141677076Y-97096972D01*
X141680953Y-97123109D01*
X141682250Y-97149500D01*
X141682250Y-98113000D01*
X141680953Y-98139391D01*
X141677076Y-98165528D01*
X141670656Y-98191159D01*
X141661755Y-98216038D01*
X141650457Y-98239924D01*
X141636873Y-98262587D01*
X141621133Y-98283810D01*
X141603389Y-98303389D01*
X141583810Y-98321133D01*
X141562587Y-98336873D01*
X141539924Y-98350457D01*
X141516038Y-98361755D01*
X141491159Y-98370656D01*
X141465528Y-98377076D01*
X141439391Y-98380953D01*
X141413000Y-98382250D01*
X140874500Y-98382250D01*
X140848109Y-98380953D01*
X140821972Y-98377076D01*
X140796341Y-98370656D01*
X140771462Y-98361755D01*
X140747576Y-98350457D01*
X140724913Y-98336873D01*
X140703690Y-98321133D01*
X140684111Y-98303389D01*
X140666367Y-98283810D01*
X140650627Y-98262587D01*
X140637043Y-98239924D01*
X140625745Y-98216038D01*
X140616844Y-98191159D01*
X140610424Y-98165528D01*
X140606547Y-98139391D01*
X140605250Y-98113000D01*
X140605250Y-97149500D01*
X140606547Y-97123109D01*
X140610424Y-97096972D01*
X140616844Y-97071341D01*
X140625745Y-97046462D01*
X140637043Y-97022576D01*
X140650627Y-96999913D01*
X140666367Y-96978690D01*
X140684111Y-96959111D01*
X140703690Y-96941367D01*
X140724913Y-96925627D01*
X140747576Y-96912043D01*
X140771462Y-96900745D01*
X140796341Y-96891844D01*
X140821972Y-96885424D01*
X140848109Y-96881547D01*
X140874500Y-96880250D01*
X141413000Y-96880250D01*
X141439391Y-96881547D01*
X141439391Y-96881547D01*
G37*
D19*
X141143750Y-97631250D03*
D18*
G36*
X148939391Y-82662797D02*
G01*
X148965528Y-82666674D01*
X148991159Y-82673094D01*
X149016038Y-82681995D01*
X149039924Y-82693293D01*
X149062587Y-82706877D01*
X149083810Y-82722617D01*
X149103389Y-82740361D01*
X149121133Y-82759940D01*
X149136873Y-82781163D01*
X149150457Y-82803826D01*
X149161755Y-82827712D01*
X149170656Y-82852591D01*
X149177076Y-82878222D01*
X149180953Y-82904359D01*
X149182250Y-82930750D01*
X149182250Y-83469250D01*
X149180953Y-83495641D01*
X149177076Y-83521778D01*
X149170656Y-83547409D01*
X149161755Y-83572288D01*
X149150457Y-83596174D01*
X149136873Y-83618837D01*
X149121133Y-83640060D01*
X149103389Y-83659639D01*
X149083810Y-83677383D01*
X149062587Y-83693123D01*
X149039924Y-83706707D01*
X149016038Y-83718005D01*
X148991159Y-83726906D01*
X148965528Y-83733326D01*
X148939391Y-83737203D01*
X148913000Y-83738500D01*
X147949500Y-83738500D01*
X147923109Y-83737203D01*
X147896972Y-83733326D01*
X147871341Y-83726906D01*
X147846462Y-83718005D01*
X147822576Y-83706707D01*
X147799913Y-83693123D01*
X147778690Y-83677383D01*
X147759111Y-83659639D01*
X147741367Y-83640060D01*
X147725627Y-83618837D01*
X147712043Y-83596174D01*
X147700745Y-83572288D01*
X147691844Y-83547409D01*
X147685424Y-83521778D01*
X147681547Y-83495641D01*
X147680250Y-83469250D01*
X147680250Y-82930750D01*
X147681547Y-82904359D01*
X147685424Y-82878222D01*
X147691844Y-82852591D01*
X147700745Y-82827712D01*
X147712043Y-82803826D01*
X147725627Y-82781163D01*
X147741367Y-82759940D01*
X147759111Y-82740361D01*
X147778690Y-82722617D01*
X147799913Y-82706877D01*
X147822576Y-82693293D01*
X147846462Y-82681995D01*
X147871341Y-82673094D01*
X147896972Y-82666674D01*
X147923109Y-82662797D01*
X147949500Y-82661500D01*
X148913000Y-82661500D01*
X148939391Y-82662797D01*
X148939391Y-82662797D01*
G37*
D19*
X148431250Y-83200000D03*
D18*
G36*
X148939391Y-84537797D02*
G01*
X148965528Y-84541674D01*
X148991159Y-84548094D01*
X149016038Y-84556995D01*
X149039924Y-84568293D01*
X149062587Y-84581877D01*
X149083810Y-84597617D01*
X149103389Y-84615361D01*
X149121133Y-84634940D01*
X149136873Y-84656163D01*
X149150457Y-84678826D01*
X149161755Y-84702712D01*
X149170656Y-84727591D01*
X149177076Y-84753222D01*
X149180953Y-84779359D01*
X149182250Y-84805750D01*
X149182250Y-85344250D01*
X149180953Y-85370641D01*
X149177076Y-85396778D01*
X149170656Y-85422409D01*
X149161755Y-85447288D01*
X149150457Y-85471174D01*
X149136873Y-85493837D01*
X149121133Y-85515060D01*
X149103389Y-85534639D01*
X149083810Y-85552383D01*
X149062587Y-85568123D01*
X149039924Y-85581707D01*
X149016038Y-85593005D01*
X148991159Y-85601906D01*
X148965528Y-85608326D01*
X148939391Y-85612203D01*
X148913000Y-85613500D01*
X147949500Y-85613500D01*
X147923109Y-85612203D01*
X147896972Y-85608326D01*
X147871341Y-85601906D01*
X147846462Y-85593005D01*
X147822576Y-85581707D01*
X147799913Y-85568123D01*
X147778690Y-85552383D01*
X147759111Y-85534639D01*
X147741367Y-85515060D01*
X147725627Y-85493837D01*
X147712043Y-85471174D01*
X147700745Y-85447288D01*
X147691844Y-85422409D01*
X147685424Y-85396778D01*
X147681547Y-85370641D01*
X147680250Y-85344250D01*
X147680250Y-84805750D01*
X147681547Y-84779359D01*
X147685424Y-84753222D01*
X147691844Y-84727591D01*
X147700745Y-84702712D01*
X147712043Y-84678826D01*
X147725627Y-84656163D01*
X147741367Y-84634940D01*
X147759111Y-84615361D01*
X147778690Y-84597617D01*
X147799913Y-84581877D01*
X147822576Y-84568293D01*
X147846462Y-84556995D01*
X147871341Y-84548094D01*
X147896972Y-84541674D01*
X147923109Y-84537797D01*
X147949500Y-84536500D01*
X148913000Y-84536500D01*
X148939391Y-84537797D01*
X148939391Y-84537797D01*
G37*
D19*
X148431250Y-85075000D03*
D18*
G36*
X156876891Y-84537797D02*
G01*
X156903028Y-84541674D01*
X156928659Y-84548094D01*
X156953538Y-84556995D01*
X156977424Y-84568293D01*
X157000087Y-84581877D01*
X157021310Y-84597617D01*
X157040889Y-84615361D01*
X157058633Y-84634940D01*
X157074373Y-84656163D01*
X157087957Y-84678826D01*
X157099255Y-84702712D01*
X157108156Y-84727591D01*
X157114576Y-84753222D01*
X157118453Y-84779359D01*
X157119750Y-84805750D01*
X157119750Y-85344250D01*
X157118453Y-85370641D01*
X157114576Y-85396778D01*
X157108156Y-85422409D01*
X157099255Y-85447288D01*
X157087957Y-85471174D01*
X157074373Y-85493837D01*
X157058633Y-85515060D01*
X157040889Y-85534639D01*
X157021310Y-85552383D01*
X157000087Y-85568123D01*
X156977424Y-85581707D01*
X156953538Y-85593005D01*
X156928659Y-85601906D01*
X156903028Y-85608326D01*
X156876891Y-85612203D01*
X156850500Y-85613500D01*
X155887000Y-85613500D01*
X155860609Y-85612203D01*
X155834472Y-85608326D01*
X155808841Y-85601906D01*
X155783962Y-85593005D01*
X155760076Y-85581707D01*
X155737413Y-85568123D01*
X155716190Y-85552383D01*
X155696611Y-85534639D01*
X155678867Y-85515060D01*
X155663127Y-85493837D01*
X155649543Y-85471174D01*
X155638245Y-85447288D01*
X155629344Y-85422409D01*
X155622924Y-85396778D01*
X155619047Y-85370641D01*
X155617750Y-85344250D01*
X155617750Y-84805750D01*
X155619047Y-84779359D01*
X155622924Y-84753222D01*
X155629344Y-84727591D01*
X155638245Y-84702712D01*
X155649543Y-84678826D01*
X155663127Y-84656163D01*
X155678867Y-84634940D01*
X155696611Y-84615361D01*
X155716190Y-84597617D01*
X155737413Y-84581877D01*
X155760076Y-84568293D01*
X155783962Y-84556995D01*
X155808841Y-84548094D01*
X155834472Y-84541674D01*
X155860609Y-84537797D01*
X155887000Y-84536500D01*
X156850500Y-84536500D01*
X156876891Y-84537797D01*
X156876891Y-84537797D01*
G37*
D19*
X156368750Y-85075000D03*
D18*
G36*
X156876891Y-82662797D02*
G01*
X156903028Y-82666674D01*
X156928659Y-82673094D01*
X156953538Y-82681995D01*
X156977424Y-82693293D01*
X157000087Y-82706877D01*
X157021310Y-82722617D01*
X157040889Y-82740361D01*
X157058633Y-82759940D01*
X157074373Y-82781163D01*
X157087957Y-82803826D01*
X157099255Y-82827712D01*
X157108156Y-82852591D01*
X157114576Y-82878222D01*
X157118453Y-82904359D01*
X157119750Y-82930750D01*
X157119750Y-83469250D01*
X157118453Y-83495641D01*
X157114576Y-83521778D01*
X157108156Y-83547409D01*
X157099255Y-83572288D01*
X157087957Y-83596174D01*
X157074373Y-83618837D01*
X157058633Y-83640060D01*
X157040889Y-83659639D01*
X157021310Y-83677383D01*
X157000087Y-83693123D01*
X156977424Y-83706707D01*
X156953538Y-83718005D01*
X156928659Y-83726906D01*
X156903028Y-83733326D01*
X156876891Y-83737203D01*
X156850500Y-83738500D01*
X155887000Y-83738500D01*
X155860609Y-83737203D01*
X155834472Y-83733326D01*
X155808841Y-83726906D01*
X155783962Y-83718005D01*
X155760076Y-83706707D01*
X155737413Y-83693123D01*
X155716190Y-83677383D01*
X155696611Y-83659639D01*
X155678867Y-83640060D01*
X155663127Y-83618837D01*
X155649543Y-83596174D01*
X155638245Y-83572288D01*
X155629344Y-83547409D01*
X155622924Y-83521778D01*
X155619047Y-83495641D01*
X155617750Y-83469250D01*
X155617750Y-82930750D01*
X155619047Y-82904359D01*
X155622924Y-82878222D01*
X155629344Y-82852591D01*
X155638245Y-82827712D01*
X155649543Y-82803826D01*
X155663127Y-82781163D01*
X155678867Y-82759940D01*
X155696611Y-82740361D01*
X155716190Y-82722617D01*
X155737413Y-82706877D01*
X155760076Y-82693293D01*
X155783962Y-82681995D01*
X155808841Y-82673094D01*
X155834472Y-82666674D01*
X155860609Y-82662797D01*
X155887000Y-82661500D01*
X156850500Y-82661500D01*
X156876891Y-82662797D01*
X156876891Y-82662797D01*
G37*
D19*
X156368750Y-83200000D03*
M02*
