G04 #@! TF.GenerationSoftware,KiCad,Pcbnew,(5.1.4)-1*
G04 #@! TF.CreationDate,2020-07-29T14:25:06+02:00*
G04 #@! TF.ProjectId,ai03-pcb-2x2-macroboard,61693033-2d70-4636-922d-3278322d6d61,rev?*
G04 #@! TF.SameCoordinates,Original*
G04 #@! TF.FileFunction,Copper,L2,Bot*
G04 #@! TF.FilePolarity,Positive*
%FSLAX46Y46*%
G04 Gerber Fmt 4.6, Leading zero omitted, Abs format (unit mm)*
G04 Created by KiCad (PCBNEW (5.1.4)-1) date 2020-07-29 14:25:06*
%MOMM*%
%LPD*%
G04 APERTURE LIST*
%ADD10O,1.700000X2.700000*%
%ADD11R,0.500000X2.250000*%
%ADD12R,1.400000X1.200000*%
%ADD13R,0.550000X1.500000*%
%ADD14R,1.500000X0.550000*%
%ADD15R,1.800000X1.100000*%
%ADD16C,0.100000*%
%ADD17C,0.975000*%
%ADD18R,1.905000X1.905000*%
%ADD19C,1.905000*%
%ADD20C,2.250000*%
%ADD21C,2.250000*%
%ADD22C,1.250000*%
%ADD23R,1.200000X0.900000*%
%ADD24C,0.800000*%
%ADD25C,0.254000*%
%ADD26C,0.381000*%
G04 APERTURE END LIST*
D10*
X128811000Y-81026000D03*
X136111000Y-81026000D03*
X136111000Y-85526000D03*
X128811000Y-85526000D03*
D11*
X130861000Y-85526000D03*
X131661000Y-85526000D03*
X132461000Y-85526000D03*
X133261000Y-85526000D03*
X134061000Y-85526000D03*
D12*
X153500000Y-83287500D03*
X151300000Y-83287500D03*
X151300000Y-84987500D03*
X153500000Y-84987500D03*
D13*
X148400000Y-104125000D03*
X149200000Y-104125000D03*
X150000000Y-104125000D03*
X150800000Y-104125000D03*
X151600000Y-104125000D03*
X152400000Y-104125000D03*
X153200000Y-104125000D03*
X154000000Y-104125000D03*
X154800000Y-104125000D03*
X155600000Y-104125000D03*
X156400000Y-104125000D03*
D14*
X158100000Y-102425000D03*
X158100000Y-101625000D03*
X158100000Y-100825000D03*
X158100000Y-100025000D03*
X158100000Y-99225000D03*
X158100000Y-98425000D03*
X158100000Y-97625000D03*
X158100000Y-96825000D03*
X158100000Y-96025000D03*
X158100000Y-95225000D03*
X158100000Y-94425000D03*
D13*
X156400000Y-92725000D03*
X155600000Y-92725000D03*
X154800000Y-92725000D03*
X154000000Y-92725000D03*
X153200000Y-92725000D03*
X152400000Y-92725000D03*
X151600000Y-92725000D03*
X150800000Y-92725000D03*
X150000000Y-92725000D03*
X149200000Y-92725000D03*
X148400000Y-92725000D03*
D14*
X146700000Y-94425000D03*
X146700000Y-95225000D03*
X146700000Y-96025000D03*
X146700000Y-96825000D03*
X146700000Y-97625000D03*
X146700000Y-98425000D03*
X146700000Y-99225000D03*
X146700000Y-100025000D03*
X146700000Y-100825000D03*
X146700000Y-101625000D03*
X146700000Y-102425000D03*
D15*
X134862500Y-111387500D03*
X128662500Y-107687500D03*
X134862500Y-107687500D03*
X128662500Y-111387500D03*
D16*
G36*
X163198892Y-101619924D02*
G01*
X163222553Y-101623434D01*
X163245757Y-101629246D01*
X163268279Y-101637304D01*
X163289903Y-101647532D01*
X163310420Y-101659829D01*
X163329633Y-101674079D01*
X163347357Y-101690143D01*
X163363421Y-101707867D01*
X163377671Y-101727080D01*
X163389968Y-101747597D01*
X163400196Y-101769221D01*
X163408254Y-101791743D01*
X163414066Y-101814947D01*
X163417576Y-101838608D01*
X163418750Y-101862500D01*
X163418750Y-102350000D01*
X163417576Y-102373892D01*
X163414066Y-102397553D01*
X163408254Y-102420757D01*
X163400196Y-102443279D01*
X163389968Y-102464903D01*
X163377671Y-102485420D01*
X163363421Y-102504633D01*
X163347357Y-102522357D01*
X163329633Y-102538421D01*
X163310420Y-102552671D01*
X163289903Y-102564968D01*
X163268279Y-102575196D01*
X163245757Y-102583254D01*
X163222553Y-102589066D01*
X163198892Y-102592576D01*
X163175000Y-102593750D01*
X162262500Y-102593750D01*
X162238608Y-102592576D01*
X162214947Y-102589066D01*
X162191743Y-102583254D01*
X162169221Y-102575196D01*
X162147597Y-102564968D01*
X162127080Y-102552671D01*
X162107867Y-102538421D01*
X162090143Y-102522357D01*
X162074079Y-102504633D01*
X162059829Y-102485420D01*
X162047532Y-102464903D01*
X162037304Y-102443279D01*
X162029246Y-102420757D01*
X162023434Y-102397553D01*
X162019924Y-102373892D01*
X162018750Y-102350000D01*
X162018750Y-101862500D01*
X162019924Y-101838608D01*
X162023434Y-101814947D01*
X162029246Y-101791743D01*
X162037304Y-101769221D01*
X162047532Y-101747597D01*
X162059829Y-101727080D01*
X162074079Y-101707867D01*
X162090143Y-101690143D01*
X162107867Y-101674079D01*
X162127080Y-101659829D01*
X162147597Y-101647532D01*
X162169221Y-101637304D01*
X162191743Y-101629246D01*
X162214947Y-101623434D01*
X162238608Y-101619924D01*
X162262500Y-101618750D01*
X163175000Y-101618750D01*
X163198892Y-101619924D01*
X163198892Y-101619924D01*
G37*
D17*
X162718750Y-102106250D03*
D16*
G36*
X163198892Y-103494924D02*
G01*
X163222553Y-103498434D01*
X163245757Y-103504246D01*
X163268279Y-103512304D01*
X163289903Y-103522532D01*
X163310420Y-103534829D01*
X163329633Y-103549079D01*
X163347357Y-103565143D01*
X163363421Y-103582867D01*
X163377671Y-103602080D01*
X163389968Y-103622597D01*
X163400196Y-103644221D01*
X163408254Y-103666743D01*
X163414066Y-103689947D01*
X163417576Y-103713608D01*
X163418750Y-103737500D01*
X163418750Y-104225000D01*
X163417576Y-104248892D01*
X163414066Y-104272553D01*
X163408254Y-104295757D01*
X163400196Y-104318279D01*
X163389968Y-104339903D01*
X163377671Y-104360420D01*
X163363421Y-104379633D01*
X163347357Y-104397357D01*
X163329633Y-104413421D01*
X163310420Y-104427671D01*
X163289903Y-104439968D01*
X163268279Y-104450196D01*
X163245757Y-104458254D01*
X163222553Y-104464066D01*
X163198892Y-104467576D01*
X163175000Y-104468750D01*
X162262500Y-104468750D01*
X162238608Y-104467576D01*
X162214947Y-104464066D01*
X162191743Y-104458254D01*
X162169221Y-104450196D01*
X162147597Y-104439968D01*
X162127080Y-104427671D01*
X162107867Y-104413421D01*
X162090143Y-104397357D01*
X162074079Y-104379633D01*
X162059829Y-104360420D01*
X162047532Y-104339903D01*
X162037304Y-104318279D01*
X162029246Y-104295757D01*
X162023434Y-104272553D01*
X162019924Y-104248892D01*
X162018750Y-104225000D01*
X162018750Y-103737500D01*
X162019924Y-103713608D01*
X162023434Y-103689947D01*
X162029246Y-103666743D01*
X162037304Y-103644221D01*
X162047532Y-103622597D01*
X162059829Y-103602080D01*
X162074079Y-103582867D01*
X162090143Y-103565143D01*
X162107867Y-103549079D01*
X162127080Y-103534829D01*
X162147597Y-103522532D01*
X162169221Y-103512304D01*
X162191743Y-103504246D01*
X162214947Y-103498434D01*
X162238608Y-103494924D01*
X162262500Y-103493750D01*
X163175000Y-103493750D01*
X163198892Y-103494924D01*
X163198892Y-103494924D01*
G37*
D17*
X162718750Y-103981250D03*
D16*
G36*
X130877392Y-89381174D02*
G01*
X130901053Y-89384684D01*
X130924257Y-89390496D01*
X130946779Y-89398554D01*
X130968403Y-89408782D01*
X130988920Y-89421079D01*
X131008133Y-89435329D01*
X131025857Y-89451393D01*
X131041921Y-89469117D01*
X131056171Y-89488330D01*
X131068468Y-89508847D01*
X131078696Y-89530471D01*
X131086754Y-89552993D01*
X131092566Y-89576197D01*
X131096076Y-89599858D01*
X131097250Y-89623750D01*
X131097250Y-90111250D01*
X131096076Y-90135142D01*
X131092566Y-90158803D01*
X131086754Y-90182007D01*
X131078696Y-90204529D01*
X131068468Y-90226153D01*
X131056171Y-90246670D01*
X131041921Y-90265883D01*
X131025857Y-90283607D01*
X131008133Y-90299671D01*
X130988920Y-90313921D01*
X130968403Y-90326218D01*
X130946779Y-90336446D01*
X130924257Y-90344504D01*
X130901053Y-90350316D01*
X130877392Y-90353826D01*
X130853500Y-90355000D01*
X129941000Y-90355000D01*
X129917108Y-90353826D01*
X129893447Y-90350316D01*
X129870243Y-90344504D01*
X129847721Y-90336446D01*
X129826097Y-90326218D01*
X129805580Y-90313921D01*
X129786367Y-90299671D01*
X129768643Y-90283607D01*
X129752579Y-90265883D01*
X129738329Y-90246670D01*
X129726032Y-90226153D01*
X129715804Y-90204529D01*
X129707746Y-90182007D01*
X129701934Y-90158803D01*
X129698424Y-90135142D01*
X129697250Y-90111250D01*
X129697250Y-89623750D01*
X129698424Y-89599858D01*
X129701934Y-89576197D01*
X129707746Y-89552993D01*
X129715804Y-89530471D01*
X129726032Y-89508847D01*
X129738329Y-89488330D01*
X129752579Y-89469117D01*
X129768643Y-89451393D01*
X129786367Y-89435329D01*
X129805580Y-89421079D01*
X129826097Y-89408782D01*
X129847721Y-89398554D01*
X129870243Y-89390496D01*
X129893447Y-89384684D01*
X129917108Y-89381174D01*
X129941000Y-89380000D01*
X130853500Y-89380000D01*
X130877392Y-89381174D01*
X130877392Y-89381174D01*
G37*
D17*
X130397250Y-89867500D03*
D16*
G36*
X130877392Y-91256174D02*
G01*
X130901053Y-91259684D01*
X130924257Y-91265496D01*
X130946779Y-91273554D01*
X130968403Y-91283782D01*
X130988920Y-91296079D01*
X131008133Y-91310329D01*
X131025857Y-91326393D01*
X131041921Y-91344117D01*
X131056171Y-91363330D01*
X131068468Y-91383847D01*
X131078696Y-91405471D01*
X131086754Y-91427993D01*
X131092566Y-91451197D01*
X131096076Y-91474858D01*
X131097250Y-91498750D01*
X131097250Y-91986250D01*
X131096076Y-92010142D01*
X131092566Y-92033803D01*
X131086754Y-92057007D01*
X131078696Y-92079529D01*
X131068468Y-92101153D01*
X131056171Y-92121670D01*
X131041921Y-92140883D01*
X131025857Y-92158607D01*
X131008133Y-92174671D01*
X130988920Y-92188921D01*
X130968403Y-92201218D01*
X130946779Y-92211446D01*
X130924257Y-92219504D01*
X130901053Y-92225316D01*
X130877392Y-92228826D01*
X130853500Y-92230000D01*
X129941000Y-92230000D01*
X129917108Y-92228826D01*
X129893447Y-92225316D01*
X129870243Y-92219504D01*
X129847721Y-92211446D01*
X129826097Y-92201218D01*
X129805580Y-92188921D01*
X129786367Y-92174671D01*
X129768643Y-92158607D01*
X129752579Y-92140883D01*
X129738329Y-92121670D01*
X129726032Y-92101153D01*
X129715804Y-92079529D01*
X129707746Y-92057007D01*
X129701934Y-92033803D01*
X129698424Y-92010142D01*
X129697250Y-91986250D01*
X129697250Y-91498750D01*
X129698424Y-91474858D01*
X129701934Y-91451197D01*
X129707746Y-91427993D01*
X129715804Y-91405471D01*
X129726032Y-91383847D01*
X129738329Y-91363330D01*
X129752579Y-91344117D01*
X129768643Y-91326393D01*
X129786367Y-91310329D01*
X129805580Y-91296079D01*
X129826097Y-91283782D01*
X129847721Y-91273554D01*
X129870243Y-91265496D01*
X129893447Y-91259684D01*
X129917108Y-91256174D01*
X129941000Y-91255000D01*
X130853500Y-91255000D01*
X130877392Y-91256174D01*
X130877392Y-91256174D01*
G37*
D17*
X130397250Y-91742500D03*
D16*
G36*
X134211142Y-89381174D02*
G01*
X134234803Y-89384684D01*
X134258007Y-89390496D01*
X134280529Y-89398554D01*
X134302153Y-89408782D01*
X134322670Y-89421079D01*
X134341883Y-89435329D01*
X134359607Y-89451393D01*
X134375671Y-89469117D01*
X134389921Y-89488330D01*
X134402218Y-89508847D01*
X134412446Y-89530471D01*
X134420504Y-89552993D01*
X134426316Y-89576197D01*
X134429826Y-89599858D01*
X134431000Y-89623750D01*
X134431000Y-90111250D01*
X134429826Y-90135142D01*
X134426316Y-90158803D01*
X134420504Y-90182007D01*
X134412446Y-90204529D01*
X134402218Y-90226153D01*
X134389921Y-90246670D01*
X134375671Y-90265883D01*
X134359607Y-90283607D01*
X134341883Y-90299671D01*
X134322670Y-90313921D01*
X134302153Y-90326218D01*
X134280529Y-90336446D01*
X134258007Y-90344504D01*
X134234803Y-90350316D01*
X134211142Y-90353826D01*
X134187250Y-90355000D01*
X133274750Y-90355000D01*
X133250858Y-90353826D01*
X133227197Y-90350316D01*
X133203993Y-90344504D01*
X133181471Y-90336446D01*
X133159847Y-90326218D01*
X133139330Y-90313921D01*
X133120117Y-90299671D01*
X133102393Y-90283607D01*
X133086329Y-90265883D01*
X133072079Y-90246670D01*
X133059782Y-90226153D01*
X133049554Y-90204529D01*
X133041496Y-90182007D01*
X133035684Y-90158803D01*
X133032174Y-90135142D01*
X133031000Y-90111250D01*
X133031000Y-89623750D01*
X133032174Y-89599858D01*
X133035684Y-89576197D01*
X133041496Y-89552993D01*
X133049554Y-89530471D01*
X133059782Y-89508847D01*
X133072079Y-89488330D01*
X133086329Y-89469117D01*
X133102393Y-89451393D01*
X133120117Y-89435329D01*
X133139330Y-89421079D01*
X133159847Y-89408782D01*
X133181471Y-89398554D01*
X133203993Y-89390496D01*
X133227197Y-89384684D01*
X133250858Y-89381174D01*
X133274750Y-89380000D01*
X134187250Y-89380000D01*
X134211142Y-89381174D01*
X134211142Y-89381174D01*
G37*
D17*
X133731000Y-89867500D03*
D16*
G36*
X134211142Y-91256174D02*
G01*
X134234803Y-91259684D01*
X134258007Y-91265496D01*
X134280529Y-91273554D01*
X134302153Y-91283782D01*
X134322670Y-91296079D01*
X134341883Y-91310329D01*
X134359607Y-91326393D01*
X134375671Y-91344117D01*
X134389921Y-91363330D01*
X134402218Y-91383847D01*
X134412446Y-91405471D01*
X134420504Y-91427993D01*
X134426316Y-91451197D01*
X134429826Y-91474858D01*
X134431000Y-91498750D01*
X134431000Y-91986250D01*
X134429826Y-92010142D01*
X134426316Y-92033803D01*
X134420504Y-92057007D01*
X134412446Y-92079529D01*
X134402218Y-92101153D01*
X134389921Y-92121670D01*
X134375671Y-92140883D01*
X134359607Y-92158607D01*
X134341883Y-92174671D01*
X134322670Y-92188921D01*
X134302153Y-92201218D01*
X134280529Y-92211446D01*
X134258007Y-92219504D01*
X134234803Y-92225316D01*
X134211142Y-92228826D01*
X134187250Y-92230000D01*
X133274750Y-92230000D01*
X133250858Y-92228826D01*
X133227197Y-92225316D01*
X133203993Y-92219504D01*
X133181471Y-92211446D01*
X133159847Y-92201218D01*
X133139330Y-92188921D01*
X133120117Y-92174671D01*
X133102393Y-92158607D01*
X133086329Y-92140883D01*
X133072079Y-92121670D01*
X133059782Y-92101153D01*
X133049554Y-92079529D01*
X133041496Y-92057007D01*
X133035684Y-92033803D01*
X133032174Y-92010142D01*
X133031000Y-91986250D01*
X133031000Y-91498750D01*
X133032174Y-91474858D01*
X133035684Y-91451197D01*
X133041496Y-91427993D01*
X133049554Y-91405471D01*
X133059782Y-91383847D01*
X133072079Y-91363330D01*
X133086329Y-91344117D01*
X133102393Y-91326393D01*
X133120117Y-91310329D01*
X133139330Y-91296079D01*
X133159847Y-91283782D01*
X133181471Y-91273554D01*
X133203993Y-91265496D01*
X133227197Y-91259684D01*
X133250858Y-91256174D01*
X133274750Y-91255000D01*
X134187250Y-91255000D01*
X134211142Y-91256174D01*
X134211142Y-91256174D01*
G37*
D17*
X133731000Y-91742500D03*
D16*
G36*
X140973892Y-90144924D02*
G01*
X140997553Y-90148434D01*
X141020757Y-90154246D01*
X141043279Y-90162304D01*
X141064903Y-90172532D01*
X141085420Y-90184829D01*
X141104633Y-90199079D01*
X141122357Y-90215143D01*
X141138421Y-90232867D01*
X141152671Y-90252080D01*
X141164968Y-90272597D01*
X141175196Y-90294221D01*
X141183254Y-90316743D01*
X141189066Y-90339947D01*
X141192576Y-90363608D01*
X141193750Y-90387500D01*
X141193750Y-90875000D01*
X141192576Y-90898892D01*
X141189066Y-90922553D01*
X141183254Y-90945757D01*
X141175196Y-90968279D01*
X141164968Y-90989903D01*
X141152671Y-91010420D01*
X141138421Y-91029633D01*
X141122357Y-91047357D01*
X141104633Y-91063421D01*
X141085420Y-91077671D01*
X141064903Y-91089968D01*
X141043279Y-91100196D01*
X141020757Y-91108254D01*
X140997553Y-91114066D01*
X140973892Y-91117576D01*
X140950000Y-91118750D01*
X140037500Y-91118750D01*
X140013608Y-91117576D01*
X139989947Y-91114066D01*
X139966743Y-91108254D01*
X139944221Y-91100196D01*
X139922597Y-91089968D01*
X139902080Y-91077671D01*
X139882867Y-91063421D01*
X139865143Y-91047357D01*
X139849079Y-91029633D01*
X139834829Y-91010420D01*
X139822532Y-90989903D01*
X139812304Y-90968279D01*
X139804246Y-90945757D01*
X139798434Y-90922553D01*
X139794924Y-90898892D01*
X139793750Y-90875000D01*
X139793750Y-90387500D01*
X139794924Y-90363608D01*
X139798434Y-90339947D01*
X139804246Y-90316743D01*
X139812304Y-90294221D01*
X139822532Y-90272597D01*
X139834829Y-90252080D01*
X139849079Y-90232867D01*
X139865143Y-90215143D01*
X139882867Y-90199079D01*
X139902080Y-90184829D01*
X139922597Y-90172532D01*
X139944221Y-90162304D01*
X139966743Y-90154246D01*
X139989947Y-90148434D01*
X140013608Y-90144924D01*
X140037500Y-90143750D01*
X140950000Y-90143750D01*
X140973892Y-90144924D01*
X140973892Y-90144924D01*
G37*
D17*
X140493750Y-90631250D03*
D16*
G36*
X140973892Y-88269924D02*
G01*
X140997553Y-88273434D01*
X141020757Y-88279246D01*
X141043279Y-88287304D01*
X141064903Y-88297532D01*
X141085420Y-88309829D01*
X141104633Y-88324079D01*
X141122357Y-88340143D01*
X141138421Y-88357867D01*
X141152671Y-88377080D01*
X141164968Y-88397597D01*
X141175196Y-88419221D01*
X141183254Y-88441743D01*
X141189066Y-88464947D01*
X141192576Y-88488608D01*
X141193750Y-88512500D01*
X141193750Y-89000000D01*
X141192576Y-89023892D01*
X141189066Y-89047553D01*
X141183254Y-89070757D01*
X141175196Y-89093279D01*
X141164968Y-89114903D01*
X141152671Y-89135420D01*
X141138421Y-89154633D01*
X141122357Y-89172357D01*
X141104633Y-89188421D01*
X141085420Y-89202671D01*
X141064903Y-89214968D01*
X141043279Y-89225196D01*
X141020757Y-89233254D01*
X140997553Y-89239066D01*
X140973892Y-89242576D01*
X140950000Y-89243750D01*
X140037500Y-89243750D01*
X140013608Y-89242576D01*
X139989947Y-89239066D01*
X139966743Y-89233254D01*
X139944221Y-89225196D01*
X139922597Y-89214968D01*
X139902080Y-89202671D01*
X139882867Y-89188421D01*
X139865143Y-89172357D01*
X139849079Y-89154633D01*
X139834829Y-89135420D01*
X139822532Y-89114903D01*
X139812304Y-89093279D01*
X139804246Y-89070757D01*
X139798434Y-89047553D01*
X139794924Y-89023892D01*
X139793750Y-89000000D01*
X139793750Y-88512500D01*
X139794924Y-88488608D01*
X139798434Y-88464947D01*
X139804246Y-88441743D01*
X139812304Y-88419221D01*
X139822532Y-88397597D01*
X139834829Y-88377080D01*
X139849079Y-88357867D01*
X139865143Y-88340143D01*
X139882867Y-88324079D01*
X139902080Y-88309829D01*
X139922597Y-88297532D01*
X139944221Y-88287304D01*
X139966743Y-88279246D01*
X139989947Y-88273434D01*
X140013608Y-88269924D01*
X140037500Y-88268750D01*
X140950000Y-88268750D01*
X140973892Y-88269924D01*
X140973892Y-88269924D01*
G37*
D17*
X140493750Y-88756250D03*
D18*
X196532500Y-113030000D03*
D19*
X193992500Y-113030000D03*
D20*
X192762500Y-103950000D03*
X192107501Y-104680000D03*
D21*
X191452500Y-105410000D02*
X192762502Y-103950000D01*
D20*
X197802500Y-102870000D03*
X197782500Y-103160000D03*
D21*
X197762500Y-103450000D02*
X197802500Y-102870000D01*
D18*
X177482500Y-113030000D03*
D19*
X174942500Y-113030000D03*
D20*
X173712500Y-103950000D03*
X173057501Y-104680000D03*
D21*
X172402500Y-105410000D02*
X173712502Y-103950000D01*
D20*
X178752500Y-102870000D03*
X178732500Y-103160000D03*
D21*
X178712500Y-103450000D02*
X178752500Y-102870000D01*
D18*
X196532500Y-93980000D03*
D19*
X193992500Y-93980000D03*
D20*
X192762500Y-84900000D03*
X192107501Y-85630000D03*
D21*
X191452500Y-86360000D02*
X192762502Y-84900000D01*
D20*
X197802500Y-83820000D03*
X197782500Y-84110000D03*
D21*
X197762500Y-84400000D02*
X197802500Y-83820000D01*
D18*
X177482500Y-93980000D03*
D19*
X174942500Y-93980000D03*
D20*
X173712500Y-84900000D03*
X173057501Y-85630000D03*
D21*
X172402500Y-86360000D02*
X173712502Y-84900000D01*
D20*
X178752500Y-83820000D03*
X178732500Y-84110000D03*
D21*
X178712500Y-84400000D02*
X178752500Y-83820000D01*
D16*
G36*
X127649504Y-94813704D02*
G01*
X127673773Y-94817304D01*
X127697571Y-94823265D01*
X127720671Y-94831530D01*
X127742849Y-94842020D01*
X127763893Y-94854633D01*
X127783598Y-94869247D01*
X127801777Y-94885723D01*
X127818253Y-94903902D01*
X127832867Y-94923607D01*
X127845480Y-94944651D01*
X127855970Y-94966829D01*
X127864235Y-94989929D01*
X127870196Y-95013727D01*
X127873796Y-95037996D01*
X127875000Y-95062500D01*
X127875000Y-95812500D01*
X127873796Y-95837004D01*
X127870196Y-95861273D01*
X127864235Y-95885071D01*
X127855970Y-95908171D01*
X127845480Y-95930349D01*
X127832867Y-95951393D01*
X127818253Y-95971098D01*
X127801777Y-95989277D01*
X127783598Y-96005753D01*
X127763893Y-96020367D01*
X127742849Y-96032980D01*
X127720671Y-96043470D01*
X127697571Y-96051735D01*
X127673773Y-96057696D01*
X127649504Y-96061296D01*
X127625000Y-96062500D01*
X126375000Y-96062500D01*
X126350496Y-96061296D01*
X126326227Y-96057696D01*
X126302429Y-96051735D01*
X126279329Y-96043470D01*
X126257151Y-96032980D01*
X126236107Y-96020367D01*
X126216402Y-96005753D01*
X126198223Y-95989277D01*
X126181747Y-95971098D01*
X126167133Y-95951393D01*
X126154520Y-95930349D01*
X126144030Y-95908171D01*
X126135765Y-95885071D01*
X126129804Y-95861273D01*
X126126204Y-95837004D01*
X126125000Y-95812500D01*
X126125000Y-95062500D01*
X126126204Y-95037996D01*
X126129804Y-95013727D01*
X126135765Y-94989929D01*
X126144030Y-94966829D01*
X126154520Y-94944651D01*
X126167133Y-94923607D01*
X126181747Y-94903902D01*
X126198223Y-94885723D01*
X126216402Y-94869247D01*
X126236107Y-94854633D01*
X126257151Y-94842020D01*
X126279329Y-94831530D01*
X126302429Y-94823265D01*
X126326227Y-94817304D01*
X126350496Y-94813704D01*
X126375000Y-94812500D01*
X127625000Y-94812500D01*
X127649504Y-94813704D01*
X127649504Y-94813704D01*
G37*
D22*
X127000000Y-95437500D03*
D16*
G36*
X127649504Y-97613704D02*
G01*
X127673773Y-97617304D01*
X127697571Y-97623265D01*
X127720671Y-97631530D01*
X127742849Y-97642020D01*
X127763893Y-97654633D01*
X127783598Y-97669247D01*
X127801777Y-97685723D01*
X127818253Y-97703902D01*
X127832867Y-97723607D01*
X127845480Y-97744651D01*
X127855970Y-97766829D01*
X127864235Y-97789929D01*
X127870196Y-97813727D01*
X127873796Y-97837996D01*
X127875000Y-97862500D01*
X127875000Y-98612500D01*
X127873796Y-98637004D01*
X127870196Y-98661273D01*
X127864235Y-98685071D01*
X127855970Y-98708171D01*
X127845480Y-98730349D01*
X127832867Y-98751393D01*
X127818253Y-98771098D01*
X127801777Y-98789277D01*
X127783598Y-98805753D01*
X127763893Y-98820367D01*
X127742849Y-98832980D01*
X127720671Y-98843470D01*
X127697571Y-98851735D01*
X127673773Y-98857696D01*
X127649504Y-98861296D01*
X127625000Y-98862500D01*
X126375000Y-98862500D01*
X126350496Y-98861296D01*
X126326227Y-98857696D01*
X126302429Y-98851735D01*
X126279329Y-98843470D01*
X126257151Y-98832980D01*
X126236107Y-98820367D01*
X126216402Y-98805753D01*
X126198223Y-98789277D01*
X126181747Y-98771098D01*
X126167133Y-98751393D01*
X126154520Y-98730349D01*
X126144030Y-98708171D01*
X126135765Y-98685071D01*
X126129804Y-98661273D01*
X126126204Y-98637004D01*
X126125000Y-98612500D01*
X126125000Y-97862500D01*
X126126204Y-97837996D01*
X126129804Y-97813727D01*
X126135765Y-97789929D01*
X126144030Y-97766829D01*
X126154520Y-97744651D01*
X126167133Y-97723607D01*
X126181747Y-97703902D01*
X126198223Y-97685723D01*
X126216402Y-97669247D01*
X126236107Y-97654633D01*
X126257151Y-97642020D01*
X126279329Y-97631530D01*
X126302429Y-97623265D01*
X126326227Y-97617304D01*
X126350496Y-97613704D01*
X126375000Y-97612500D01*
X127625000Y-97612500D01*
X127649504Y-97613704D01*
X127649504Y-97613704D01*
G37*
D22*
X127000000Y-98237500D03*
D23*
X203200000Y-106300000D03*
X203200000Y-109600000D03*
X184150000Y-106300000D03*
X184150000Y-109600000D03*
X203200000Y-87250000D03*
X203200000Y-90550000D03*
X184150000Y-87250000D03*
X184150000Y-90550000D03*
D16*
G36*
X141767642Y-104432424D02*
G01*
X141791303Y-104435934D01*
X141814507Y-104441746D01*
X141837029Y-104449804D01*
X141858653Y-104460032D01*
X141879170Y-104472329D01*
X141898383Y-104486579D01*
X141916107Y-104502643D01*
X141932171Y-104520367D01*
X141946421Y-104539580D01*
X141958718Y-104560097D01*
X141968946Y-104581721D01*
X141977004Y-104604243D01*
X141982816Y-104627447D01*
X141986326Y-104651108D01*
X141987500Y-104675000D01*
X141987500Y-105162500D01*
X141986326Y-105186392D01*
X141982816Y-105210053D01*
X141977004Y-105233257D01*
X141968946Y-105255779D01*
X141958718Y-105277403D01*
X141946421Y-105297920D01*
X141932171Y-105317133D01*
X141916107Y-105334857D01*
X141898383Y-105350921D01*
X141879170Y-105365171D01*
X141858653Y-105377468D01*
X141837029Y-105387696D01*
X141814507Y-105395754D01*
X141791303Y-105401566D01*
X141767642Y-105405076D01*
X141743750Y-105406250D01*
X140831250Y-105406250D01*
X140807358Y-105405076D01*
X140783697Y-105401566D01*
X140760493Y-105395754D01*
X140737971Y-105387696D01*
X140716347Y-105377468D01*
X140695830Y-105365171D01*
X140676617Y-105350921D01*
X140658893Y-105334857D01*
X140642829Y-105317133D01*
X140628579Y-105297920D01*
X140616282Y-105277403D01*
X140606054Y-105255779D01*
X140597996Y-105233257D01*
X140592184Y-105210053D01*
X140588674Y-105186392D01*
X140587500Y-105162500D01*
X140587500Y-104675000D01*
X140588674Y-104651108D01*
X140592184Y-104627447D01*
X140597996Y-104604243D01*
X140606054Y-104581721D01*
X140616282Y-104560097D01*
X140628579Y-104539580D01*
X140642829Y-104520367D01*
X140658893Y-104502643D01*
X140676617Y-104486579D01*
X140695830Y-104472329D01*
X140716347Y-104460032D01*
X140737971Y-104449804D01*
X140760493Y-104441746D01*
X140783697Y-104435934D01*
X140807358Y-104432424D01*
X140831250Y-104431250D01*
X141743750Y-104431250D01*
X141767642Y-104432424D01*
X141767642Y-104432424D01*
G37*
D17*
X141287500Y-104918750D03*
D16*
G36*
X141767642Y-102557424D02*
G01*
X141791303Y-102560934D01*
X141814507Y-102566746D01*
X141837029Y-102574804D01*
X141858653Y-102585032D01*
X141879170Y-102597329D01*
X141898383Y-102611579D01*
X141916107Y-102627643D01*
X141932171Y-102645367D01*
X141946421Y-102664580D01*
X141958718Y-102685097D01*
X141968946Y-102706721D01*
X141977004Y-102729243D01*
X141982816Y-102752447D01*
X141986326Y-102776108D01*
X141987500Y-102800000D01*
X141987500Y-103287500D01*
X141986326Y-103311392D01*
X141982816Y-103335053D01*
X141977004Y-103358257D01*
X141968946Y-103380779D01*
X141958718Y-103402403D01*
X141946421Y-103422920D01*
X141932171Y-103442133D01*
X141916107Y-103459857D01*
X141898383Y-103475921D01*
X141879170Y-103490171D01*
X141858653Y-103502468D01*
X141837029Y-103512696D01*
X141814507Y-103520754D01*
X141791303Y-103526566D01*
X141767642Y-103530076D01*
X141743750Y-103531250D01*
X140831250Y-103531250D01*
X140807358Y-103530076D01*
X140783697Y-103526566D01*
X140760493Y-103520754D01*
X140737971Y-103512696D01*
X140716347Y-103502468D01*
X140695830Y-103490171D01*
X140676617Y-103475921D01*
X140658893Y-103459857D01*
X140642829Y-103442133D01*
X140628579Y-103422920D01*
X140616282Y-103402403D01*
X140606054Y-103380779D01*
X140597996Y-103358257D01*
X140592184Y-103335053D01*
X140588674Y-103311392D01*
X140587500Y-103287500D01*
X140587500Y-102800000D01*
X140588674Y-102776108D01*
X140592184Y-102752447D01*
X140597996Y-102729243D01*
X140606054Y-102706721D01*
X140616282Y-102685097D01*
X140628579Y-102664580D01*
X140642829Y-102645367D01*
X140658893Y-102627643D01*
X140676617Y-102611579D01*
X140695830Y-102597329D01*
X140716347Y-102585032D01*
X140737971Y-102574804D01*
X140760493Y-102566746D01*
X140783697Y-102560934D01*
X140807358Y-102557424D01*
X140831250Y-102556250D01*
X141743750Y-102556250D01*
X141767642Y-102557424D01*
X141767642Y-102557424D01*
G37*
D17*
X141287500Y-103043750D03*
D16*
G36*
X156492642Y-107251174D02*
G01*
X156516303Y-107254684D01*
X156539507Y-107260496D01*
X156562029Y-107268554D01*
X156583653Y-107278782D01*
X156604170Y-107291079D01*
X156623383Y-107305329D01*
X156641107Y-107321393D01*
X156657171Y-107339117D01*
X156671421Y-107358330D01*
X156683718Y-107378847D01*
X156693946Y-107400471D01*
X156702004Y-107422993D01*
X156707816Y-107446197D01*
X156711326Y-107469858D01*
X156712500Y-107493750D01*
X156712500Y-108406250D01*
X156711326Y-108430142D01*
X156707816Y-108453803D01*
X156702004Y-108477007D01*
X156693946Y-108499529D01*
X156683718Y-108521153D01*
X156671421Y-108541670D01*
X156657171Y-108560883D01*
X156641107Y-108578607D01*
X156623383Y-108594671D01*
X156604170Y-108608921D01*
X156583653Y-108621218D01*
X156562029Y-108631446D01*
X156539507Y-108639504D01*
X156516303Y-108645316D01*
X156492642Y-108648826D01*
X156468750Y-108650000D01*
X155981250Y-108650000D01*
X155957358Y-108648826D01*
X155933697Y-108645316D01*
X155910493Y-108639504D01*
X155887971Y-108631446D01*
X155866347Y-108621218D01*
X155845830Y-108608921D01*
X155826617Y-108594671D01*
X155808893Y-108578607D01*
X155792829Y-108560883D01*
X155778579Y-108541670D01*
X155766282Y-108521153D01*
X155756054Y-108499529D01*
X155747996Y-108477007D01*
X155742184Y-108453803D01*
X155738674Y-108430142D01*
X155737500Y-108406250D01*
X155737500Y-107493750D01*
X155738674Y-107469858D01*
X155742184Y-107446197D01*
X155747996Y-107422993D01*
X155756054Y-107400471D01*
X155766282Y-107378847D01*
X155778579Y-107358330D01*
X155792829Y-107339117D01*
X155808893Y-107321393D01*
X155826617Y-107305329D01*
X155845830Y-107291079D01*
X155866347Y-107278782D01*
X155887971Y-107268554D01*
X155910493Y-107260496D01*
X155933697Y-107254684D01*
X155957358Y-107251174D01*
X155981250Y-107250000D01*
X156468750Y-107250000D01*
X156492642Y-107251174D01*
X156492642Y-107251174D01*
G37*
D17*
X156225000Y-107950000D03*
D16*
G36*
X158367642Y-107251174D02*
G01*
X158391303Y-107254684D01*
X158414507Y-107260496D01*
X158437029Y-107268554D01*
X158458653Y-107278782D01*
X158479170Y-107291079D01*
X158498383Y-107305329D01*
X158516107Y-107321393D01*
X158532171Y-107339117D01*
X158546421Y-107358330D01*
X158558718Y-107378847D01*
X158568946Y-107400471D01*
X158577004Y-107422993D01*
X158582816Y-107446197D01*
X158586326Y-107469858D01*
X158587500Y-107493750D01*
X158587500Y-108406250D01*
X158586326Y-108430142D01*
X158582816Y-108453803D01*
X158577004Y-108477007D01*
X158568946Y-108499529D01*
X158558718Y-108521153D01*
X158546421Y-108541670D01*
X158532171Y-108560883D01*
X158516107Y-108578607D01*
X158498383Y-108594671D01*
X158479170Y-108608921D01*
X158458653Y-108621218D01*
X158437029Y-108631446D01*
X158414507Y-108639504D01*
X158391303Y-108645316D01*
X158367642Y-108648826D01*
X158343750Y-108650000D01*
X157856250Y-108650000D01*
X157832358Y-108648826D01*
X157808697Y-108645316D01*
X157785493Y-108639504D01*
X157762971Y-108631446D01*
X157741347Y-108621218D01*
X157720830Y-108608921D01*
X157701617Y-108594671D01*
X157683893Y-108578607D01*
X157667829Y-108560883D01*
X157653579Y-108541670D01*
X157641282Y-108521153D01*
X157631054Y-108499529D01*
X157622996Y-108477007D01*
X157617184Y-108453803D01*
X157613674Y-108430142D01*
X157612500Y-108406250D01*
X157612500Y-107493750D01*
X157613674Y-107469858D01*
X157617184Y-107446197D01*
X157622996Y-107422993D01*
X157631054Y-107400471D01*
X157641282Y-107378847D01*
X157653579Y-107358330D01*
X157667829Y-107339117D01*
X157683893Y-107321393D01*
X157701617Y-107305329D01*
X157720830Y-107291079D01*
X157741347Y-107278782D01*
X157762971Y-107268554D01*
X157785493Y-107260496D01*
X157808697Y-107254684D01*
X157832358Y-107251174D01*
X157856250Y-107250000D01*
X158343750Y-107250000D01*
X158367642Y-107251174D01*
X158367642Y-107251174D01*
G37*
D17*
X158100000Y-107950000D03*
D16*
G36*
X162405142Y-92238674D02*
G01*
X162428803Y-92242184D01*
X162452007Y-92247996D01*
X162474529Y-92256054D01*
X162496153Y-92266282D01*
X162516670Y-92278579D01*
X162535883Y-92292829D01*
X162553607Y-92308893D01*
X162569671Y-92326617D01*
X162583921Y-92345830D01*
X162596218Y-92366347D01*
X162606446Y-92387971D01*
X162614504Y-92410493D01*
X162620316Y-92433697D01*
X162623826Y-92457358D01*
X162625000Y-92481250D01*
X162625000Y-92968750D01*
X162623826Y-92992642D01*
X162620316Y-93016303D01*
X162614504Y-93039507D01*
X162606446Y-93062029D01*
X162596218Y-93083653D01*
X162583921Y-93104170D01*
X162569671Y-93123383D01*
X162553607Y-93141107D01*
X162535883Y-93157171D01*
X162516670Y-93171421D01*
X162496153Y-93183718D01*
X162474529Y-93193946D01*
X162452007Y-93202004D01*
X162428803Y-93207816D01*
X162405142Y-93211326D01*
X162381250Y-93212500D01*
X161468750Y-93212500D01*
X161444858Y-93211326D01*
X161421197Y-93207816D01*
X161397993Y-93202004D01*
X161375471Y-93193946D01*
X161353847Y-93183718D01*
X161333330Y-93171421D01*
X161314117Y-93157171D01*
X161296393Y-93141107D01*
X161280329Y-93123383D01*
X161266079Y-93104170D01*
X161253782Y-93083653D01*
X161243554Y-93062029D01*
X161235496Y-93039507D01*
X161229684Y-93016303D01*
X161226174Y-92992642D01*
X161225000Y-92968750D01*
X161225000Y-92481250D01*
X161226174Y-92457358D01*
X161229684Y-92433697D01*
X161235496Y-92410493D01*
X161243554Y-92387971D01*
X161253782Y-92366347D01*
X161266079Y-92345830D01*
X161280329Y-92326617D01*
X161296393Y-92308893D01*
X161314117Y-92292829D01*
X161333330Y-92278579D01*
X161353847Y-92266282D01*
X161375471Y-92256054D01*
X161397993Y-92247996D01*
X161421197Y-92242184D01*
X161444858Y-92238674D01*
X161468750Y-92237500D01*
X162381250Y-92237500D01*
X162405142Y-92238674D01*
X162405142Y-92238674D01*
G37*
D17*
X161925000Y-92725000D03*
D16*
G36*
X162405142Y-94113674D02*
G01*
X162428803Y-94117184D01*
X162452007Y-94122996D01*
X162474529Y-94131054D01*
X162496153Y-94141282D01*
X162516670Y-94153579D01*
X162535883Y-94167829D01*
X162553607Y-94183893D01*
X162569671Y-94201617D01*
X162583921Y-94220830D01*
X162596218Y-94241347D01*
X162606446Y-94262971D01*
X162614504Y-94285493D01*
X162620316Y-94308697D01*
X162623826Y-94332358D01*
X162625000Y-94356250D01*
X162625000Y-94843750D01*
X162623826Y-94867642D01*
X162620316Y-94891303D01*
X162614504Y-94914507D01*
X162606446Y-94937029D01*
X162596218Y-94958653D01*
X162583921Y-94979170D01*
X162569671Y-94998383D01*
X162553607Y-95016107D01*
X162535883Y-95032171D01*
X162516670Y-95046421D01*
X162496153Y-95058718D01*
X162474529Y-95068946D01*
X162452007Y-95077004D01*
X162428803Y-95082816D01*
X162405142Y-95086326D01*
X162381250Y-95087500D01*
X161468750Y-95087500D01*
X161444858Y-95086326D01*
X161421197Y-95082816D01*
X161397993Y-95077004D01*
X161375471Y-95068946D01*
X161353847Y-95058718D01*
X161333330Y-95046421D01*
X161314117Y-95032171D01*
X161296393Y-95016107D01*
X161280329Y-94998383D01*
X161266079Y-94979170D01*
X161253782Y-94958653D01*
X161243554Y-94937029D01*
X161235496Y-94914507D01*
X161229684Y-94891303D01*
X161226174Y-94867642D01*
X161225000Y-94843750D01*
X161225000Y-94356250D01*
X161226174Y-94332358D01*
X161229684Y-94308697D01*
X161235496Y-94285493D01*
X161243554Y-94262971D01*
X161253782Y-94241347D01*
X161266079Y-94220830D01*
X161280329Y-94201617D01*
X161296393Y-94183893D01*
X161314117Y-94167829D01*
X161333330Y-94153579D01*
X161353847Y-94141282D01*
X161375471Y-94131054D01*
X161397993Y-94122996D01*
X161421197Y-94117184D01*
X161444858Y-94113674D01*
X161468750Y-94112500D01*
X162381250Y-94112500D01*
X162405142Y-94113674D01*
X162405142Y-94113674D01*
G37*
D17*
X161925000Y-94600000D03*
D16*
G36*
X144148892Y-88269924D02*
G01*
X144172553Y-88273434D01*
X144195757Y-88279246D01*
X144218279Y-88287304D01*
X144239903Y-88297532D01*
X144260420Y-88309829D01*
X144279633Y-88324079D01*
X144297357Y-88340143D01*
X144313421Y-88357867D01*
X144327671Y-88377080D01*
X144339968Y-88397597D01*
X144350196Y-88419221D01*
X144358254Y-88441743D01*
X144364066Y-88464947D01*
X144367576Y-88488608D01*
X144368750Y-88512500D01*
X144368750Y-89000000D01*
X144367576Y-89023892D01*
X144364066Y-89047553D01*
X144358254Y-89070757D01*
X144350196Y-89093279D01*
X144339968Y-89114903D01*
X144327671Y-89135420D01*
X144313421Y-89154633D01*
X144297357Y-89172357D01*
X144279633Y-89188421D01*
X144260420Y-89202671D01*
X144239903Y-89214968D01*
X144218279Y-89225196D01*
X144195757Y-89233254D01*
X144172553Y-89239066D01*
X144148892Y-89242576D01*
X144125000Y-89243750D01*
X143212500Y-89243750D01*
X143188608Y-89242576D01*
X143164947Y-89239066D01*
X143141743Y-89233254D01*
X143119221Y-89225196D01*
X143097597Y-89214968D01*
X143077080Y-89202671D01*
X143057867Y-89188421D01*
X143040143Y-89172357D01*
X143024079Y-89154633D01*
X143009829Y-89135420D01*
X142997532Y-89114903D01*
X142987304Y-89093279D01*
X142979246Y-89070757D01*
X142973434Y-89047553D01*
X142969924Y-89023892D01*
X142968750Y-89000000D01*
X142968750Y-88512500D01*
X142969924Y-88488608D01*
X142973434Y-88464947D01*
X142979246Y-88441743D01*
X142987304Y-88419221D01*
X142997532Y-88397597D01*
X143009829Y-88377080D01*
X143024079Y-88357867D01*
X143040143Y-88340143D01*
X143057867Y-88324079D01*
X143077080Y-88309829D01*
X143097597Y-88297532D01*
X143119221Y-88287304D01*
X143141743Y-88279246D01*
X143164947Y-88273434D01*
X143188608Y-88269924D01*
X143212500Y-88268750D01*
X144125000Y-88268750D01*
X144148892Y-88269924D01*
X144148892Y-88269924D01*
G37*
D17*
X143668750Y-88756250D03*
D16*
G36*
X144148892Y-90144924D02*
G01*
X144172553Y-90148434D01*
X144195757Y-90154246D01*
X144218279Y-90162304D01*
X144239903Y-90172532D01*
X144260420Y-90184829D01*
X144279633Y-90199079D01*
X144297357Y-90215143D01*
X144313421Y-90232867D01*
X144327671Y-90252080D01*
X144339968Y-90272597D01*
X144350196Y-90294221D01*
X144358254Y-90316743D01*
X144364066Y-90339947D01*
X144367576Y-90363608D01*
X144368750Y-90387500D01*
X144368750Y-90875000D01*
X144367576Y-90898892D01*
X144364066Y-90922553D01*
X144358254Y-90945757D01*
X144350196Y-90968279D01*
X144339968Y-90989903D01*
X144327671Y-91010420D01*
X144313421Y-91029633D01*
X144297357Y-91047357D01*
X144279633Y-91063421D01*
X144260420Y-91077671D01*
X144239903Y-91089968D01*
X144218279Y-91100196D01*
X144195757Y-91108254D01*
X144172553Y-91114066D01*
X144148892Y-91117576D01*
X144125000Y-91118750D01*
X143212500Y-91118750D01*
X143188608Y-91117576D01*
X143164947Y-91114066D01*
X143141743Y-91108254D01*
X143119221Y-91100196D01*
X143097597Y-91089968D01*
X143077080Y-91077671D01*
X143057867Y-91063421D01*
X143040143Y-91047357D01*
X143024079Y-91029633D01*
X143009829Y-91010420D01*
X142997532Y-90989903D01*
X142987304Y-90968279D01*
X142979246Y-90945757D01*
X142973434Y-90922553D01*
X142969924Y-90898892D01*
X142968750Y-90875000D01*
X142968750Y-90387500D01*
X142969924Y-90363608D01*
X142973434Y-90339947D01*
X142979246Y-90316743D01*
X142987304Y-90294221D01*
X142997532Y-90272597D01*
X143009829Y-90252080D01*
X143024079Y-90232867D01*
X143040143Y-90215143D01*
X143057867Y-90199079D01*
X143077080Y-90184829D01*
X143097597Y-90172532D01*
X143119221Y-90162304D01*
X143141743Y-90154246D01*
X143164947Y-90148434D01*
X143188608Y-90144924D01*
X143212500Y-90143750D01*
X144125000Y-90143750D01*
X144148892Y-90144924D01*
X144148892Y-90144924D01*
G37*
D17*
X143668750Y-90631250D03*
D16*
G36*
X143286392Y-96932424D02*
G01*
X143310053Y-96935934D01*
X143333257Y-96941746D01*
X143355779Y-96949804D01*
X143377403Y-96960032D01*
X143397920Y-96972329D01*
X143417133Y-96986579D01*
X143434857Y-97002643D01*
X143450921Y-97020367D01*
X143465171Y-97039580D01*
X143477468Y-97060097D01*
X143487696Y-97081721D01*
X143495754Y-97104243D01*
X143501566Y-97127447D01*
X143505076Y-97151108D01*
X143506250Y-97175000D01*
X143506250Y-98087500D01*
X143505076Y-98111392D01*
X143501566Y-98135053D01*
X143495754Y-98158257D01*
X143487696Y-98180779D01*
X143477468Y-98202403D01*
X143465171Y-98222920D01*
X143450921Y-98242133D01*
X143434857Y-98259857D01*
X143417133Y-98275921D01*
X143397920Y-98290171D01*
X143377403Y-98302468D01*
X143355779Y-98312696D01*
X143333257Y-98320754D01*
X143310053Y-98326566D01*
X143286392Y-98330076D01*
X143262500Y-98331250D01*
X142775000Y-98331250D01*
X142751108Y-98330076D01*
X142727447Y-98326566D01*
X142704243Y-98320754D01*
X142681721Y-98312696D01*
X142660097Y-98302468D01*
X142639580Y-98290171D01*
X142620367Y-98275921D01*
X142602643Y-98259857D01*
X142586579Y-98242133D01*
X142572329Y-98222920D01*
X142560032Y-98202403D01*
X142549804Y-98180779D01*
X142541746Y-98158257D01*
X142535934Y-98135053D01*
X142532424Y-98111392D01*
X142531250Y-98087500D01*
X142531250Y-97175000D01*
X142532424Y-97151108D01*
X142535934Y-97127447D01*
X142541746Y-97104243D01*
X142549804Y-97081721D01*
X142560032Y-97060097D01*
X142572329Y-97039580D01*
X142586579Y-97020367D01*
X142602643Y-97002643D01*
X142620367Y-96986579D01*
X142639580Y-96972329D01*
X142660097Y-96960032D01*
X142681721Y-96949804D01*
X142704243Y-96941746D01*
X142727447Y-96935934D01*
X142751108Y-96932424D01*
X142775000Y-96931250D01*
X143262500Y-96931250D01*
X143286392Y-96932424D01*
X143286392Y-96932424D01*
G37*
D17*
X143018750Y-97631250D03*
D16*
G36*
X141411392Y-96932424D02*
G01*
X141435053Y-96935934D01*
X141458257Y-96941746D01*
X141480779Y-96949804D01*
X141502403Y-96960032D01*
X141522920Y-96972329D01*
X141542133Y-96986579D01*
X141559857Y-97002643D01*
X141575921Y-97020367D01*
X141590171Y-97039580D01*
X141602468Y-97060097D01*
X141612696Y-97081721D01*
X141620754Y-97104243D01*
X141626566Y-97127447D01*
X141630076Y-97151108D01*
X141631250Y-97175000D01*
X141631250Y-98087500D01*
X141630076Y-98111392D01*
X141626566Y-98135053D01*
X141620754Y-98158257D01*
X141612696Y-98180779D01*
X141602468Y-98202403D01*
X141590171Y-98222920D01*
X141575921Y-98242133D01*
X141559857Y-98259857D01*
X141542133Y-98275921D01*
X141522920Y-98290171D01*
X141502403Y-98302468D01*
X141480779Y-98312696D01*
X141458257Y-98320754D01*
X141435053Y-98326566D01*
X141411392Y-98330076D01*
X141387500Y-98331250D01*
X140900000Y-98331250D01*
X140876108Y-98330076D01*
X140852447Y-98326566D01*
X140829243Y-98320754D01*
X140806721Y-98312696D01*
X140785097Y-98302468D01*
X140764580Y-98290171D01*
X140745367Y-98275921D01*
X140727643Y-98259857D01*
X140711579Y-98242133D01*
X140697329Y-98222920D01*
X140685032Y-98202403D01*
X140674804Y-98180779D01*
X140666746Y-98158257D01*
X140660934Y-98135053D01*
X140657424Y-98111392D01*
X140656250Y-98087500D01*
X140656250Y-97175000D01*
X140657424Y-97151108D01*
X140660934Y-97127447D01*
X140666746Y-97104243D01*
X140674804Y-97081721D01*
X140685032Y-97060097D01*
X140697329Y-97039580D01*
X140711579Y-97020367D01*
X140727643Y-97002643D01*
X140745367Y-96986579D01*
X140764580Y-96972329D01*
X140785097Y-96960032D01*
X140806721Y-96949804D01*
X140829243Y-96941746D01*
X140852447Y-96935934D01*
X140876108Y-96932424D01*
X140900000Y-96931250D01*
X141387500Y-96931250D01*
X141411392Y-96932424D01*
X141411392Y-96932424D01*
G37*
D17*
X141143750Y-97631250D03*
D16*
G36*
X148911392Y-82713674D02*
G01*
X148935053Y-82717184D01*
X148958257Y-82722996D01*
X148980779Y-82731054D01*
X149002403Y-82741282D01*
X149022920Y-82753579D01*
X149042133Y-82767829D01*
X149059857Y-82783893D01*
X149075921Y-82801617D01*
X149090171Y-82820830D01*
X149102468Y-82841347D01*
X149112696Y-82862971D01*
X149120754Y-82885493D01*
X149126566Y-82908697D01*
X149130076Y-82932358D01*
X149131250Y-82956250D01*
X149131250Y-83443750D01*
X149130076Y-83467642D01*
X149126566Y-83491303D01*
X149120754Y-83514507D01*
X149112696Y-83537029D01*
X149102468Y-83558653D01*
X149090171Y-83579170D01*
X149075921Y-83598383D01*
X149059857Y-83616107D01*
X149042133Y-83632171D01*
X149022920Y-83646421D01*
X149002403Y-83658718D01*
X148980779Y-83668946D01*
X148958257Y-83677004D01*
X148935053Y-83682816D01*
X148911392Y-83686326D01*
X148887500Y-83687500D01*
X147975000Y-83687500D01*
X147951108Y-83686326D01*
X147927447Y-83682816D01*
X147904243Y-83677004D01*
X147881721Y-83668946D01*
X147860097Y-83658718D01*
X147839580Y-83646421D01*
X147820367Y-83632171D01*
X147802643Y-83616107D01*
X147786579Y-83598383D01*
X147772329Y-83579170D01*
X147760032Y-83558653D01*
X147749804Y-83537029D01*
X147741746Y-83514507D01*
X147735934Y-83491303D01*
X147732424Y-83467642D01*
X147731250Y-83443750D01*
X147731250Y-82956250D01*
X147732424Y-82932358D01*
X147735934Y-82908697D01*
X147741746Y-82885493D01*
X147749804Y-82862971D01*
X147760032Y-82841347D01*
X147772329Y-82820830D01*
X147786579Y-82801617D01*
X147802643Y-82783893D01*
X147820367Y-82767829D01*
X147839580Y-82753579D01*
X147860097Y-82741282D01*
X147881721Y-82731054D01*
X147904243Y-82722996D01*
X147927447Y-82717184D01*
X147951108Y-82713674D01*
X147975000Y-82712500D01*
X148887500Y-82712500D01*
X148911392Y-82713674D01*
X148911392Y-82713674D01*
G37*
D17*
X148431250Y-83200000D03*
D16*
G36*
X148911392Y-84588674D02*
G01*
X148935053Y-84592184D01*
X148958257Y-84597996D01*
X148980779Y-84606054D01*
X149002403Y-84616282D01*
X149022920Y-84628579D01*
X149042133Y-84642829D01*
X149059857Y-84658893D01*
X149075921Y-84676617D01*
X149090171Y-84695830D01*
X149102468Y-84716347D01*
X149112696Y-84737971D01*
X149120754Y-84760493D01*
X149126566Y-84783697D01*
X149130076Y-84807358D01*
X149131250Y-84831250D01*
X149131250Y-85318750D01*
X149130076Y-85342642D01*
X149126566Y-85366303D01*
X149120754Y-85389507D01*
X149112696Y-85412029D01*
X149102468Y-85433653D01*
X149090171Y-85454170D01*
X149075921Y-85473383D01*
X149059857Y-85491107D01*
X149042133Y-85507171D01*
X149022920Y-85521421D01*
X149002403Y-85533718D01*
X148980779Y-85543946D01*
X148958257Y-85552004D01*
X148935053Y-85557816D01*
X148911392Y-85561326D01*
X148887500Y-85562500D01*
X147975000Y-85562500D01*
X147951108Y-85561326D01*
X147927447Y-85557816D01*
X147904243Y-85552004D01*
X147881721Y-85543946D01*
X147860097Y-85533718D01*
X147839580Y-85521421D01*
X147820367Y-85507171D01*
X147802643Y-85491107D01*
X147786579Y-85473383D01*
X147772329Y-85454170D01*
X147760032Y-85433653D01*
X147749804Y-85412029D01*
X147741746Y-85389507D01*
X147735934Y-85366303D01*
X147732424Y-85342642D01*
X147731250Y-85318750D01*
X147731250Y-84831250D01*
X147732424Y-84807358D01*
X147735934Y-84783697D01*
X147741746Y-84760493D01*
X147749804Y-84737971D01*
X147760032Y-84716347D01*
X147772329Y-84695830D01*
X147786579Y-84676617D01*
X147802643Y-84658893D01*
X147820367Y-84642829D01*
X147839580Y-84628579D01*
X147860097Y-84616282D01*
X147881721Y-84606054D01*
X147904243Y-84597996D01*
X147927447Y-84592184D01*
X147951108Y-84588674D01*
X147975000Y-84587500D01*
X148887500Y-84587500D01*
X148911392Y-84588674D01*
X148911392Y-84588674D01*
G37*
D17*
X148431250Y-85075000D03*
D16*
G36*
X156848892Y-84588674D02*
G01*
X156872553Y-84592184D01*
X156895757Y-84597996D01*
X156918279Y-84606054D01*
X156939903Y-84616282D01*
X156960420Y-84628579D01*
X156979633Y-84642829D01*
X156997357Y-84658893D01*
X157013421Y-84676617D01*
X157027671Y-84695830D01*
X157039968Y-84716347D01*
X157050196Y-84737971D01*
X157058254Y-84760493D01*
X157064066Y-84783697D01*
X157067576Y-84807358D01*
X157068750Y-84831250D01*
X157068750Y-85318750D01*
X157067576Y-85342642D01*
X157064066Y-85366303D01*
X157058254Y-85389507D01*
X157050196Y-85412029D01*
X157039968Y-85433653D01*
X157027671Y-85454170D01*
X157013421Y-85473383D01*
X156997357Y-85491107D01*
X156979633Y-85507171D01*
X156960420Y-85521421D01*
X156939903Y-85533718D01*
X156918279Y-85543946D01*
X156895757Y-85552004D01*
X156872553Y-85557816D01*
X156848892Y-85561326D01*
X156825000Y-85562500D01*
X155912500Y-85562500D01*
X155888608Y-85561326D01*
X155864947Y-85557816D01*
X155841743Y-85552004D01*
X155819221Y-85543946D01*
X155797597Y-85533718D01*
X155777080Y-85521421D01*
X155757867Y-85507171D01*
X155740143Y-85491107D01*
X155724079Y-85473383D01*
X155709829Y-85454170D01*
X155697532Y-85433653D01*
X155687304Y-85412029D01*
X155679246Y-85389507D01*
X155673434Y-85366303D01*
X155669924Y-85342642D01*
X155668750Y-85318750D01*
X155668750Y-84831250D01*
X155669924Y-84807358D01*
X155673434Y-84783697D01*
X155679246Y-84760493D01*
X155687304Y-84737971D01*
X155697532Y-84716347D01*
X155709829Y-84695830D01*
X155724079Y-84676617D01*
X155740143Y-84658893D01*
X155757867Y-84642829D01*
X155777080Y-84628579D01*
X155797597Y-84616282D01*
X155819221Y-84606054D01*
X155841743Y-84597996D01*
X155864947Y-84592184D01*
X155888608Y-84588674D01*
X155912500Y-84587500D01*
X156825000Y-84587500D01*
X156848892Y-84588674D01*
X156848892Y-84588674D01*
G37*
D17*
X156368750Y-85075000D03*
D16*
G36*
X156848892Y-82713674D02*
G01*
X156872553Y-82717184D01*
X156895757Y-82722996D01*
X156918279Y-82731054D01*
X156939903Y-82741282D01*
X156960420Y-82753579D01*
X156979633Y-82767829D01*
X156997357Y-82783893D01*
X157013421Y-82801617D01*
X157027671Y-82820830D01*
X157039968Y-82841347D01*
X157050196Y-82862971D01*
X157058254Y-82885493D01*
X157064066Y-82908697D01*
X157067576Y-82932358D01*
X157068750Y-82956250D01*
X157068750Y-83443750D01*
X157067576Y-83467642D01*
X157064066Y-83491303D01*
X157058254Y-83514507D01*
X157050196Y-83537029D01*
X157039968Y-83558653D01*
X157027671Y-83579170D01*
X157013421Y-83598383D01*
X156997357Y-83616107D01*
X156979633Y-83632171D01*
X156960420Y-83646421D01*
X156939903Y-83658718D01*
X156918279Y-83668946D01*
X156895757Y-83677004D01*
X156872553Y-83682816D01*
X156848892Y-83686326D01*
X156825000Y-83687500D01*
X155912500Y-83687500D01*
X155888608Y-83686326D01*
X155864947Y-83682816D01*
X155841743Y-83677004D01*
X155819221Y-83668946D01*
X155797597Y-83658718D01*
X155777080Y-83646421D01*
X155757867Y-83632171D01*
X155740143Y-83616107D01*
X155724079Y-83598383D01*
X155709829Y-83579170D01*
X155697532Y-83558653D01*
X155687304Y-83537029D01*
X155679246Y-83514507D01*
X155673434Y-83491303D01*
X155669924Y-83467642D01*
X155668750Y-83443750D01*
X155668750Y-82956250D01*
X155669924Y-82932358D01*
X155673434Y-82908697D01*
X155679246Y-82885493D01*
X155687304Y-82862971D01*
X155697532Y-82841347D01*
X155709829Y-82820830D01*
X155724079Y-82801617D01*
X155740143Y-82783893D01*
X155757867Y-82767829D01*
X155777080Y-82753579D01*
X155797597Y-82741282D01*
X155819221Y-82731054D01*
X155841743Y-82722996D01*
X155864947Y-82717184D01*
X155888608Y-82713674D01*
X155912500Y-82712500D01*
X156825000Y-82712500D01*
X156848892Y-82713674D01*
X156848892Y-82713674D01*
G37*
D17*
X156368750Y-83200000D03*
D24*
X160337500Y-107950000D03*
X165100000Y-96043750D03*
X144943750Y-101625000D03*
X141937500Y-88756250D03*
X144943750Y-97698000D03*
X138112500Y-91281250D03*
X138112500Y-106362500D03*
D25*
X153587500Y-85075000D02*
X153500000Y-84987500D01*
X156368750Y-85075000D02*
X153587500Y-85075000D01*
X152400000Y-91721000D02*
X152219010Y-91540010D01*
X152400000Y-92725000D02*
X152400000Y-91721000D01*
X152219010Y-91540010D02*
X152219010Y-88138000D01*
X153500000Y-86857010D02*
X153500000Y-84987500D01*
X152219010Y-88138000D02*
X153500000Y-86857010D01*
D26*
X153587500Y-83200000D02*
X153500000Y-83287500D01*
X156368750Y-83200000D02*
X153587500Y-83200000D01*
X147631250Y-85075000D02*
X147616250Y-85090000D01*
X148431250Y-85075000D02*
X147631250Y-85075000D01*
X147616250Y-85090000D02*
X147193000Y-85090000D01*
X147193000Y-85090000D02*
X146558000Y-84455000D01*
X146558000Y-84455000D02*
X146558000Y-82423000D01*
X146558000Y-82423000D02*
X147320000Y-81661000D01*
X152854500Y-81661000D02*
X147320000Y-81661000D01*
X153500000Y-82306500D02*
X152854500Y-81661000D01*
X153500000Y-83287500D02*
X153500000Y-82306500D01*
X153197098Y-83287500D02*
X153500000Y-83287500D01*
X151497098Y-84987500D02*
X153197098Y-83287500D01*
X151300000Y-84987500D02*
X151497098Y-84987500D01*
X143668750Y-88756250D02*
X144509250Y-88756250D01*
X144509250Y-88756250D02*
X145796000Y-90043000D01*
X150800000Y-91594000D02*
X150800000Y-92725000D01*
X149249000Y-90043000D02*
X150800000Y-91594000D01*
X145796000Y-90043000D02*
X149249000Y-90043000D01*
X148431250Y-85075000D02*
X148431250Y-88360250D01*
X150800000Y-90729000D02*
X150800000Y-91594000D01*
X148431250Y-88360250D02*
X150800000Y-90729000D01*
X162718750Y-103981250D02*
X162718750Y-109061250D01*
X155600000Y-107325000D02*
X155600000Y-104125000D01*
X156225000Y-107950000D02*
X155600000Y-107325000D01*
X141287500Y-104918750D02*
X142225000Y-104918750D01*
X142225000Y-104918750D02*
X143668750Y-106362500D01*
X149200000Y-105256000D02*
X149200000Y-104125000D01*
X148093500Y-106362500D02*
X149200000Y-105256000D01*
X143668750Y-106362500D02*
X148093500Y-106362500D01*
X126468750Y-111387500D02*
X128662500Y-111387500D01*
X125412500Y-110331250D02*
X126468750Y-111387500D01*
X125412500Y-106362500D02*
X125412500Y-110331250D01*
X141287500Y-104918750D02*
X126856250Y-104918750D01*
X126856250Y-104918750D02*
X125412500Y-106362500D01*
X134061000Y-86401000D02*
X135731250Y-88071250D01*
X134061000Y-85526000D02*
X134061000Y-86401000D01*
X145569000Y-99225000D02*
X146700000Y-99225000D01*
X135731250Y-96837500D02*
X138118750Y-99225000D01*
X135731250Y-88071250D02*
X135731250Y-96837500D01*
X138118750Y-99225000D02*
X141293750Y-99225000D01*
X141143750Y-97631250D02*
X141143750Y-98281250D01*
X142075000Y-99212500D02*
X142075000Y-99225000D01*
X141143750Y-98281250D02*
X142075000Y-99212500D01*
X141293750Y-99225000D02*
X142075000Y-99225000D01*
X142075000Y-99225000D02*
X145569000Y-99225000D01*
X155600000Y-102006000D02*
X155600000Y-104125000D01*
X154178000Y-100584000D02*
X155600000Y-102006000D01*
X154178000Y-97216000D02*
X154178000Y-100584000D01*
X158100000Y-94425000D02*
X156969000Y-94425000D01*
X154178000Y-100584000D02*
X152819000Y-99225000D01*
X149200000Y-100431000D02*
X150406000Y-99225000D01*
X149200000Y-104125000D02*
X149200000Y-100431000D01*
X152819000Y-99225000D02*
X150406000Y-99225000D01*
X150406000Y-99225000D02*
X146700000Y-99225000D01*
X156969000Y-94425000D02*
X154178000Y-97216000D01*
X154160000Y-97216000D02*
X154178000Y-97216000D01*
X150800000Y-93856000D02*
X154160000Y-97216000D01*
X150800000Y-92725000D02*
X150800000Y-93856000D01*
X162718750Y-109061250D02*
X162718750Y-109537500D01*
X162718750Y-109537500D02*
X161925000Y-110331250D01*
X161925000Y-110331250D02*
X157162500Y-110331250D01*
X156225000Y-109393750D02*
X157162500Y-110331250D01*
X156225000Y-107950000D02*
X156225000Y-109393750D01*
X161925000Y-92725000D02*
X160924000Y-92725000D01*
X160924000Y-92732000D02*
X160924000Y-92725000D01*
X159231000Y-94425000D02*
X160924000Y-92732000D01*
X158100000Y-94425000D02*
X159231000Y-94425000D01*
D25*
X151212500Y-83200000D02*
X151300000Y-83287500D01*
X148431250Y-83200000D02*
X151212500Y-83200000D01*
X150794500Y-83693000D02*
X151200000Y-83287500D01*
X150241000Y-83693000D02*
X150794500Y-83693000D01*
X151200000Y-83287500D02*
X151300000Y-83287500D01*
X151600000Y-91721000D02*
X151765000Y-91556000D01*
X151600000Y-92725000D02*
X151600000Y-91721000D01*
X151765000Y-91556000D02*
X151765000Y-88138000D01*
X151765000Y-88138000D02*
X149860000Y-86233000D01*
X149860000Y-86233000D02*
X149860000Y-84074000D01*
X149860000Y-84074000D02*
X150241000Y-83693000D01*
X143018750Y-97631250D02*
X143668750Y-97631250D01*
X143668750Y-97631250D02*
X144462500Y-98425000D01*
X144462500Y-98425000D02*
X146700000Y-98425000D01*
D26*
X143668750Y-90631250D02*
X148797250Y-90631250D01*
X150000000Y-91834000D02*
X150000000Y-92725000D01*
X148797250Y-90631250D02*
X150000000Y-91834000D01*
X148400000Y-104125000D02*
X148400000Y-104600000D01*
X156400000Y-106250000D02*
X156400000Y-104125000D01*
X158100000Y-107950000D02*
X156400000Y-106250000D01*
X143668750Y-90631250D02*
X142225000Y-90631250D01*
X142225000Y-90631250D02*
X142081250Y-90487500D01*
X142081250Y-90487500D02*
X142081250Y-90343750D01*
X140493750Y-88756250D02*
X141937500Y-88756250D01*
X141937500Y-88756250D02*
X142081250Y-88900000D01*
X142081250Y-88900000D02*
X142081250Y-90487500D01*
X144943750Y-101625000D02*
X146700000Y-101625000D01*
X143525000Y-103043750D02*
X144943750Y-101625000D01*
X141287500Y-103043750D02*
X143525000Y-103043750D01*
X148400000Y-105234328D02*
X148400000Y-104125000D01*
X148065578Y-105568750D02*
X148400000Y-105234328D01*
X145256250Y-105568750D02*
X148065578Y-105568750D01*
X144943750Y-101625000D02*
X144943750Y-105256250D01*
X144943750Y-105256250D02*
X145256250Y-105568750D01*
X158100000Y-107950000D02*
X160337500Y-107950000D01*
X163656250Y-94600000D02*
X161925000Y-94600000D01*
X165100000Y-96043750D02*
X163656250Y-94600000D01*
X146700000Y-97625000D02*
X145016750Y-97625000D01*
X145016750Y-97625000D02*
X144943750Y-97698000D01*
X134793750Y-103043750D02*
X141287500Y-103043750D01*
X129078750Y-103043750D02*
X134793750Y-103043750D01*
X127000000Y-98237500D02*
X127000000Y-100965000D01*
X127000000Y-100965000D02*
X129078750Y-103043750D01*
X161925000Y-94600000D02*
X160797000Y-94600000D01*
X160172000Y-95225000D02*
X158100000Y-95225000D01*
X160797000Y-94600000D02*
X160172000Y-95225000D01*
D25*
X184150000Y-87250000D02*
X184000000Y-87250000D01*
X180570000Y-83820000D02*
X178752500Y-83820000D01*
X181864000Y-83820000D02*
X180570000Y-83820000D01*
X184150000Y-87250000D02*
X184150000Y-86106000D01*
X184150000Y-86106000D02*
X181864000Y-83820000D01*
X202346000Y-90550000D02*
X201456000Y-91440000D01*
X203200000Y-90550000D02*
X202346000Y-90550000D01*
X201456000Y-91440000D02*
X186182000Y-91440000D01*
X185292000Y-90550000D02*
X184150000Y-90550000D01*
X186182000Y-91440000D02*
X185292000Y-90550000D01*
X160497067Y-97625000D02*
X158100000Y-97625000D01*
X184150000Y-90550000D02*
X184000000Y-90550000D01*
X184150000Y-90550000D02*
X183135000Y-90550000D01*
X183135000Y-90550000D02*
X182245000Y-91440000D01*
X182245000Y-91440000D02*
X171069000Y-91440000D01*
X164884000Y-97625000D02*
X160497067Y-97625000D01*
X171069000Y-91440000D02*
X164884000Y-97625000D01*
X198342500Y-83820000D02*
X197762500Y-84400000D01*
X201168000Y-83820000D02*
X198342500Y-83820000D01*
X203200000Y-87250000D02*
X203200000Y-85852000D01*
X203200000Y-85852000D02*
X201168000Y-83820000D01*
X184150000Y-106300000D02*
X184000000Y-106300000D01*
X180570000Y-102870000D02*
X178752500Y-102870000D01*
X182372000Y-102870000D02*
X180570000Y-102870000D01*
X184150000Y-106300000D02*
X184150000Y-104648000D01*
X184150000Y-104648000D02*
X182372000Y-102870000D01*
X203050000Y-109600000D02*
X202033000Y-110617000D01*
X203200000Y-109600000D02*
X203050000Y-109600000D01*
X202033000Y-110617000D02*
X186309000Y-110617000D01*
X185292000Y-109600000D02*
X184150000Y-109600000D01*
X186309000Y-110617000D02*
X185292000Y-109600000D01*
X183296000Y-109600000D02*
X184150000Y-109600000D01*
X182279000Y-110617000D02*
X183296000Y-109600000D01*
X172020538Y-110617000D02*
X182279000Y-110617000D01*
X158100000Y-100025000D02*
X160970867Y-100025000D01*
X160970867Y-100025000D02*
X161475877Y-100530010D01*
X161475877Y-100530010D02*
X167451944Y-100530010D01*
X167451944Y-100530010D02*
X169418000Y-102496066D01*
X169418000Y-102496066D02*
X169418000Y-108014462D01*
X169418000Y-108014462D02*
X172020538Y-110617000D01*
X198342500Y-102870000D02*
X197762500Y-103450000D01*
X201422000Y-102870000D02*
X198342500Y-102870000D01*
X203200000Y-106300000D02*
X203200000Y-104648000D01*
X203200000Y-104648000D02*
X201422000Y-102870000D01*
X130861000Y-86401000D02*
X130861000Y-85526000D01*
X127000000Y-90262000D02*
X130861000Y-86401000D01*
X127000000Y-95437500D02*
X127000000Y-90262000D01*
X172402500Y-105410000D02*
X172402500Y-104838500D01*
X172402500Y-104838500D02*
X167640000Y-100076000D01*
X167640000Y-100076000D02*
X161663934Y-100076000D01*
X160812934Y-99225000D02*
X158100000Y-99225000D01*
X161663934Y-100076000D02*
X160812934Y-99225000D01*
X160655000Y-98425000D02*
X158100000Y-98425000D01*
X161798000Y-99568000D02*
X160655000Y-98425000D01*
X185801000Y-99568000D02*
X161798000Y-99568000D01*
X191452500Y-105410000D02*
X191452500Y-105219500D01*
X191452500Y-105219500D02*
X185801000Y-99568000D01*
X140493750Y-90631250D02*
X138762500Y-90631250D01*
X138762500Y-90631250D02*
X138112500Y-91281250D01*
X138112500Y-106362500D02*
X138112500Y-107156250D01*
X137581250Y-107687500D02*
X134862500Y-107687500D01*
X138112500Y-107156250D02*
X137581250Y-107687500D01*
X149200000Y-91911398D02*
X149200000Y-92725000D01*
X148936601Y-91647999D02*
X149200000Y-91911398D01*
X141510499Y-91647999D02*
X148936601Y-91647999D01*
X140493750Y-90631250D02*
X141510499Y-91647999D01*
X132461000Y-86905000D02*
X132280010Y-87085990D01*
X132461000Y-85526000D02*
X132461000Y-86905000D01*
X132280010Y-88416510D02*
X132280010Y-87085990D01*
X133731000Y-89867500D02*
X132280010Y-88416510D01*
X132334000Y-93139500D02*
X133731000Y-91742500D01*
X132334000Y-96774000D02*
X132334000Y-93139500D01*
X135763000Y-100203000D02*
X132334000Y-96774000D01*
X145518000Y-100203000D02*
X135763000Y-100203000D01*
X146700000Y-100025000D02*
X145696000Y-100025000D01*
X145696000Y-100025000D02*
X145518000Y-100203000D01*
X131661000Y-86905000D02*
X131826000Y-87070000D01*
X131661000Y-85526000D02*
X131661000Y-86905000D01*
X131826000Y-88438750D02*
X130397250Y-89867500D01*
X131826000Y-87070000D02*
X131826000Y-88438750D01*
X131826000Y-93171250D02*
X130397250Y-91742500D01*
X145696000Y-100825000D02*
X145528010Y-100657010D01*
X146700000Y-100825000D02*
X145696000Y-100825000D01*
X145528010Y-100657010D02*
X135574943Y-100657010D01*
X135574943Y-100657010D02*
X135308990Y-100391056D01*
X135308990Y-100391056D02*
X131826000Y-96908066D01*
X131826000Y-96908066D02*
X131826000Y-93171250D01*
X159104000Y-102425000D02*
X158100000Y-102425000D01*
X161600000Y-102425000D02*
X159104000Y-102425000D01*
X161918750Y-102106250D02*
X161600000Y-102425000D01*
X162718750Y-102106250D02*
X161918750Y-102106250D01*
G36*
X151427000Y-84860500D02*
G01*
X151447000Y-84860500D01*
X151447000Y-85114500D01*
X151427000Y-85114500D01*
X151427000Y-86063750D01*
X151585750Y-86222500D01*
X152000000Y-86225572D01*
X152124482Y-86213312D01*
X152244180Y-86177002D01*
X152354494Y-86118037D01*
X152400000Y-86080691D01*
X152445506Y-86118037D01*
X152555820Y-86177002D01*
X152675518Y-86213312D01*
X152738000Y-86219466D01*
X152738000Y-86391750D01*
X151096381Y-86391750D01*
X150927772Y-86223141D01*
X151014250Y-86222500D01*
X151173000Y-86063750D01*
X151173000Y-85114500D01*
X151153000Y-85114500D01*
X151153000Y-84860500D01*
X151173000Y-84860500D01*
X151173000Y-84840500D01*
X151427000Y-84840500D01*
X151427000Y-84860500D01*
X151427000Y-84860500D01*
G37*
X151427000Y-84860500D02*
X151447000Y-84860500D01*
X151447000Y-85114500D01*
X151427000Y-85114500D01*
X151427000Y-86063750D01*
X151585750Y-86222500D01*
X152000000Y-86225572D01*
X152124482Y-86213312D01*
X152244180Y-86177002D01*
X152354494Y-86118037D01*
X152400000Y-86080691D01*
X152445506Y-86118037D01*
X152555820Y-86177002D01*
X152675518Y-86213312D01*
X152738000Y-86219466D01*
X152738000Y-86391750D01*
X151096381Y-86391750D01*
X150927772Y-86223141D01*
X151014250Y-86222500D01*
X151173000Y-86063750D01*
X151173000Y-85114500D01*
X151153000Y-85114500D01*
X151153000Y-84860500D01*
X151173000Y-84860500D01*
X151173000Y-84840500D01*
X151427000Y-84840500D01*
X151427000Y-84860500D01*
G36*
X158623000Y-86391750D02*
G01*
X154262000Y-86391750D01*
X154262000Y-86219466D01*
X154324482Y-86213312D01*
X154444180Y-86177002D01*
X154554494Y-86118037D01*
X154651185Y-86038685D01*
X154730537Y-85941994D01*
X154786658Y-85837000D01*
X155202547Y-85837000D01*
X155288958Y-85942292D01*
X155422586Y-86051958D01*
X155575041Y-86133447D01*
X155740465Y-86183628D01*
X155912500Y-86200572D01*
X156825000Y-86200572D01*
X156997035Y-86183628D01*
X157162459Y-86133447D01*
X157314914Y-86051958D01*
X157448542Y-85942292D01*
X157558208Y-85808664D01*
X157639697Y-85656209D01*
X157689878Y-85490785D01*
X157706822Y-85318750D01*
X157706822Y-84831250D01*
X157689878Y-84659215D01*
X157639697Y-84493791D01*
X157558208Y-84341336D01*
X157448542Y-84207708D01*
X157442186Y-84202492D01*
X157519935Y-84138685D01*
X157599287Y-84041994D01*
X157658252Y-83931680D01*
X157694562Y-83811982D01*
X157706822Y-83687500D01*
X157703750Y-83485750D01*
X157545000Y-83327000D01*
X156495750Y-83327000D01*
X156495750Y-83347000D01*
X156241750Y-83347000D01*
X156241750Y-83327000D01*
X155192500Y-83327000D01*
X155033750Y-83485750D01*
X155030678Y-83687500D01*
X155042938Y-83811982D01*
X155079248Y-83931680D01*
X155138213Y-84041994D01*
X155217565Y-84138685D01*
X155295314Y-84202492D01*
X155288958Y-84207708D01*
X155202547Y-84313000D01*
X154830735Y-84313000D01*
X154825812Y-84263018D01*
X154789502Y-84143320D01*
X154786391Y-84137500D01*
X154789502Y-84131680D01*
X154825812Y-84011982D01*
X154838072Y-83887500D01*
X154835000Y-83573250D01*
X154676250Y-83414500D01*
X153627000Y-83414500D01*
X153627000Y-83434500D01*
X153373000Y-83434500D01*
X153373000Y-83414500D01*
X153353000Y-83414500D01*
X153353000Y-83160500D01*
X153373000Y-83160500D01*
X153373000Y-82211250D01*
X153627000Y-82211250D01*
X153627000Y-83160500D01*
X154676250Y-83160500D01*
X154835000Y-83001750D01*
X154837827Y-82712500D01*
X155030678Y-82712500D01*
X155033750Y-82914250D01*
X155192500Y-83073000D01*
X156241750Y-83073000D01*
X156241750Y-82236250D01*
X156495750Y-82236250D01*
X156495750Y-83073000D01*
X157545000Y-83073000D01*
X157703750Y-82914250D01*
X157706822Y-82712500D01*
X157694562Y-82588018D01*
X157658252Y-82468320D01*
X157599287Y-82358006D01*
X157519935Y-82261315D01*
X157423244Y-82181963D01*
X157312930Y-82122998D01*
X157193232Y-82086688D01*
X157068750Y-82074428D01*
X156654500Y-82077500D01*
X156495750Y-82236250D01*
X156241750Y-82236250D01*
X156083000Y-82077500D01*
X155668750Y-82074428D01*
X155544268Y-82086688D01*
X155424570Y-82122998D01*
X155314256Y-82181963D01*
X155217565Y-82261315D01*
X155138213Y-82358006D01*
X155079248Y-82468320D01*
X155042938Y-82588018D01*
X155030678Y-82712500D01*
X154837827Y-82712500D01*
X154838072Y-82687500D01*
X154825812Y-82563018D01*
X154789502Y-82443320D01*
X154730537Y-82333006D01*
X154651185Y-82236315D01*
X154554494Y-82156963D01*
X154444180Y-82097998D01*
X154324482Y-82061688D01*
X154200000Y-82049428D01*
X153785750Y-82052500D01*
X153627000Y-82211250D01*
X153373000Y-82211250D01*
X153214250Y-82052500D01*
X152800000Y-82049428D01*
X152675518Y-82061688D01*
X152555820Y-82097998D01*
X152445506Y-82156963D01*
X152400000Y-82194309D01*
X152354494Y-82156963D01*
X152244180Y-82097998D01*
X152124482Y-82061688D01*
X152000000Y-82049428D01*
X150600000Y-82049428D01*
X150475518Y-82061688D01*
X150355820Y-82097998D01*
X150245506Y-82156963D01*
X150148815Y-82236315D01*
X150069463Y-82333006D01*
X150013342Y-82438000D01*
X149597453Y-82438000D01*
X149511042Y-82332708D01*
X149377414Y-82223042D01*
X149224959Y-82141553D01*
X149059535Y-82091372D01*
X148887500Y-82074428D01*
X147975000Y-82074428D01*
X147802965Y-82091372D01*
X147637541Y-82141553D01*
X147485086Y-82223042D01*
X147351458Y-82332708D01*
X147241792Y-82466336D01*
X147160303Y-82618791D01*
X147110122Y-82784215D01*
X147093178Y-82956250D01*
X147093178Y-83443750D01*
X147110122Y-83615785D01*
X147160303Y-83781209D01*
X147241792Y-83933664D01*
X147351458Y-84067292D01*
X147357814Y-84072508D01*
X147280065Y-84136315D01*
X147200713Y-84233006D01*
X147141748Y-84343320D01*
X147105438Y-84463018D01*
X147093178Y-84587500D01*
X147096250Y-84789250D01*
X147255000Y-84948000D01*
X148304250Y-84948000D01*
X148304250Y-84928000D01*
X148558250Y-84928000D01*
X148558250Y-84948000D01*
X148578250Y-84948000D01*
X148578250Y-85202000D01*
X148558250Y-85202000D01*
X148558250Y-86038750D01*
X148717000Y-86197500D01*
X149097533Y-86200322D01*
X149094314Y-86233000D01*
X149098000Y-86270423D01*
X149098000Y-86270425D01*
X149109026Y-86382377D01*
X149111869Y-86391750D01*
X146177000Y-86391750D01*
X146177000Y-85562500D01*
X147093178Y-85562500D01*
X147105438Y-85686982D01*
X147141748Y-85806680D01*
X147200713Y-85916994D01*
X147280065Y-86013685D01*
X147376756Y-86093037D01*
X147487070Y-86152002D01*
X147606768Y-86188312D01*
X147731250Y-86200572D01*
X148145500Y-86197500D01*
X148304250Y-86038750D01*
X148304250Y-85202000D01*
X147255000Y-85202000D01*
X147096250Y-85360750D01*
X147093178Y-85562500D01*
X146177000Y-85562500D01*
X146177000Y-81089500D01*
X158623000Y-81089500D01*
X158623000Y-86391750D01*
X158623000Y-86391750D01*
G37*
X158623000Y-86391750D02*
X154262000Y-86391750D01*
X154262000Y-86219466D01*
X154324482Y-86213312D01*
X154444180Y-86177002D01*
X154554494Y-86118037D01*
X154651185Y-86038685D01*
X154730537Y-85941994D01*
X154786658Y-85837000D01*
X155202547Y-85837000D01*
X155288958Y-85942292D01*
X155422586Y-86051958D01*
X155575041Y-86133447D01*
X155740465Y-86183628D01*
X155912500Y-86200572D01*
X156825000Y-86200572D01*
X156997035Y-86183628D01*
X157162459Y-86133447D01*
X157314914Y-86051958D01*
X157448542Y-85942292D01*
X157558208Y-85808664D01*
X157639697Y-85656209D01*
X157689878Y-85490785D01*
X157706822Y-85318750D01*
X157706822Y-84831250D01*
X157689878Y-84659215D01*
X157639697Y-84493791D01*
X157558208Y-84341336D01*
X157448542Y-84207708D01*
X157442186Y-84202492D01*
X157519935Y-84138685D01*
X157599287Y-84041994D01*
X157658252Y-83931680D01*
X157694562Y-83811982D01*
X157706822Y-83687500D01*
X157703750Y-83485750D01*
X157545000Y-83327000D01*
X156495750Y-83327000D01*
X156495750Y-83347000D01*
X156241750Y-83347000D01*
X156241750Y-83327000D01*
X155192500Y-83327000D01*
X155033750Y-83485750D01*
X155030678Y-83687500D01*
X155042938Y-83811982D01*
X155079248Y-83931680D01*
X155138213Y-84041994D01*
X155217565Y-84138685D01*
X155295314Y-84202492D01*
X155288958Y-84207708D01*
X155202547Y-84313000D01*
X154830735Y-84313000D01*
X154825812Y-84263018D01*
X154789502Y-84143320D01*
X154786391Y-84137500D01*
X154789502Y-84131680D01*
X154825812Y-84011982D01*
X154838072Y-83887500D01*
X154835000Y-83573250D01*
X154676250Y-83414500D01*
X153627000Y-83414500D01*
X153627000Y-83434500D01*
X153373000Y-83434500D01*
X153373000Y-83414500D01*
X153353000Y-83414500D01*
X153353000Y-83160500D01*
X153373000Y-83160500D01*
X153373000Y-82211250D01*
X153627000Y-82211250D01*
X153627000Y-83160500D01*
X154676250Y-83160500D01*
X154835000Y-83001750D01*
X154837827Y-82712500D01*
X155030678Y-82712500D01*
X155033750Y-82914250D01*
X155192500Y-83073000D01*
X156241750Y-83073000D01*
X156241750Y-82236250D01*
X156495750Y-82236250D01*
X156495750Y-83073000D01*
X157545000Y-83073000D01*
X157703750Y-82914250D01*
X157706822Y-82712500D01*
X157694562Y-82588018D01*
X157658252Y-82468320D01*
X157599287Y-82358006D01*
X157519935Y-82261315D01*
X157423244Y-82181963D01*
X157312930Y-82122998D01*
X157193232Y-82086688D01*
X157068750Y-82074428D01*
X156654500Y-82077500D01*
X156495750Y-82236250D01*
X156241750Y-82236250D01*
X156083000Y-82077500D01*
X155668750Y-82074428D01*
X155544268Y-82086688D01*
X155424570Y-82122998D01*
X155314256Y-82181963D01*
X155217565Y-82261315D01*
X155138213Y-82358006D01*
X155079248Y-82468320D01*
X155042938Y-82588018D01*
X155030678Y-82712500D01*
X154837827Y-82712500D01*
X154838072Y-82687500D01*
X154825812Y-82563018D01*
X154789502Y-82443320D01*
X154730537Y-82333006D01*
X154651185Y-82236315D01*
X154554494Y-82156963D01*
X154444180Y-82097998D01*
X154324482Y-82061688D01*
X154200000Y-82049428D01*
X153785750Y-82052500D01*
X153627000Y-82211250D01*
X153373000Y-82211250D01*
X153214250Y-82052500D01*
X152800000Y-82049428D01*
X152675518Y-82061688D01*
X152555820Y-82097998D01*
X152445506Y-82156963D01*
X152400000Y-82194309D01*
X152354494Y-82156963D01*
X152244180Y-82097998D01*
X152124482Y-82061688D01*
X152000000Y-82049428D01*
X150600000Y-82049428D01*
X150475518Y-82061688D01*
X150355820Y-82097998D01*
X150245506Y-82156963D01*
X150148815Y-82236315D01*
X150069463Y-82333006D01*
X150013342Y-82438000D01*
X149597453Y-82438000D01*
X149511042Y-82332708D01*
X149377414Y-82223042D01*
X149224959Y-82141553D01*
X149059535Y-82091372D01*
X148887500Y-82074428D01*
X147975000Y-82074428D01*
X147802965Y-82091372D01*
X147637541Y-82141553D01*
X147485086Y-82223042D01*
X147351458Y-82332708D01*
X147241792Y-82466336D01*
X147160303Y-82618791D01*
X147110122Y-82784215D01*
X147093178Y-82956250D01*
X147093178Y-83443750D01*
X147110122Y-83615785D01*
X147160303Y-83781209D01*
X147241792Y-83933664D01*
X147351458Y-84067292D01*
X147357814Y-84072508D01*
X147280065Y-84136315D01*
X147200713Y-84233006D01*
X147141748Y-84343320D01*
X147105438Y-84463018D01*
X147093178Y-84587500D01*
X147096250Y-84789250D01*
X147255000Y-84948000D01*
X148304250Y-84948000D01*
X148304250Y-84928000D01*
X148558250Y-84928000D01*
X148558250Y-84948000D01*
X148578250Y-84948000D01*
X148578250Y-85202000D01*
X148558250Y-85202000D01*
X148558250Y-86038750D01*
X148717000Y-86197500D01*
X149097533Y-86200322D01*
X149094314Y-86233000D01*
X149098000Y-86270423D01*
X149098000Y-86270425D01*
X149109026Y-86382377D01*
X149111869Y-86391750D01*
X146177000Y-86391750D01*
X146177000Y-85562500D01*
X147093178Y-85562500D01*
X147105438Y-85686982D01*
X147141748Y-85806680D01*
X147200713Y-85916994D01*
X147280065Y-86013685D01*
X147376756Y-86093037D01*
X147487070Y-86152002D01*
X147606768Y-86188312D01*
X147731250Y-86200572D01*
X148145500Y-86197500D01*
X148304250Y-86038750D01*
X148304250Y-85202000D01*
X147255000Y-85202000D01*
X147096250Y-85360750D01*
X147093178Y-85562500D01*
X146177000Y-85562500D01*
X146177000Y-81089500D01*
X158623000Y-81089500D01*
X158623000Y-86391750D01*
G36*
X150873815Y-93926185D02*
G01*
X150970506Y-94005537D01*
X150993667Y-94017917D01*
X151085750Y-94110000D01*
X151199337Y-94100454D01*
X151200518Y-94100812D01*
X151325000Y-94113072D01*
X151875000Y-94113072D01*
X151999482Y-94100812D01*
X152000000Y-94100655D01*
X152000518Y-94100812D01*
X152125000Y-94113072D01*
X152675000Y-94113072D01*
X152799482Y-94100812D01*
X152800000Y-94100655D01*
X152800518Y-94100812D01*
X152925000Y-94113072D01*
X153475000Y-94113072D01*
X153599482Y-94100812D01*
X153600000Y-94100655D01*
X153600518Y-94100812D01*
X153725000Y-94113072D01*
X154275000Y-94113072D01*
X154399482Y-94100812D01*
X154400000Y-94100655D01*
X154400518Y-94100812D01*
X154525000Y-94113072D01*
X155075000Y-94113072D01*
X155199482Y-94100812D01*
X155200000Y-94100655D01*
X155200518Y-94100812D01*
X155325000Y-94113072D01*
X155875000Y-94113072D01*
X155999482Y-94100812D01*
X156000000Y-94100655D01*
X156000518Y-94100812D01*
X156125000Y-94113072D01*
X156675000Y-94113072D01*
X156717552Y-94108881D01*
X156715000Y-94139250D01*
X156873750Y-94298000D01*
X157829250Y-94298000D01*
X157829250Y-94311928D01*
X157350000Y-94311928D01*
X157225518Y-94324188D01*
X157105820Y-94360498D01*
X156995506Y-94419463D01*
X156898815Y-94498815D01*
X156819463Y-94595506D01*
X156807083Y-94618667D01*
X156715000Y-94710750D01*
X156724546Y-94824337D01*
X156724188Y-94825518D01*
X156711928Y-94950000D01*
X156711928Y-95500000D01*
X156724188Y-95624482D01*
X156724345Y-95625000D01*
X156724188Y-95625518D01*
X156711928Y-95750000D01*
X156711928Y-96300000D01*
X156724188Y-96424482D01*
X156724345Y-96425000D01*
X156724188Y-96425518D01*
X156711928Y-96550000D01*
X156711928Y-97100000D01*
X156724188Y-97224482D01*
X156724345Y-97225000D01*
X156724188Y-97225518D01*
X156711928Y-97350000D01*
X156711928Y-97900000D01*
X156724188Y-98024482D01*
X156724345Y-98025000D01*
X156724188Y-98025518D01*
X156711928Y-98150000D01*
X156711928Y-98700000D01*
X156724188Y-98824482D01*
X156724345Y-98825000D01*
X156724188Y-98825518D01*
X156711928Y-98950000D01*
X156711928Y-99500000D01*
X156724188Y-99624482D01*
X156724345Y-99625000D01*
X156724188Y-99625518D01*
X156711928Y-99750000D01*
X156711928Y-100300000D01*
X156724188Y-100424482D01*
X156724345Y-100425000D01*
X156724188Y-100425518D01*
X156711928Y-100550000D01*
X156711928Y-101100000D01*
X156724188Y-101224482D01*
X156724345Y-101225000D01*
X156724188Y-101225518D01*
X156711928Y-101350000D01*
X156711928Y-101900000D01*
X156724188Y-102024482D01*
X156724345Y-102025000D01*
X156724188Y-102025518D01*
X156711928Y-102150000D01*
X156711928Y-102700000D01*
X156715962Y-102740962D01*
X156675000Y-102736928D01*
X156125000Y-102736928D01*
X156000518Y-102749188D01*
X155999337Y-102749546D01*
X155885750Y-102740000D01*
X155793667Y-102832083D01*
X155770506Y-102844463D01*
X155673815Y-102923815D01*
X155600000Y-103013759D01*
X155526185Y-102923815D01*
X155429494Y-102844463D01*
X155406333Y-102832083D01*
X155314250Y-102740000D01*
X155200663Y-102749546D01*
X155199482Y-102749188D01*
X155075000Y-102736928D01*
X154525000Y-102736928D01*
X154400518Y-102749188D01*
X154400000Y-102749345D01*
X154399482Y-102749188D01*
X154275000Y-102736928D01*
X153725000Y-102736928D01*
X153600518Y-102749188D01*
X153600000Y-102749345D01*
X153599482Y-102749188D01*
X153475000Y-102736928D01*
X152925000Y-102736928D01*
X152800518Y-102749188D01*
X152800000Y-102749345D01*
X152799482Y-102749188D01*
X152675000Y-102736928D01*
X152125000Y-102736928D01*
X152000518Y-102749188D01*
X152000000Y-102749345D01*
X151999482Y-102749188D01*
X151875000Y-102736928D01*
X151325000Y-102736928D01*
X151200518Y-102749188D01*
X151200000Y-102749345D01*
X151199482Y-102749188D01*
X151075000Y-102736928D01*
X150525000Y-102736928D01*
X150400518Y-102749188D01*
X150400000Y-102749345D01*
X150399482Y-102749188D01*
X150275000Y-102736928D01*
X149725000Y-102736928D01*
X149600518Y-102749188D01*
X149599337Y-102749546D01*
X149485750Y-102740000D01*
X149393667Y-102832083D01*
X149370506Y-102844463D01*
X149273815Y-102923815D01*
X149200000Y-103013759D01*
X149126185Y-102923815D01*
X149029494Y-102844463D01*
X149006333Y-102832083D01*
X148914250Y-102740000D01*
X148800663Y-102749546D01*
X148799482Y-102749188D01*
X148675000Y-102736928D01*
X148125000Y-102736928D01*
X148084038Y-102740962D01*
X148088072Y-102700000D01*
X148088072Y-102150000D01*
X148075812Y-102025518D01*
X148075655Y-102025000D01*
X148075812Y-102024482D01*
X148088072Y-101900000D01*
X148088072Y-101350000D01*
X148075812Y-101225518D01*
X148075655Y-101225000D01*
X148075812Y-101224482D01*
X148088072Y-101100000D01*
X148088072Y-100550000D01*
X148075812Y-100425518D01*
X148075655Y-100425000D01*
X148075812Y-100424482D01*
X148088072Y-100300000D01*
X148088072Y-99750000D01*
X148075812Y-99625518D01*
X148075454Y-99624337D01*
X148085000Y-99510750D01*
X147992917Y-99418667D01*
X147980537Y-99395506D01*
X147901185Y-99298815D01*
X147811241Y-99225000D01*
X147901185Y-99151185D01*
X147980537Y-99054494D01*
X147992917Y-99031333D01*
X148085000Y-98939250D01*
X148075454Y-98825663D01*
X148075812Y-98824482D01*
X148088072Y-98700000D01*
X148088072Y-98150000D01*
X148075812Y-98025518D01*
X148075655Y-98025000D01*
X148075812Y-98024482D01*
X148088072Y-97900000D01*
X148088072Y-97350000D01*
X148075812Y-97225518D01*
X148075655Y-97225000D01*
X148075812Y-97224482D01*
X148088072Y-97100000D01*
X148088072Y-96550000D01*
X148075812Y-96425518D01*
X148075655Y-96425000D01*
X148075812Y-96424482D01*
X148088072Y-96300000D01*
X148088072Y-95750000D01*
X148075812Y-95625518D01*
X148075655Y-95625000D01*
X148075812Y-95624482D01*
X148088072Y-95500000D01*
X148088072Y-94950000D01*
X148075812Y-94825518D01*
X148075655Y-94825000D01*
X148075812Y-94824482D01*
X148088072Y-94700000D01*
X148088072Y-94150000D01*
X148084038Y-94109038D01*
X148125000Y-94113072D01*
X148675000Y-94113072D01*
X148799482Y-94100812D01*
X148800000Y-94100655D01*
X148800518Y-94100812D01*
X148925000Y-94113072D01*
X149475000Y-94113072D01*
X149599482Y-94100812D01*
X149600000Y-94100655D01*
X149600518Y-94100812D01*
X149725000Y-94113072D01*
X150275000Y-94113072D01*
X150399482Y-94100812D01*
X150400663Y-94100454D01*
X150514250Y-94110000D01*
X150606333Y-94017917D01*
X150629494Y-94005537D01*
X150726185Y-93926185D01*
X150800000Y-93836241D01*
X150873815Y-93926185D01*
X150873815Y-93926185D01*
G37*
X150873815Y-93926185D02*
X150970506Y-94005537D01*
X150993667Y-94017917D01*
X151085750Y-94110000D01*
X151199337Y-94100454D01*
X151200518Y-94100812D01*
X151325000Y-94113072D01*
X151875000Y-94113072D01*
X151999482Y-94100812D01*
X152000000Y-94100655D01*
X152000518Y-94100812D01*
X152125000Y-94113072D01*
X152675000Y-94113072D01*
X152799482Y-94100812D01*
X152800000Y-94100655D01*
X152800518Y-94100812D01*
X152925000Y-94113072D01*
X153475000Y-94113072D01*
X153599482Y-94100812D01*
X153600000Y-94100655D01*
X153600518Y-94100812D01*
X153725000Y-94113072D01*
X154275000Y-94113072D01*
X154399482Y-94100812D01*
X154400000Y-94100655D01*
X154400518Y-94100812D01*
X154525000Y-94113072D01*
X155075000Y-94113072D01*
X155199482Y-94100812D01*
X155200000Y-94100655D01*
X155200518Y-94100812D01*
X155325000Y-94113072D01*
X155875000Y-94113072D01*
X155999482Y-94100812D01*
X156000000Y-94100655D01*
X156000518Y-94100812D01*
X156125000Y-94113072D01*
X156675000Y-94113072D01*
X156717552Y-94108881D01*
X156715000Y-94139250D01*
X156873750Y-94298000D01*
X157829250Y-94298000D01*
X157829250Y-94311928D01*
X157350000Y-94311928D01*
X157225518Y-94324188D01*
X157105820Y-94360498D01*
X156995506Y-94419463D01*
X156898815Y-94498815D01*
X156819463Y-94595506D01*
X156807083Y-94618667D01*
X156715000Y-94710750D01*
X156724546Y-94824337D01*
X156724188Y-94825518D01*
X156711928Y-94950000D01*
X156711928Y-95500000D01*
X156724188Y-95624482D01*
X156724345Y-95625000D01*
X156724188Y-95625518D01*
X156711928Y-95750000D01*
X156711928Y-96300000D01*
X156724188Y-96424482D01*
X156724345Y-96425000D01*
X156724188Y-96425518D01*
X156711928Y-96550000D01*
X156711928Y-97100000D01*
X156724188Y-97224482D01*
X156724345Y-97225000D01*
X156724188Y-97225518D01*
X156711928Y-97350000D01*
X156711928Y-97900000D01*
X156724188Y-98024482D01*
X156724345Y-98025000D01*
X156724188Y-98025518D01*
X156711928Y-98150000D01*
X156711928Y-98700000D01*
X156724188Y-98824482D01*
X156724345Y-98825000D01*
X156724188Y-98825518D01*
X156711928Y-98950000D01*
X156711928Y-99500000D01*
X156724188Y-99624482D01*
X156724345Y-99625000D01*
X156724188Y-99625518D01*
X156711928Y-99750000D01*
X156711928Y-100300000D01*
X156724188Y-100424482D01*
X156724345Y-100425000D01*
X156724188Y-100425518D01*
X156711928Y-100550000D01*
X156711928Y-101100000D01*
X156724188Y-101224482D01*
X156724345Y-101225000D01*
X156724188Y-101225518D01*
X156711928Y-101350000D01*
X156711928Y-101900000D01*
X156724188Y-102024482D01*
X156724345Y-102025000D01*
X156724188Y-102025518D01*
X156711928Y-102150000D01*
X156711928Y-102700000D01*
X156715962Y-102740962D01*
X156675000Y-102736928D01*
X156125000Y-102736928D01*
X156000518Y-102749188D01*
X155999337Y-102749546D01*
X155885750Y-102740000D01*
X155793667Y-102832083D01*
X155770506Y-102844463D01*
X155673815Y-102923815D01*
X155600000Y-103013759D01*
X155526185Y-102923815D01*
X155429494Y-102844463D01*
X155406333Y-102832083D01*
X155314250Y-102740000D01*
X155200663Y-102749546D01*
X155199482Y-102749188D01*
X155075000Y-102736928D01*
X154525000Y-102736928D01*
X154400518Y-102749188D01*
X154400000Y-102749345D01*
X154399482Y-102749188D01*
X154275000Y-102736928D01*
X153725000Y-102736928D01*
X153600518Y-102749188D01*
X153600000Y-102749345D01*
X153599482Y-102749188D01*
X153475000Y-102736928D01*
X152925000Y-102736928D01*
X152800518Y-102749188D01*
X152800000Y-102749345D01*
X152799482Y-102749188D01*
X152675000Y-102736928D01*
X152125000Y-102736928D01*
X152000518Y-102749188D01*
X152000000Y-102749345D01*
X151999482Y-102749188D01*
X151875000Y-102736928D01*
X151325000Y-102736928D01*
X151200518Y-102749188D01*
X151200000Y-102749345D01*
X151199482Y-102749188D01*
X151075000Y-102736928D01*
X150525000Y-102736928D01*
X150400518Y-102749188D01*
X150400000Y-102749345D01*
X150399482Y-102749188D01*
X150275000Y-102736928D01*
X149725000Y-102736928D01*
X149600518Y-102749188D01*
X149599337Y-102749546D01*
X149485750Y-102740000D01*
X149393667Y-102832083D01*
X149370506Y-102844463D01*
X149273815Y-102923815D01*
X149200000Y-103013759D01*
X149126185Y-102923815D01*
X149029494Y-102844463D01*
X149006333Y-102832083D01*
X148914250Y-102740000D01*
X148800663Y-102749546D01*
X148799482Y-102749188D01*
X148675000Y-102736928D01*
X148125000Y-102736928D01*
X148084038Y-102740962D01*
X148088072Y-102700000D01*
X148088072Y-102150000D01*
X148075812Y-102025518D01*
X148075655Y-102025000D01*
X148075812Y-102024482D01*
X148088072Y-101900000D01*
X148088072Y-101350000D01*
X148075812Y-101225518D01*
X148075655Y-101225000D01*
X148075812Y-101224482D01*
X148088072Y-101100000D01*
X148088072Y-100550000D01*
X148075812Y-100425518D01*
X148075655Y-100425000D01*
X148075812Y-100424482D01*
X148088072Y-100300000D01*
X148088072Y-99750000D01*
X148075812Y-99625518D01*
X148075454Y-99624337D01*
X148085000Y-99510750D01*
X147992917Y-99418667D01*
X147980537Y-99395506D01*
X147901185Y-99298815D01*
X147811241Y-99225000D01*
X147901185Y-99151185D01*
X147980537Y-99054494D01*
X147992917Y-99031333D01*
X148085000Y-98939250D01*
X148075454Y-98825663D01*
X148075812Y-98824482D01*
X148088072Y-98700000D01*
X148088072Y-98150000D01*
X148075812Y-98025518D01*
X148075655Y-98025000D01*
X148075812Y-98024482D01*
X148088072Y-97900000D01*
X148088072Y-97350000D01*
X148075812Y-97225518D01*
X148075655Y-97225000D01*
X148075812Y-97224482D01*
X148088072Y-97100000D01*
X148088072Y-96550000D01*
X148075812Y-96425518D01*
X148075655Y-96425000D01*
X148075812Y-96424482D01*
X148088072Y-96300000D01*
X148088072Y-95750000D01*
X148075812Y-95625518D01*
X148075655Y-95625000D01*
X148075812Y-95624482D01*
X148088072Y-95500000D01*
X148088072Y-94950000D01*
X148075812Y-94825518D01*
X148075655Y-94825000D01*
X148075812Y-94824482D01*
X148088072Y-94700000D01*
X148088072Y-94150000D01*
X148084038Y-94109038D01*
X148125000Y-94113072D01*
X148675000Y-94113072D01*
X148799482Y-94100812D01*
X148800000Y-94100655D01*
X148800518Y-94100812D01*
X148925000Y-94113072D01*
X149475000Y-94113072D01*
X149599482Y-94100812D01*
X149600000Y-94100655D01*
X149600518Y-94100812D01*
X149725000Y-94113072D01*
X150275000Y-94113072D01*
X150399482Y-94100812D01*
X150400663Y-94100454D01*
X150514250Y-94110000D01*
X150606333Y-94017917D01*
X150629494Y-94005537D01*
X150726185Y-93926185D01*
X150800000Y-93836241D01*
X150873815Y-93926185D01*
G36*
X127347487Y-80234889D02*
G01*
X127326000Y-80453050D01*
X127326000Y-81598949D01*
X127347487Y-81817110D01*
X127432401Y-82097033D01*
X127570294Y-82355013D01*
X127755866Y-82581134D01*
X127981986Y-82766706D01*
X128239966Y-82904599D01*
X128519889Y-82989513D01*
X128811000Y-83018185D01*
X129102110Y-82989513D01*
X129382033Y-82904599D01*
X129640013Y-82766706D01*
X129866134Y-82581134D01*
X130051706Y-82355014D01*
X130189599Y-82097034D01*
X130274513Y-81817111D01*
X130296000Y-81598950D01*
X130296000Y-80453050D01*
X130274513Y-80234889D01*
X130213877Y-80035000D01*
X134708123Y-80035000D01*
X134647487Y-80234889D01*
X134626000Y-80453050D01*
X134626000Y-81598949D01*
X134647487Y-81817110D01*
X134732401Y-82097033D01*
X134870294Y-82355013D01*
X135055866Y-82581134D01*
X135281986Y-82766706D01*
X135539966Y-82904599D01*
X135819889Y-82989513D01*
X136111000Y-83018185D01*
X136402110Y-82989513D01*
X136682033Y-82904599D01*
X136940013Y-82766706D01*
X137166134Y-82581134D01*
X137351706Y-82355014D01*
X137489599Y-82097034D01*
X137574513Y-81817111D01*
X137596000Y-81598950D01*
X137596000Y-80453050D01*
X137574513Y-80234889D01*
X137513877Y-80035000D01*
X137795000Y-80035000D01*
X137795000Y-86741000D01*
X137412648Y-86741000D01*
X137489599Y-86597034D01*
X137574513Y-86317111D01*
X137596000Y-86098950D01*
X137596000Y-84953050D01*
X137574513Y-84734889D01*
X137489599Y-84454966D01*
X137351706Y-84196986D01*
X137166134Y-83970866D01*
X136940014Y-83785294D01*
X136682034Y-83647401D01*
X136402111Y-83562487D01*
X136111000Y-83533815D01*
X135819890Y-83562487D01*
X135539967Y-83647401D01*
X135281987Y-83785294D01*
X135055867Y-83970866D01*
X134901123Y-84159421D01*
X134845406Y-84052366D01*
X134767123Y-83954807D01*
X134671311Y-83874396D01*
X134561652Y-83814221D01*
X134442361Y-83776596D01*
X134342750Y-83766000D01*
X134184000Y-83924750D01*
X134184000Y-85399000D01*
X134208000Y-85399000D01*
X134208000Y-85653000D01*
X134184000Y-85653000D01*
X134184000Y-85673000D01*
X134149072Y-85673000D01*
X134149072Y-84401000D01*
X134136812Y-84276518D01*
X134100502Y-84156820D01*
X134041537Y-84046506D01*
X133962185Y-83949815D01*
X133938000Y-83929967D01*
X133938000Y-83924750D01*
X133779250Y-83766000D01*
X133679639Y-83776596D01*
X133660266Y-83782706D01*
X133635482Y-83775188D01*
X133511000Y-83762928D01*
X133011000Y-83762928D01*
X132886518Y-83775188D01*
X132861000Y-83782929D01*
X132835482Y-83775188D01*
X132711000Y-83762928D01*
X132211000Y-83762928D01*
X132086518Y-83775188D01*
X132061000Y-83782929D01*
X132035482Y-83775188D01*
X131911000Y-83762928D01*
X131411000Y-83762928D01*
X131286518Y-83775188D01*
X131261000Y-83782929D01*
X131235482Y-83775188D01*
X131111000Y-83762928D01*
X130611000Y-83762928D01*
X130486518Y-83775188D01*
X130366820Y-83811498D01*
X130256506Y-83870463D01*
X130159815Y-83949815D01*
X130080463Y-84046506D01*
X130021498Y-84156820D01*
X130020754Y-84159271D01*
X129866134Y-83970866D01*
X129640014Y-83785294D01*
X129382034Y-83647401D01*
X129102111Y-83562487D01*
X128811000Y-83533815D01*
X128519890Y-83562487D01*
X128239967Y-83647401D01*
X127981987Y-83785294D01*
X127755867Y-83970866D01*
X127570294Y-84196986D01*
X127432401Y-84454966D01*
X127347487Y-84734889D01*
X127326000Y-84953050D01*
X127326000Y-86098949D01*
X127347487Y-86317110D01*
X127432401Y-86597033D01*
X127509353Y-86741000D01*
X127127000Y-86741000D01*
X127127000Y-80035000D01*
X127408123Y-80035000D01*
X127347487Y-80234889D01*
X127347487Y-80234889D01*
G37*
X127347487Y-80234889D02*
X127326000Y-80453050D01*
X127326000Y-81598949D01*
X127347487Y-81817110D01*
X127432401Y-82097033D01*
X127570294Y-82355013D01*
X127755866Y-82581134D01*
X127981986Y-82766706D01*
X128239966Y-82904599D01*
X128519889Y-82989513D01*
X128811000Y-83018185D01*
X129102110Y-82989513D01*
X129382033Y-82904599D01*
X129640013Y-82766706D01*
X129866134Y-82581134D01*
X130051706Y-82355014D01*
X130189599Y-82097034D01*
X130274513Y-81817111D01*
X130296000Y-81598950D01*
X130296000Y-80453050D01*
X130274513Y-80234889D01*
X130213877Y-80035000D01*
X134708123Y-80035000D01*
X134647487Y-80234889D01*
X134626000Y-80453050D01*
X134626000Y-81598949D01*
X134647487Y-81817110D01*
X134732401Y-82097033D01*
X134870294Y-82355013D01*
X135055866Y-82581134D01*
X135281986Y-82766706D01*
X135539966Y-82904599D01*
X135819889Y-82989513D01*
X136111000Y-83018185D01*
X136402110Y-82989513D01*
X136682033Y-82904599D01*
X136940013Y-82766706D01*
X137166134Y-82581134D01*
X137351706Y-82355014D01*
X137489599Y-82097034D01*
X137574513Y-81817111D01*
X137596000Y-81598950D01*
X137596000Y-80453050D01*
X137574513Y-80234889D01*
X137513877Y-80035000D01*
X137795000Y-80035000D01*
X137795000Y-86741000D01*
X137412648Y-86741000D01*
X137489599Y-86597034D01*
X137574513Y-86317111D01*
X137596000Y-86098950D01*
X137596000Y-84953050D01*
X137574513Y-84734889D01*
X137489599Y-84454966D01*
X137351706Y-84196986D01*
X137166134Y-83970866D01*
X136940014Y-83785294D01*
X136682034Y-83647401D01*
X136402111Y-83562487D01*
X136111000Y-83533815D01*
X135819890Y-83562487D01*
X135539967Y-83647401D01*
X135281987Y-83785294D01*
X135055867Y-83970866D01*
X134901123Y-84159421D01*
X134845406Y-84052366D01*
X134767123Y-83954807D01*
X134671311Y-83874396D01*
X134561652Y-83814221D01*
X134442361Y-83776596D01*
X134342750Y-83766000D01*
X134184000Y-83924750D01*
X134184000Y-85399000D01*
X134208000Y-85399000D01*
X134208000Y-85653000D01*
X134184000Y-85653000D01*
X134184000Y-85673000D01*
X134149072Y-85673000D01*
X134149072Y-84401000D01*
X134136812Y-84276518D01*
X134100502Y-84156820D01*
X134041537Y-84046506D01*
X133962185Y-83949815D01*
X133938000Y-83929967D01*
X133938000Y-83924750D01*
X133779250Y-83766000D01*
X133679639Y-83776596D01*
X133660266Y-83782706D01*
X133635482Y-83775188D01*
X133511000Y-83762928D01*
X133011000Y-83762928D01*
X132886518Y-83775188D01*
X132861000Y-83782929D01*
X132835482Y-83775188D01*
X132711000Y-83762928D01*
X132211000Y-83762928D01*
X132086518Y-83775188D01*
X132061000Y-83782929D01*
X132035482Y-83775188D01*
X131911000Y-83762928D01*
X131411000Y-83762928D01*
X131286518Y-83775188D01*
X131261000Y-83782929D01*
X131235482Y-83775188D01*
X131111000Y-83762928D01*
X130611000Y-83762928D01*
X130486518Y-83775188D01*
X130366820Y-83811498D01*
X130256506Y-83870463D01*
X130159815Y-83949815D01*
X130080463Y-84046506D01*
X130021498Y-84156820D01*
X130020754Y-84159271D01*
X129866134Y-83970866D01*
X129640014Y-83785294D01*
X129382034Y-83647401D01*
X129102111Y-83562487D01*
X128811000Y-83533815D01*
X128519890Y-83562487D01*
X128239967Y-83647401D01*
X127981987Y-83785294D01*
X127755867Y-83970866D01*
X127570294Y-84196986D01*
X127432401Y-84454966D01*
X127347487Y-84734889D01*
X127326000Y-84953050D01*
X127326000Y-86098949D01*
X127347487Y-86317110D01*
X127432401Y-86597033D01*
X127509353Y-86741000D01*
X127127000Y-86741000D01*
X127127000Y-80035000D01*
X127408123Y-80035000D01*
X127347487Y-80234889D01*
M02*
