G04 #@! TF.GenerationSoftware,KiCad,Pcbnew,(5.1.4)-1*
G04 #@! TF.CreationDate,2020-07-29T14:25:06+02:00*
G04 #@! TF.ProjectId,ai03-pcb-2x2-macroboard,61693033-2d70-4636-922d-3278322d6d61,rev?*
G04 #@! TF.SameCoordinates,Original*
G04 #@! TF.FileFunction,Soldermask,Bot*
G04 #@! TF.FilePolarity,Negative*
%FSLAX46Y46*%
G04 Gerber Fmt 4.6, Leading zero omitted, Abs format (unit mm)*
G04 Created by KiCad (PCBNEW (5.1.4)-1) date 2020-07-29 14:25:06*
%MOMM*%
%LPD*%
G04 APERTURE LIST*
%ADD10C,0.100000*%
G04 APERTURE END LIST*
D10*
G36*
X178486000Y-114033500D02*
G01*
X176479000Y-114033500D01*
X176479000Y-112026500D01*
X178486000Y-112026500D01*
X178486000Y-114033500D01*
X178486000Y-114033500D01*
G37*
G36*
X194118925Y-112031988D02*
G01*
X194285210Y-112065063D01*
X194467836Y-112140709D01*
X194632194Y-112250530D01*
X194771970Y-112390306D01*
X194881791Y-112554664D01*
X194957437Y-112737290D01*
X194996000Y-112931164D01*
X194996000Y-113128836D01*
X194957437Y-113322710D01*
X194881791Y-113505336D01*
X194771970Y-113669694D01*
X194632194Y-113809470D01*
X194467836Y-113919291D01*
X194285210Y-113994937D01*
X194118925Y-114028012D01*
X194091337Y-114033500D01*
X193893663Y-114033500D01*
X193866075Y-114028012D01*
X193699790Y-113994937D01*
X193517164Y-113919291D01*
X193352806Y-113809470D01*
X193213030Y-113669694D01*
X193103209Y-113505336D01*
X193027563Y-113322710D01*
X192989000Y-113128836D01*
X192989000Y-112931164D01*
X193027563Y-112737290D01*
X193103209Y-112554664D01*
X193213030Y-112390306D01*
X193352806Y-112250530D01*
X193517164Y-112140709D01*
X193699790Y-112065063D01*
X193866075Y-112031988D01*
X193893663Y-112026500D01*
X194091337Y-112026500D01*
X194118925Y-112031988D01*
X194118925Y-112031988D01*
G37*
G36*
X197536000Y-114033500D02*
G01*
X195529000Y-114033500D01*
X195529000Y-112026500D01*
X197536000Y-112026500D01*
X197536000Y-114033500D01*
X197536000Y-114033500D01*
G37*
G36*
X175068925Y-112031988D02*
G01*
X175235210Y-112065063D01*
X175417836Y-112140709D01*
X175582194Y-112250530D01*
X175721970Y-112390306D01*
X175831791Y-112554664D01*
X175907437Y-112737290D01*
X175946000Y-112931164D01*
X175946000Y-113128836D01*
X175907437Y-113322710D01*
X175831791Y-113505336D01*
X175721970Y-113669694D01*
X175582194Y-113809470D01*
X175417836Y-113919291D01*
X175235210Y-113994937D01*
X175068925Y-114028012D01*
X175041337Y-114033500D01*
X174843663Y-114033500D01*
X174816075Y-114028012D01*
X174649790Y-113994937D01*
X174467164Y-113919291D01*
X174302806Y-113809470D01*
X174163030Y-113669694D01*
X174053209Y-113505336D01*
X173977563Y-113322710D01*
X173939000Y-113128836D01*
X173939000Y-112931164D01*
X173977563Y-112737290D01*
X174053209Y-112554664D01*
X174163030Y-112390306D01*
X174302806Y-112250530D01*
X174467164Y-112140709D01*
X174649790Y-112065063D01*
X174816075Y-112031988D01*
X174843663Y-112026500D01*
X175041337Y-112026500D01*
X175068925Y-112031988D01*
X175068925Y-112031988D01*
G37*
G36*
X129613500Y-111988500D02*
G01*
X127711500Y-111988500D01*
X127711500Y-110786500D01*
X129613500Y-110786500D01*
X129613500Y-111988500D01*
X129613500Y-111988500D01*
G37*
G36*
X135813500Y-111988500D02*
G01*
X133911500Y-111988500D01*
X133911500Y-110786500D01*
X135813500Y-110786500D01*
X135813500Y-111988500D01*
X135813500Y-111988500D01*
G37*
G36*
X184801000Y-110101000D02*
G01*
X183499000Y-110101000D01*
X183499000Y-109099000D01*
X184801000Y-109099000D01*
X184801000Y-110101000D01*
X184801000Y-110101000D01*
G37*
G36*
X203851000Y-110101000D02*
G01*
X202549000Y-110101000D01*
X202549000Y-109099000D01*
X203851000Y-109099000D01*
X203851000Y-110101000D01*
X203851000Y-110101000D01*
G37*
G36*
X195858974Y-105983684D02*
G01*
X196076974Y-106073983D01*
X196231123Y-106137833D01*
X196566048Y-106361623D01*
X196850877Y-106646452D01*
X197074667Y-106981377D01*
X197107062Y-107059586D01*
X197228816Y-107353526D01*
X197307400Y-107748594D01*
X197307400Y-108151406D01*
X197228816Y-108546474D01*
X197177951Y-108669272D01*
X197074667Y-108918623D01*
X196850877Y-109253548D01*
X196566048Y-109538377D01*
X196231123Y-109762167D01*
X196076974Y-109826017D01*
X195858974Y-109916316D01*
X195463906Y-109994900D01*
X195061094Y-109994900D01*
X194666026Y-109916316D01*
X194448026Y-109826017D01*
X194293877Y-109762167D01*
X193958952Y-109538377D01*
X193674123Y-109253548D01*
X193450333Y-108918623D01*
X193347049Y-108669272D01*
X193296184Y-108546474D01*
X193217600Y-108151406D01*
X193217600Y-107748594D01*
X193296184Y-107353526D01*
X193417938Y-107059586D01*
X193450333Y-106981377D01*
X193674123Y-106646452D01*
X193958952Y-106361623D01*
X194293877Y-106137833D01*
X194448026Y-106073983D01*
X194666026Y-105983684D01*
X195061094Y-105905100D01*
X195463906Y-105905100D01*
X195858974Y-105983684D01*
X195858974Y-105983684D01*
G37*
G36*
X176808974Y-105983684D02*
G01*
X177026974Y-106073983D01*
X177181123Y-106137833D01*
X177516048Y-106361623D01*
X177800877Y-106646452D01*
X178024667Y-106981377D01*
X178057062Y-107059586D01*
X178178816Y-107353526D01*
X178257400Y-107748594D01*
X178257400Y-108151406D01*
X178178816Y-108546474D01*
X178127951Y-108669272D01*
X178024667Y-108918623D01*
X177800877Y-109253548D01*
X177516048Y-109538377D01*
X177181123Y-109762167D01*
X177026974Y-109826017D01*
X176808974Y-109916316D01*
X176413906Y-109994900D01*
X176011094Y-109994900D01*
X175616026Y-109916316D01*
X175398026Y-109826017D01*
X175243877Y-109762167D01*
X174908952Y-109538377D01*
X174624123Y-109253548D01*
X174400333Y-108918623D01*
X174297049Y-108669272D01*
X174246184Y-108546474D01*
X174167600Y-108151406D01*
X174167600Y-107748594D01*
X174246184Y-107353526D01*
X174367938Y-107059586D01*
X174400333Y-106981377D01*
X174624123Y-106646452D01*
X174908952Y-106361623D01*
X175243877Y-106137833D01*
X175398026Y-106073983D01*
X175616026Y-105983684D01*
X176011094Y-105905100D01*
X176413906Y-105905100D01*
X176808974Y-105983684D01*
X176808974Y-105983684D01*
G37*
G36*
X190452604Y-107059585D02*
G01*
X190621126Y-107129389D01*
X190772791Y-107230728D01*
X190901772Y-107359709D01*
X191003111Y-107511374D01*
X191072915Y-107679896D01*
X191108500Y-107858797D01*
X191108500Y-108041203D01*
X191072915Y-108220104D01*
X191003111Y-108388626D01*
X190901772Y-108540291D01*
X190772791Y-108669272D01*
X190621126Y-108770611D01*
X190452604Y-108840415D01*
X190273703Y-108876000D01*
X190091297Y-108876000D01*
X189912396Y-108840415D01*
X189743874Y-108770611D01*
X189592209Y-108669272D01*
X189463228Y-108540291D01*
X189361889Y-108388626D01*
X189292085Y-108220104D01*
X189256500Y-108041203D01*
X189256500Y-107858797D01*
X189292085Y-107679896D01*
X189361889Y-107511374D01*
X189463228Y-107359709D01*
X189592209Y-107230728D01*
X189743874Y-107129389D01*
X189912396Y-107059585D01*
X190091297Y-107024000D01*
X190273703Y-107024000D01*
X190452604Y-107059585D01*
X190452604Y-107059585D01*
G37*
G36*
X181562604Y-107059585D02*
G01*
X181731126Y-107129389D01*
X181882791Y-107230728D01*
X182011772Y-107359709D01*
X182113111Y-107511374D01*
X182182915Y-107679896D01*
X182218500Y-107858797D01*
X182218500Y-108041203D01*
X182182915Y-108220104D01*
X182113111Y-108388626D01*
X182011772Y-108540291D01*
X181882791Y-108669272D01*
X181731126Y-108770611D01*
X181562604Y-108840415D01*
X181383703Y-108876000D01*
X181201297Y-108876000D01*
X181022396Y-108840415D01*
X180853874Y-108770611D01*
X180702209Y-108669272D01*
X180573228Y-108540291D01*
X180471889Y-108388626D01*
X180402085Y-108220104D01*
X180366500Y-108041203D01*
X180366500Y-107858797D01*
X180402085Y-107679896D01*
X180471889Y-107511374D01*
X180573228Y-107359709D01*
X180702209Y-107230728D01*
X180853874Y-107129389D01*
X181022396Y-107059585D01*
X181201297Y-107024000D01*
X181383703Y-107024000D01*
X181562604Y-107059585D01*
X181562604Y-107059585D01*
G37*
G36*
X200612604Y-107059585D02*
G01*
X200781126Y-107129389D01*
X200932791Y-107230728D01*
X201061772Y-107359709D01*
X201163111Y-107511374D01*
X201232915Y-107679896D01*
X201268500Y-107858797D01*
X201268500Y-108041203D01*
X201232915Y-108220104D01*
X201163111Y-108388626D01*
X201061772Y-108540291D01*
X200932791Y-108669272D01*
X200781126Y-108770611D01*
X200612604Y-108840415D01*
X200433703Y-108876000D01*
X200251297Y-108876000D01*
X200072396Y-108840415D01*
X199903874Y-108770611D01*
X199752209Y-108669272D01*
X199623228Y-108540291D01*
X199521889Y-108388626D01*
X199452085Y-108220104D01*
X199416500Y-108041203D01*
X199416500Y-107858797D01*
X199452085Y-107679896D01*
X199521889Y-107511374D01*
X199623228Y-107359709D01*
X199752209Y-107230728D01*
X199903874Y-107129389D01*
X200072396Y-107059585D01*
X200251297Y-107024000D01*
X200433703Y-107024000D01*
X200612604Y-107059585D01*
X200612604Y-107059585D01*
G37*
G36*
X171402604Y-107059585D02*
G01*
X171571126Y-107129389D01*
X171722791Y-107230728D01*
X171851772Y-107359709D01*
X171953111Y-107511374D01*
X172022915Y-107679896D01*
X172058500Y-107858797D01*
X172058500Y-108041203D01*
X172022915Y-108220104D01*
X171953111Y-108388626D01*
X171851772Y-108540291D01*
X171722791Y-108669272D01*
X171571126Y-108770611D01*
X171402604Y-108840415D01*
X171223703Y-108876000D01*
X171041297Y-108876000D01*
X170862396Y-108840415D01*
X170693874Y-108770611D01*
X170542209Y-108669272D01*
X170413228Y-108540291D01*
X170311889Y-108388626D01*
X170242085Y-108220104D01*
X170206500Y-108041203D01*
X170206500Y-107858797D01*
X170242085Y-107679896D01*
X170311889Y-107511374D01*
X170413228Y-107359709D01*
X170542209Y-107230728D01*
X170693874Y-107129389D01*
X170862396Y-107059585D01*
X171041297Y-107024000D01*
X171223703Y-107024000D01*
X171402604Y-107059585D01*
X171402604Y-107059585D01*
G37*
G36*
X156596968Y-107203565D02*
G01*
X156635638Y-107215296D01*
X156671277Y-107234346D01*
X156702517Y-107259983D01*
X156728154Y-107291223D01*
X156747204Y-107326862D01*
X156758935Y-107365532D01*
X156763500Y-107411888D01*
X156763500Y-108488112D01*
X156758935Y-108534468D01*
X156747204Y-108573138D01*
X156728154Y-108608777D01*
X156702517Y-108640017D01*
X156671277Y-108665654D01*
X156635638Y-108684704D01*
X156596968Y-108696435D01*
X156550612Y-108701000D01*
X155899388Y-108701000D01*
X155853032Y-108696435D01*
X155814362Y-108684704D01*
X155778723Y-108665654D01*
X155747483Y-108640017D01*
X155721846Y-108608777D01*
X155702796Y-108573138D01*
X155691065Y-108534468D01*
X155686500Y-108488112D01*
X155686500Y-107411888D01*
X155691065Y-107365532D01*
X155702796Y-107326862D01*
X155721846Y-107291223D01*
X155747483Y-107259983D01*
X155778723Y-107234346D01*
X155814362Y-107215296D01*
X155853032Y-107203565D01*
X155899388Y-107199000D01*
X156550612Y-107199000D01*
X156596968Y-107203565D01*
X156596968Y-107203565D01*
G37*
G36*
X158471968Y-107203565D02*
G01*
X158510638Y-107215296D01*
X158546277Y-107234346D01*
X158577517Y-107259983D01*
X158603154Y-107291223D01*
X158622204Y-107326862D01*
X158633935Y-107365532D01*
X158638500Y-107411888D01*
X158638500Y-108488112D01*
X158633935Y-108534468D01*
X158622204Y-108573138D01*
X158603154Y-108608777D01*
X158577517Y-108640017D01*
X158546277Y-108665654D01*
X158510638Y-108684704D01*
X158471968Y-108696435D01*
X158425612Y-108701000D01*
X157774388Y-108701000D01*
X157728032Y-108696435D01*
X157689362Y-108684704D01*
X157653723Y-108665654D01*
X157622483Y-108640017D01*
X157596846Y-108608777D01*
X157577796Y-108573138D01*
X157566065Y-108534468D01*
X157561500Y-108488112D01*
X157561500Y-107411888D01*
X157566065Y-107365532D01*
X157577796Y-107326862D01*
X157596846Y-107291223D01*
X157622483Y-107259983D01*
X157653723Y-107234346D01*
X157689362Y-107215296D01*
X157728032Y-107203565D01*
X157774388Y-107199000D01*
X158425612Y-107199000D01*
X158471968Y-107203565D01*
X158471968Y-107203565D01*
G37*
G36*
X129613500Y-108288500D02*
G01*
X127711500Y-108288500D01*
X127711500Y-107086500D01*
X129613500Y-107086500D01*
X129613500Y-108288500D01*
X129613500Y-108288500D01*
G37*
G36*
X135813500Y-108288500D02*
G01*
X133911500Y-108288500D01*
X133911500Y-107086500D01*
X135813500Y-107086500D01*
X135813500Y-108288500D01*
X135813500Y-108288500D01*
G37*
G36*
X184801000Y-106801000D02*
G01*
X183499000Y-106801000D01*
X183499000Y-105799000D01*
X184801000Y-105799000D01*
X184801000Y-106801000D01*
X184801000Y-106801000D01*
G37*
G36*
X203851000Y-106801000D02*
G01*
X202549000Y-106801000D01*
X202549000Y-105799000D01*
X203851000Y-105799000D01*
X203851000Y-106801000D01*
X203851000Y-106801000D01*
G37*
G36*
X192785705Y-102773881D02*
G01*
X192791145Y-102774000D01*
X192878328Y-102774000D01*
X192894597Y-102777236D01*
X192913456Y-102779515D01*
X192930032Y-102780246D01*
X193014723Y-102801010D01*
X193020018Y-102802184D01*
X193105527Y-102819193D01*
X193120862Y-102825545D01*
X193138901Y-102831455D01*
X193155021Y-102835407D01*
X193234004Y-102872280D01*
X193238994Y-102874477D01*
X193319545Y-102907842D01*
X193333341Y-102917060D01*
X193349893Y-102926382D01*
X193364926Y-102933400D01*
X193435194Y-102984971D01*
X193439692Y-102988122D01*
X193512156Y-103036541D01*
X193523883Y-103048268D01*
X193538309Y-103060648D01*
X193551679Y-103070461D01*
X193551680Y-103070462D01*
X193610521Y-103134733D01*
X193614329Y-103138714D01*
X193675959Y-103200344D01*
X193685174Y-103214135D01*
X193696896Y-103229078D01*
X193708105Y-103241321D01*
X193753299Y-103315874D01*
X193756246Y-103320501D01*
X193804658Y-103392955D01*
X193811005Y-103408277D01*
X193819592Y-103425231D01*
X193828191Y-103439417D01*
X193857978Y-103521368D01*
X193859952Y-103526448D01*
X193893307Y-103606973D01*
X193893703Y-103608962D01*
X193896541Y-103623233D01*
X193901658Y-103641542D01*
X193907325Y-103657134D01*
X193920555Y-103743345D01*
X193921501Y-103748713D01*
X193938500Y-103834173D01*
X193938500Y-103850752D01*
X193939944Y-103869692D01*
X193942463Y-103886104D01*
X193938620Y-103973249D01*
X193938500Y-103978689D01*
X193938500Y-104065825D01*
X193935266Y-104082083D01*
X193932988Y-104100941D01*
X193932256Y-104117531D01*
X193911488Y-104202237D01*
X193910312Y-104207537D01*
X193893307Y-104293027D01*
X193886957Y-104308357D01*
X193881049Y-104326393D01*
X193877095Y-104342520D01*
X193840211Y-104421526D01*
X193838011Y-104426523D01*
X193804658Y-104507045D01*
X193795444Y-104520835D01*
X193786122Y-104537387D01*
X193779102Y-104552424D01*
X193727511Y-104622720D01*
X193724366Y-104627210D01*
X193675961Y-104699654D01*
X193618960Y-104756655D01*
X193614311Y-104761563D01*
X193044815Y-105396267D01*
X192289223Y-106238376D01*
X192161179Y-106355602D01*
X192062130Y-106415646D01*
X191963083Y-106475689D01*
X191745366Y-106554823D01*
X191516395Y-106589961D01*
X191284970Y-106579754D01*
X191059981Y-106524593D01*
X190955227Y-106475689D01*
X190850079Y-106426602D01*
X190753338Y-106355602D01*
X190663323Y-106289539D01*
X190588894Y-106208241D01*
X190506898Y-106118679D01*
X190425064Y-105983685D01*
X190386811Y-105920583D01*
X190307677Y-105702866D01*
X190272539Y-105473895D01*
X190282746Y-105242470D01*
X190337907Y-105017481D01*
X190389472Y-104907028D01*
X190435898Y-104807580D01*
X190435900Y-104807577D01*
X190538614Y-104667622D01*
X191293745Y-103826027D01*
X191825287Y-103233621D01*
X191836181Y-103219589D01*
X191849039Y-103200346D01*
X191906073Y-103143312D01*
X191910723Y-103138403D01*
X191925778Y-103121624D01*
X191947201Y-103102011D01*
X191951182Y-103098203D01*
X192012846Y-103036539D01*
X192026643Y-103027320D01*
X192041602Y-103015585D01*
X192053821Y-103004398D01*
X192085885Y-102984961D01*
X192128330Y-102959231D01*
X192132921Y-102956308D01*
X192205455Y-102907842D01*
X192220800Y-102901486D01*
X192237748Y-102892901D01*
X192251916Y-102884312D01*
X192251917Y-102884312D01*
X192251918Y-102884311D01*
X192333812Y-102854545D01*
X192338910Y-102852563D01*
X192419473Y-102819193D01*
X192435752Y-102815955D01*
X192454042Y-102810844D01*
X192469635Y-102805177D01*
X192555800Y-102791954D01*
X192561163Y-102791009D01*
X192646673Y-102774000D01*
X192663266Y-102774000D01*
X192682209Y-102772555D01*
X192698606Y-102770039D01*
X192785705Y-102773881D01*
X192785705Y-102773881D01*
G37*
G36*
X173735705Y-102773881D02*
G01*
X173741145Y-102774000D01*
X173828328Y-102774000D01*
X173844597Y-102777236D01*
X173863456Y-102779515D01*
X173880032Y-102780246D01*
X173964723Y-102801010D01*
X173970018Y-102802184D01*
X174055527Y-102819193D01*
X174070862Y-102825545D01*
X174088901Y-102831455D01*
X174105021Y-102835407D01*
X174184004Y-102872280D01*
X174188994Y-102874477D01*
X174269545Y-102907842D01*
X174283341Y-102917060D01*
X174299893Y-102926382D01*
X174314926Y-102933400D01*
X174385194Y-102984971D01*
X174389692Y-102988122D01*
X174462156Y-103036541D01*
X174473883Y-103048268D01*
X174488309Y-103060648D01*
X174501679Y-103070461D01*
X174501680Y-103070462D01*
X174560521Y-103134733D01*
X174564329Y-103138714D01*
X174625959Y-103200344D01*
X174635174Y-103214135D01*
X174646896Y-103229078D01*
X174658105Y-103241321D01*
X174703299Y-103315874D01*
X174706246Y-103320501D01*
X174754658Y-103392955D01*
X174761005Y-103408277D01*
X174769592Y-103425231D01*
X174778191Y-103439417D01*
X174807978Y-103521368D01*
X174809952Y-103526448D01*
X174843307Y-103606973D01*
X174843703Y-103608962D01*
X174846541Y-103623233D01*
X174851658Y-103641542D01*
X174857325Y-103657134D01*
X174870555Y-103743345D01*
X174871501Y-103748713D01*
X174888500Y-103834173D01*
X174888500Y-103850752D01*
X174889944Y-103869692D01*
X174892463Y-103886104D01*
X174888620Y-103973249D01*
X174888500Y-103978689D01*
X174888500Y-104065825D01*
X174885266Y-104082083D01*
X174882988Y-104100941D01*
X174882256Y-104117531D01*
X174861488Y-104202237D01*
X174860312Y-104207537D01*
X174843307Y-104293027D01*
X174836957Y-104308357D01*
X174831049Y-104326393D01*
X174827095Y-104342520D01*
X174790211Y-104421526D01*
X174788011Y-104426523D01*
X174754658Y-104507045D01*
X174745444Y-104520835D01*
X174736122Y-104537387D01*
X174729102Y-104552424D01*
X174677511Y-104622720D01*
X174674366Y-104627210D01*
X174625961Y-104699654D01*
X174568960Y-104756655D01*
X174564311Y-104761563D01*
X173994815Y-105396267D01*
X173239223Y-106238376D01*
X173111179Y-106355602D01*
X173012130Y-106415646D01*
X172913083Y-106475689D01*
X172695366Y-106554823D01*
X172466395Y-106589961D01*
X172234970Y-106579754D01*
X172009981Y-106524593D01*
X171905227Y-106475689D01*
X171800079Y-106426602D01*
X171703338Y-106355602D01*
X171613323Y-106289539D01*
X171538894Y-106208241D01*
X171456898Y-106118679D01*
X171375064Y-105983685D01*
X171336811Y-105920583D01*
X171257677Y-105702866D01*
X171222539Y-105473895D01*
X171232746Y-105242470D01*
X171287907Y-105017481D01*
X171339472Y-104907028D01*
X171385898Y-104807580D01*
X171385900Y-104807577D01*
X171488614Y-104667622D01*
X172243745Y-103826027D01*
X172775287Y-103233621D01*
X172786181Y-103219589D01*
X172799039Y-103200346D01*
X172856073Y-103143312D01*
X172860723Y-103138403D01*
X172875778Y-103121624D01*
X172897201Y-103102011D01*
X172901182Y-103098203D01*
X172962846Y-103036539D01*
X172976643Y-103027320D01*
X172991602Y-103015585D01*
X173003821Y-103004398D01*
X173035885Y-102984961D01*
X173078330Y-102959231D01*
X173082921Y-102956308D01*
X173155455Y-102907842D01*
X173170800Y-102901486D01*
X173187748Y-102892901D01*
X173201916Y-102884312D01*
X173201917Y-102884312D01*
X173201918Y-102884311D01*
X173283812Y-102854545D01*
X173288910Y-102852563D01*
X173369473Y-102819193D01*
X173385752Y-102815955D01*
X173404042Y-102810844D01*
X173419635Y-102805177D01*
X173505800Y-102791954D01*
X173511163Y-102791009D01*
X173596673Y-102774000D01*
X173613266Y-102774000D01*
X173632209Y-102772555D01*
X173648606Y-102770039D01*
X173735705Y-102773881D01*
X173735705Y-102773881D01*
G37*
G36*
X141871968Y-104384815D02*
G01*
X141910638Y-104396546D01*
X141946277Y-104415596D01*
X141977517Y-104441233D01*
X142003154Y-104472473D01*
X142022204Y-104508112D01*
X142033935Y-104546782D01*
X142038500Y-104593138D01*
X142038500Y-105244362D01*
X142033935Y-105290718D01*
X142022204Y-105329388D01*
X142003154Y-105365027D01*
X141977517Y-105396267D01*
X141946277Y-105421904D01*
X141910638Y-105440954D01*
X141871968Y-105452685D01*
X141825612Y-105457250D01*
X140749388Y-105457250D01*
X140703032Y-105452685D01*
X140664362Y-105440954D01*
X140628723Y-105421904D01*
X140597483Y-105396267D01*
X140571846Y-105365027D01*
X140552796Y-105329388D01*
X140541065Y-105290718D01*
X140536500Y-105244362D01*
X140536500Y-104593138D01*
X140541065Y-104546782D01*
X140552796Y-104508112D01*
X140571846Y-104472473D01*
X140597483Y-104441233D01*
X140628723Y-104415596D01*
X140664362Y-104396546D01*
X140703032Y-104384815D01*
X140749388Y-104380250D01*
X141825612Y-104380250D01*
X141871968Y-104384815D01*
X141871968Y-104384815D01*
G37*
G36*
X156726000Y-104926000D02*
G01*
X148074000Y-104926000D01*
X148074000Y-103324000D01*
X156726000Y-103324000D01*
X156726000Y-104926000D01*
X156726000Y-104926000D01*
G37*
G36*
X178840627Y-101692261D02*
G01*
X178861400Y-101694000D01*
X178868327Y-101694000D01*
X178963254Y-101712882D01*
X178966848Y-101713542D01*
X179062230Y-101729624D01*
X179068703Y-101732085D01*
X179088728Y-101737841D01*
X179095527Y-101739193D01*
X179157914Y-101765034D01*
X179184943Y-101776230D01*
X179188344Y-101777581D01*
X179278755Y-101811961D01*
X179284627Y-101815640D01*
X179303136Y-101825187D01*
X179309545Y-101827842D01*
X179390063Y-101881642D01*
X179393054Y-101883578D01*
X179475057Y-101934959D01*
X179480084Y-101939700D01*
X179496396Y-101952691D01*
X179502152Y-101956537D01*
X179570610Y-102024995D01*
X179573189Y-102027499D01*
X179643590Y-102093889D01*
X179647226Y-102099000D01*
X179647595Y-102099519D01*
X179661059Y-102115444D01*
X179665959Y-102120344D01*
X179719744Y-102200839D01*
X179721791Y-102203807D01*
X179777880Y-102282645D01*
X179780714Y-102288958D01*
X179790808Y-102307193D01*
X179794658Y-102312955D01*
X179831720Y-102402430D01*
X179833124Y-102405685D01*
X179872765Y-102493973D01*
X179874315Y-102500725D01*
X179880652Y-102520562D01*
X179883307Y-102526973D01*
X179902192Y-102621917D01*
X179902938Y-102625401D01*
X179924598Y-102719751D01*
X179924598Y-102719754D01*
X179924800Y-102726654D01*
X179927147Y-102747370D01*
X179928500Y-102754174D01*
X179928500Y-102850986D01*
X179928553Y-102854584D01*
X179929688Y-102893277D01*
X179928795Y-102906225D01*
X179928500Y-102914797D01*
X179928500Y-102985826D01*
X179922581Y-103015585D01*
X179922104Y-103017979D01*
X179920000Y-103033750D01*
X179881738Y-103588545D01*
X179852876Y-103759730D01*
X179770538Y-103976255D01*
X179647541Y-104172557D01*
X179488611Y-104341090D01*
X179299855Y-104475380D01*
X179088527Y-104570265D01*
X178862749Y-104622098D01*
X178631198Y-104628889D01*
X178631197Y-104628889D01*
X178585512Y-104621186D01*
X178402770Y-104590376D01*
X178186245Y-104508038D01*
X177989943Y-104385041D01*
X177821410Y-104226111D01*
X177687120Y-104037355D01*
X177592235Y-103826027D01*
X177540402Y-103600249D01*
X177535312Y-103426723D01*
X177576204Y-102833794D01*
X177576500Y-102825196D01*
X177576500Y-102754174D01*
X177595388Y-102659219D01*
X177596044Y-102655645D01*
X177598651Y-102640185D01*
X177612124Y-102560270D01*
X177614585Y-102553799D01*
X177620342Y-102533767D01*
X177621693Y-102526974D01*
X177622202Y-102525745D01*
X177658764Y-102437476D01*
X177660053Y-102434230D01*
X177694462Y-102343745D01*
X177698136Y-102337881D01*
X177707687Y-102319365D01*
X177710342Y-102312955D01*
X177764157Y-102232415D01*
X177766077Y-102229449D01*
X177817459Y-102147443D01*
X177822211Y-102142404D01*
X177835189Y-102126107D01*
X177839037Y-102120348D01*
X177907493Y-102051892D01*
X177910046Y-102049262D01*
X177930523Y-102027548D01*
X177976389Y-101978910D01*
X177982021Y-101974903D01*
X177997947Y-101961438D01*
X178002846Y-101956539D01*
X178083324Y-101902766D01*
X178086306Y-101900710D01*
X178165145Y-101844620D01*
X178171455Y-101841787D01*
X178189694Y-101831691D01*
X178195451Y-101827844D01*
X178195454Y-101827843D01*
X178195455Y-101827842D01*
X178284929Y-101790781D01*
X178288187Y-101789375D01*
X178376473Y-101749735D01*
X178383225Y-101748185D01*
X178403062Y-101741848D01*
X178409473Y-101739193D01*
X178504399Y-101720311D01*
X178507946Y-101719551D01*
X178602251Y-101697901D01*
X178604630Y-101697831D01*
X178609165Y-101697698D01*
X178629881Y-101695351D01*
X178636674Y-101694000D01*
X178733459Y-101694000D01*
X178737084Y-101693947D01*
X178833802Y-101691110D01*
X178840627Y-101692261D01*
X178840627Y-101692261D01*
G37*
G36*
X197890627Y-101692261D02*
G01*
X197911400Y-101694000D01*
X197918327Y-101694000D01*
X198013254Y-101712882D01*
X198016848Y-101713542D01*
X198112230Y-101729624D01*
X198118703Y-101732085D01*
X198138728Y-101737841D01*
X198145527Y-101739193D01*
X198207914Y-101765034D01*
X198234943Y-101776230D01*
X198238344Y-101777581D01*
X198328755Y-101811961D01*
X198334627Y-101815640D01*
X198353136Y-101825187D01*
X198359545Y-101827842D01*
X198440063Y-101881642D01*
X198443054Y-101883578D01*
X198525057Y-101934959D01*
X198530084Y-101939700D01*
X198546396Y-101952691D01*
X198552152Y-101956537D01*
X198620610Y-102024995D01*
X198623189Y-102027499D01*
X198693590Y-102093889D01*
X198697226Y-102099000D01*
X198697595Y-102099519D01*
X198711059Y-102115444D01*
X198715959Y-102120344D01*
X198769744Y-102200839D01*
X198771791Y-102203807D01*
X198827880Y-102282645D01*
X198830714Y-102288958D01*
X198840808Y-102307193D01*
X198844658Y-102312955D01*
X198881720Y-102402430D01*
X198883124Y-102405685D01*
X198922765Y-102493973D01*
X198924315Y-102500725D01*
X198930652Y-102520562D01*
X198933307Y-102526973D01*
X198952192Y-102621917D01*
X198952938Y-102625401D01*
X198974598Y-102719751D01*
X198974598Y-102719754D01*
X198974800Y-102726654D01*
X198977147Y-102747370D01*
X198978500Y-102754174D01*
X198978500Y-102850986D01*
X198978553Y-102854584D01*
X198979688Y-102893277D01*
X198978795Y-102906225D01*
X198978500Y-102914797D01*
X198978500Y-102985826D01*
X198972581Y-103015585D01*
X198972104Y-103017979D01*
X198970000Y-103033750D01*
X198931738Y-103588545D01*
X198902876Y-103759730D01*
X198820538Y-103976255D01*
X198697541Y-104172557D01*
X198538611Y-104341090D01*
X198349855Y-104475380D01*
X198138527Y-104570265D01*
X197912749Y-104622098D01*
X197681198Y-104628889D01*
X197681197Y-104628889D01*
X197635512Y-104621186D01*
X197452770Y-104590376D01*
X197236245Y-104508038D01*
X197039943Y-104385041D01*
X196871410Y-104226111D01*
X196737120Y-104037355D01*
X196642235Y-103826027D01*
X196590402Y-103600249D01*
X196585312Y-103426723D01*
X196626204Y-102833794D01*
X196626500Y-102825196D01*
X196626500Y-102754174D01*
X196645388Y-102659219D01*
X196646044Y-102655645D01*
X196648651Y-102640185D01*
X196662124Y-102560270D01*
X196664585Y-102553799D01*
X196670342Y-102533767D01*
X196671693Y-102526974D01*
X196672202Y-102525745D01*
X196708764Y-102437476D01*
X196710053Y-102434230D01*
X196744462Y-102343745D01*
X196748136Y-102337881D01*
X196757687Y-102319365D01*
X196760342Y-102312955D01*
X196814157Y-102232415D01*
X196816077Y-102229449D01*
X196867459Y-102147443D01*
X196872211Y-102142404D01*
X196885189Y-102126107D01*
X196889037Y-102120348D01*
X196957493Y-102051892D01*
X196960046Y-102049262D01*
X196980523Y-102027548D01*
X197026389Y-101978910D01*
X197032021Y-101974903D01*
X197047947Y-101961438D01*
X197052846Y-101956539D01*
X197133324Y-101902766D01*
X197136306Y-101900710D01*
X197215145Y-101844620D01*
X197221455Y-101841787D01*
X197239694Y-101831691D01*
X197245451Y-101827844D01*
X197245454Y-101827843D01*
X197245455Y-101827842D01*
X197334929Y-101790781D01*
X197338187Y-101789375D01*
X197426473Y-101749735D01*
X197433225Y-101748185D01*
X197453062Y-101741848D01*
X197459473Y-101739193D01*
X197554399Y-101720311D01*
X197557946Y-101719551D01*
X197652251Y-101697901D01*
X197654630Y-101697831D01*
X197659165Y-101697698D01*
X197679881Y-101695351D01*
X197686674Y-101694000D01*
X197783459Y-101694000D01*
X197787084Y-101693947D01*
X197883802Y-101691110D01*
X197890627Y-101692261D01*
X197890627Y-101692261D01*
G37*
G36*
X163303218Y-103447315D02*
G01*
X163341888Y-103459046D01*
X163377527Y-103478096D01*
X163408767Y-103503733D01*
X163434404Y-103534973D01*
X163453454Y-103570612D01*
X163465185Y-103609282D01*
X163469750Y-103655638D01*
X163469750Y-104306862D01*
X163465185Y-104353218D01*
X163453454Y-104391888D01*
X163434404Y-104427527D01*
X163408767Y-104458767D01*
X163377527Y-104484404D01*
X163341888Y-104503454D01*
X163303218Y-104515185D01*
X163256862Y-104519750D01*
X162180638Y-104519750D01*
X162134282Y-104515185D01*
X162095612Y-104503454D01*
X162059973Y-104484404D01*
X162028733Y-104458767D01*
X162003096Y-104427527D01*
X161984046Y-104391888D01*
X161972315Y-104353218D01*
X161967750Y-104306862D01*
X161967750Y-103655638D01*
X161972315Y-103609282D01*
X161984046Y-103570612D01*
X162003096Y-103534973D01*
X162028733Y-103503733D01*
X162059973Y-103478096D01*
X162095612Y-103459046D01*
X162134282Y-103447315D01*
X162180638Y-103442750D01*
X163256862Y-103442750D01*
X163303218Y-103447315D01*
X163303218Y-103447315D01*
G37*
G36*
X141871968Y-102509815D02*
G01*
X141910638Y-102521546D01*
X141946277Y-102540596D01*
X141977517Y-102566233D01*
X142003154Y-102597473D01*
X142022204Y-102633112D01*
X142033935Y-102671782D01*
X142038500Y-102718138D01*
X142038500Y-103369362D01*
X142033935Y-103415718D01*
X142022204Y-103454388D01*
X142003154Y-103490027D01*
X141977517Y-103521267D01*
X141946277Y-103546904D01*
X141910638Y-103565954D01*
X141871968Y-103577685D01*
X141825612Y-103582250D01*
X140749388Y-103582250D01*
X140703032Y-103577685D01*
X140664362Y-103565954D01*
X140628723Y-103546904D01*
X140597483Y-103521267D01*
X140571846Y-103490027D01*
X140552796Y-103454388D01*
X140541065Y-103415718D01*
X140536500Y-103369362D01*
X140536500Y-102718138D01*
X140541065Y-102671782D01*
X140552796Y-102633112D01*
X140571846Y-102597473D01*
X140597483Y-102566233D01*
X140628723Y-102540596D01*
X140664362Y-102521546D01*
X140703032Y-102509815D01*
X140749388Y-102505250D01*
X141825612Y-102505250D01*
X141871968Y-102509815D01*
X141871968Y-102509815D01*
G37*
G36*
X147501000Y-102751000D02*
G01*
X145899000Y-102751000D01*
X145899000Y-94099000D01*
X147501000Y-94099000D01*
X147501000Y-102751000D01*
X147501000Y-102751000D01*
G37*
G36*
X158901000Y-102751000D02*
G01*
X157299000Y-102751000D01*
X157299000Y-94099000D01*
X158901000Y-94099000D01*
X158901000Y-102751000D01*
X158901000Y-102751000D01*
G37*
G36*
X163303218Y-101572315D02*
G01*
X163341888Y-101584046D01*
X163377527Y-101603096D01*
X163408767Y-101628733D01*
X163434404Y-101659973D01*
X163453454Y-101695612D01*
X163465185Y-101734282D01*
X163469750Y-101780638D01*
X163469750Y-102431862D01*
X163465185Y-102478218D01*
X163453454Y-102516888D01*
X163434404Y-102552527D01*
X163408767Y-102583767D01*
X163377527Y-102609404D01*
X163341888Y-102628454D01*
X163303218Y-102640185D01*
X163256862Y-102644750D01*
X162180638Y-102644750D01*
X162134282Y-102640185D01*
X162095612Y-102628454D01*
X162059973Y-102609404D01*
X162028733Y-102583767D01*
X162003096Y-102552527D01*
X161984046Y-102516888D01*
X161972315Y-102478218D01*
X161967750Y-102431862D01*
X161967750Y-101780638D01*
X161972315Y-101734282D01*
X161984046Y-101695612D01*
X162003096Y-101659973D01*
X162028733Y-101628733D01*
X162059973Y-101603096D01*
X162095612Y-101584046D01*
X162134282Y-101572315D01*
X162180638Y-101567750D01*
X163256862Y-101567750D01*
X163303218Y-101572315D01*
X163303218Y-101572315D01*
G37*
G36*
X127768604Y-97565847D02*
G01*
X127805144Y-97576932D01*
X127838821Y-97594933D01*
X127868341Y-97619159D01*
X127892567Y-97648679D01*
X127910568Y-97682356D01*
X127921653Y-97718896D01*
X127926000Y-97763038D01*
X127926000Y-98711962D01*
X127921653Y-98756104D01*
X127910568Y-98792644D01*
X127892567Y-98826321D01*
X127868341Y-98855841D01*
X127838821Y-98880067D01*
X127805144Y-98898068D01*
X127768604Y-98909153D01*
X127724462Y-98913500D01*
X126275538Y-98913500D01*
X126231396Y-98909153D01*
X126194856Y-98898068D01*
X126161179Y-98880067D01*
X126131659Y-98855841D01*
X126107433Y-98826321D01*
X126089432Y-98792644D01*
X126078347Y-98756104D01*
X126074000Y-98711962D01*
X126074000Y-97763038D01*
X126078347Y-97718896D01*
X126089432Y-97682356D01*
X126107433Y-97648679D01*
X126131659Y-97619159D01*
X126161179Y-97594933D01*
X126194856Y-97576932D01*
X126231396Y-97565847D01*
X126275538Y-97561500D01*
X127724462Y-97561500D01*
X127768604Y-97565847D01*
X127768604Y-97565847D01*
G37*
G36*
X141515718Y-96884815D02*
G01*
X141554388Y-96896546D01*
X141590027Y-96915596D01*
X141621267Y-96941233D01*
X141646904Y-96972473D01*
X141665954Y-97008112D01*
X141677685Y-97046782D01*
X141682250Y-97093138D01*
X141682250Y-98169362D01*
X141677685Y-98215718D01*
X141665954Y-98254388D01*
X141646904Y-98290027D01*
X141621267Y-98321267D01*
X141590027Y-98346904D01*
X141554388Y-98365954D01*
X141515718Y-98377685D01*
X141469362Y-98382250D01*
X140818138Y-98382250D01*
X140771782Y-98377685D01*
X140733112Y-98365954D01*
X140697473Y-98346904D01*
X140666233Y-98321267D01*
X140640596Y-98290027D01*
X140621546Y-98254388D01*
X140609815Y-98215718D01*
X140605250Y-98169362D01*
X140605250Y-97093138D01*
X140609815Y-97046782D01*
X140621546Y-97008112D01*
X140640596Y-96972473D01*
X140666233Y-96941233D01*
X140697473Y-96915596D01*
X140733112Y-96896546D01*
X140771782Y-96884815D01*
X140818138Y-96880250D01*
X141469362Y-96880250D01*
X141515718Y-96884815D01*
X141515718Y-96884815D01*
G37*
G36*
X143390718Y-96884815D02*
G01*
X143429388Y-96896546D01*
X143465027Y-96915596D01*
X143496267Y-96941233D01*
X143521904Y-96972473D01*
X143540954Y-97008112D01*
X143552685Y-97046782D01*
X143557250Y-97093138D01*
X143557250Y-98169362D01*
X143552685Y-98215718D01*
X143540954Y-98254388D01*
X143521904Y-98290027D01*
X143496267Y-98321267D01*
X143465027Y-98346904D01*
X143429388Y-98365954D01*
X143390718Y-98377685D01*
X143344362Y-98382250D01*
X142693138Y-98382250D01*
X142646782Y-98377685D01*
X142608112Y-98365954D01*
X142572473Y-98346904D01*
X142541233Y-98321267D01*
X142515596Y-98290027D01*
X142496546Y-98254388D01*
X142484815Y-98215718D01*
X142480250Y-98169362D01*
X142480250Y-97093138D01*
X142484815Y-97046782D01*
X142496546Y-97008112D01*
X142515596Y-96972473D01*
X142541233Y-96941233D01*
X142572473Y-96915596D01*
X142608112Y-96896546D01*
X142646782Y-96884815D01*
X142693138Y-96880250D01*
X143344362Y-96880250D01*
X143390718Y-96884815D01*
X143390718Y-96884815D01*
G37*
G36*
X127768604Y-94765847D02*
G01*
X127805144Y-94776932D01*
X127838821Y-94794933D01*
X127868341Y-94819159D01*
X127892567Y-94848679D01*
X127910568Y-94882356D01*
X127921653Y-94918896D01*
X127926000Y-94963038D01*
X127926000Y-95911962D01*
X127921653Y-95956104D01*
X127910568Y-95992644D01*
X127892567Y-96026321D01*
X127868341Y-96055841D01*
X127838821Y-96080067D01*
X127805144Y-96098068D01*
X127768604Y-96109153D01*
X127724462Y-96113500D01*
X126275538Y-96113500D01*
X126231396Y-96109153D01*
X126194856Y-96098068D01*
X126161179Y-96080067D01*
X126131659Y-96055841D01*
X126107433Y-96026321D01*
X126089432Y-95992644D01*
X126078347Y-95956104D01*
X126074000Y-95911962D01*
X126074000Y-94963038D01*
X126078347Y-94918896D01*
X126089432Y-94882356D01*
X126107433Y-94848679D01*
X126131659Y-94819159D01*
X126161179Y-94794933D01*
X126194856Y-94776932D01*
X126231396Y-94765847D01*
X126275538Y-94761500D01*
X127724462Y-94761500D01*
X127768604Y-94765847D01*
X127768604Y-94765847D01*
G37*
G36*
X162509468Y-94066065D02*
G01*
X162548138Y-94077796D01*
X162583777Y-94096846D01*
X162615017Y-94122483D01*
X162640654Y-94153723D01*
X162659704Y-94189362D01*
X162671435Y-94228032D01*
X162676000Y-94274388D01*
X162676000Y-94925612D01*
X162671435Y-94971968D01*
X162659704Y-95010638D01*
X162640654Y-95046277D01*
X162615017Y-95077517D01*
X162583777Y-95103154D01*
X162548138Y-95122204D01*
X162509468Y-95133935D01*
X162463112Y-95138500D01*
X161386888Y-95138500D01*
X161340532Y-95133935D01*
X161301862Y-95122204D01*
X161266223Y-95103154D01*
X161234983Y-95077517D01*
X161209346Y-95046277D01*
X161190296Y-95010638D01*
X161178565Y-94971968D01*
X161174000Y-94925612D01*
X161174000Y-94274388D01*
X161178565Y-94228032D01*
X161190296Y-94189362D01*
X161209346Y-94153723D01*
X161234983Y-94122483D01*
X161266223Y-94096846D01*
X161301862Y-94077796D01*
X161340532Y-94066065D01*
X161386888Y-94061500D01*
X162463112Y-94061500D01*
X162509468Y-94066065D01*
X162509468Y-94066065D01*
G37*
G36*
X197536000Y-94983500D02*
G01*
X195529000Y-94983500D01*
X195529000Y-92976500D01*
X197536000Y-92976500D01*
X197536000Y-94983500D01*
X197536000Y-94983500D01*
G37*
G36*
X194118925Y-92981988D02*
G01*
X194285210Y-93015063D01*
X194467836Y-93090709D01*
X194632194Y-93200530D01*
X194771970Y-93340306D01*
X194881791Y-93504664D01*
X194957437Y-93687290D01*
X194996000Y-93881164D01*
X194996000Y-94078836D01*
X194957437Y-94272710D01*
X194881791Y-94455336D01*
X194771970Y-94619694D01*
X194632194Y-94759470D01*
X194467836Y-94869291D01*
X194285210Y-94944937D01*
X194118925Y-94978012D01*
X194091337Y-94983500D01*
X193893663Y-94983500D01*
X193866075Y-94978012D01*
X193699790Y-94944937D01*
X193517164Y-94869291D01*
X193352806Y-94759470D01*
X193213030Y-94619694D01*
X193103209Y-94455336D01*
X193027563Y-94272710D01*
X192989000Y-94078836D01*
X192989000Y-93881164D01*
X193027563Y-93687290D01*
X193103209Y-93504664D01*
X193213030Y-93340306D01*
X193352806Y-93200530D01*
X193517164Y-93090709D01*
X193699790Y-93015063D01*
X193866075Y-92981988D01*
X193893663Y-92976500D01*
X194091337Y-92976500D01*
X194118925Y-92981988D01*
X194118925Y-92981988D01*
G37*
G36*
X175068925Y-92981988D02*
G01*
X175235210Y-93015063D01*
X175417836Y-93090709D01*
X175582194Y-93200530D01*
X175721970Y-93340306D01*
X175831791Y-93504664D01*
X175907437Y-93687290D01*
X175946000Y-93881164D01*
X175946000Y-94078836D01*
X175907437Y-94272710D01*
X175831791Y-94455336D01*
X175721970Y-94619694D01*
X175582194Y-94759470D01*
X175417836Y-94869291D01*
X175235210Y-94944937D01*
X175068925Y-94978012D01*
X175041337Y-94983500D01*
X174843663Y-94983500D01*
X174816075Y-94978012D01*
X174649790Y-94944937D01*
X174467164Y-94869291D01*
X174302806Y-94759470D01*
X174163030Y-94619694D01*
X174053209Y-94455336D01*
X173977563Y-94272710D01*
X173939000Y-94078836D01*
X173939000Y-93881164D01*
X173977563Y-93687290D01*
X174053209Y-93504664D01*
X174163030Y-93340306D01*
X174302806Y-93200530D01*
X174467164Y-93090709D01*
X174649790Y-93015063D01*
X174816075Y-92981988D01*
X174843663Y-92976500D01*
X175041337Y-92976500D01*
X175068925Y-92981988D01*
X175068925Y-92981988D01*
G37*
G36*
X178486000Y-94983500D02*
G01*
X176479000Y-94983500D01*
X176479000Y-92976500D01*
X178486000Y-92976500D01*
X178486000Y-94983500D01*
X178486000Y-94983500D01*
G37*
G36*
X156726000Y-93526000D02*
G01*
X148074000Y-93526000D01*
X148074000Y-91924000D01*
X156726000Y-91924000D01*
X156726000Y-93526000D01*
X156726000Y-93526000D01*
G37*
G36*
X162509468Y-92191065D02*
G01*
X162548138Y-92202796D01*
X162583777Y-92221846D01*
X162615017Y-92247483D01*
X162640654Y-92278723D01*
X162659704Y-92314362D01*
X162671435Y-92353032D01*
X162676000Y-92399388D01*
X162676000Y-93050612D01*
X162671435Y-93096968D01*
X162659704Y-93135638D01*
X162640654Y-93171277D01*
X162615017Y-93202517D01*
X162583777Y-93228154D01*
X162548138Y-93247204D01*
X162509468Y-93258935D01*
X162463112Y-93263500D01*
X161386888Y-93263500D01*
X161340532Y-93258935D01*
X161301862Y-93247204D01*
X161266223Y-93228154D01*
X161234983Y-93202517D01*
X161209346Y-93171277D01*
X161190296Y-93135638D01*
X161178565Y-93096968D01*
X161174000Y-93050612D01*
X161174000Y-92399388D01*
X161178565Y-92353032D01*
X161190296Y-92314362D01*
X161209346Y-92278723D01*
X161234983Y-92247483D01*
X161266223Y-92221846D01*
X161301862Y-92202796D01*
X161340532Y-92191065D01*
X161386888Y-92186500D01*
X162463112Y-92186500D01*
X162509468Y-92191065D01*
X162509468Y-92191065D01*
G37*
G36*
X134315468Y-91208565D02*
G01*
X134354138Y-91220296D01*
X134389777Y-91239346D01*
X134421017Y-91264983D01*
X134446654Y-91296223D01*
X134465704Y-91331862D01*
X134477435Y-91370532D01*
X134482000Y-91416888D01*
X134482000Y-92068112D01*
X134477435Y-92114468D01*
X134465704Y-92153138D01*
X134446654Y-92188777D01*
X134421017Y-92220017D01*
X134389777Y-92245654D01*
X134354138Y-92264704D01*
X134315468Y-92276435D01*
X134269112Y-92281000D01*
X133192888Y-92281000D01*
X133146532Y-92276435D01*
X133107862Y-92264704D01*
X133072223Y-92245654D01*
X133040983Y-92220017D01*
X133015346Y-92188777D01*
X132996296Y-92153138D01*
X132984565Y-92114468D01*
X132980000Y-92068112D01*
X132980000Y-91416888D01*
X132984565Y-91370532D01*
X132996296Y-91331862D01*
X133015346Y-91296223D01*
X133040983Y-91264983D01*
X133072223Y-91239346D01*
X133107862Y-91220296D01*
X133146532Y-91208565D01*
X133192888Y-91204000D01*
X134269112Y-91204000D01*
X134315468Y-91208565D01*
X134315468Y-91208565D01*
G37*
G36*
X130981718Y-91208565D02*
G01*
X131020388Y-91220296D01*
X131056027Y-91239346D01*
X131087267Y-91264983D01*
X131112904Y-91296223D01*
X131131954Y-91331862D01*
X131143685Y-91370532D01*
X131148250Y-91416888D01*
X131148250Y-92068112D01*
X131143685Y-92114468D01*
X131131954Y-92153138D01*
X131112904Y-92188777D01*
X131087267Y-92220017D01*
X131056027Y-92245654D01*
X131020388Y-92264704D01*
X130981718Y-92276435D01*
X130935362Y-92281000D01*
X129859138Y-92281000D01*
X129812782Y-92276435D01*
X129774112Y-92264704D01*
X129738473Y-92245654D01*
X129707233Y-92220017D01*
X129681596Y-92188777D01*
X129662546Y-92153138D01*
X129650815Y-92114468D01*
X129646250Y-92068112D01*
X129646250Y-91416888D01*
X129650815Y-91370532D01*
X129662546Y-91331862D01*
X129681596Y-91296223D01*
X129707233Y-91264983D01*
X129738473Y-91239346D01*
X129774112Y-91220296D01*
X129812782Y-91208565D01*
X129859138Y-91204000D01*
X130935362Y-91204000D01*
X130981718Y-91208565D01*
X130981718Y-91208565D01*
G37*
G36*
X144253218Y-90097315D02*
G01*
X144291888Y-90109046D01*
X144327527Y-90128096D01*
X144358767Y-90153733D01*
X144384404Y-90184973D01*
X144403454Y-90220612D01*
X144415185Y-90259282D01*
X144419750Y-90305638D01*
X144419750Y-90956862D01*
X144415185Y-91003218D01*
X144403454Y-91041888D01*
X144384404Y-91077527D01*
X144358767Y-91108767D01*
X144327527Y-91134404D01*
X144291888Y-91153454D01*
X144253218Y-91165185D01*
X144206862Y-91169750D01*
X143130638Y-91169750D01*
X143084282Y-91165185D01*
X143045612Y-91153454D01*
X143009973Y-91134404D01*
X142978733Y-91108767D01*
X142953096Y-91077527D01*
X142934046Y-91041888D01*
X142922315Y-91003218D01*
X142917750Y-90956862D01*
X142917750Y-90305638D01*
X142922315Y-90259282D01*
X142934046Y-90220612D01*
X142953096Y-90184973D01*
X142978733Y-90153733D01*
X143009973Y-90128096D01*
X143045612Y-90109046D01*
X143084282Y-90097315D01*
X143130638Y-90092750D01*
X144206862Y-90092750D01*
X144253218Y-90097315D01*
X144253218Y-90097315D01*
G37*
G36*
X141078218Y-90097315D02*
G01*
X141116888Y-90109046D01*
X141152527Y-90128096D01*
X141183767Y-90153733D01*
X141209404Y-90184973D01*
X141228454Y-90220612D01*
X141240185Y-90259282D01*
X141244750Y-90305638D01*
X141244750Y-90956862D01*
X141240185Y-91003218D01*
X141228454Y-91041888D01*
X141209404Y-91077527D01*
X141183767Y-91108767D01*
X141152527Y-91134404D01*
X141116888Y-91153454D01*
X141078218Y-91165185D01*
X141031862Y-91169750D01*
X139955638Y-91169750D01*
X139909282Y-91165185D01*
X139870612Y-91153454D01*
X139834973Y-91134404D01*
X139803733Y-91108767D01*
X139778096Y-91077527D01*
X139759046Y-91041888D01*
X139747315Y-91003218D01*
X139742750Y-90956862D01*
X139742750Y-90305638D01*
X139747315Y-90259282D01*
X139759046Y-90220612D01*
X139778096Y-90184973D01*
X139803733Y-90153733D01*
X139834973Y-90128096D01*
X139870612Y-90109046D01*
X139909282Y-90097315D01*
X139955638Y-90092750D01*
X141031862Y-90092750D01*
X141078218Y-90097315D01*
X141078218Y-90097315D01*
G37*
G36*
X203851000Y-91051000D02*
G01*
X202549000Y-91051000D01*
X202549000Y-90049000D01*
X203851000Y-90049000D01*
X203851000Y-91051000D01*
X203851000Y-91051000D01*
G37*
G36*
X184801000Y-91051000D02*
G01*
X183499000Y-91051000D01*
X183499000Y-90049000D01*
X184801000Y-90049000D01*
X184801000Y-91051000D01*
X184801000Y-91051000D01*
G37*
G36*
X195858974Y-86933684D02*
G01*
X196076974Y-87023983D01*
X196231123Y-87087833D01*
X196566048Y-87311623D01*
X196850877Y-87596452D01*
X197074667Y-87931377D01*
X197107062Y-88009586D01*
X197228816Y-88303526D01*
X197307400Y-88698594D01*
X197307400Y-89101406D01*
X197228816Y-89496474D01*
X197177951Y-89619272D01*
X197074667Y-89868623D01*
X196850877Y-90203548D01*
X196566048Y-90488377D01*
X196231123Y-90712167D01*
X196076974Y-90776017D01*
X195858974Y-90866316D01*
X195463906Y-90944900D01*
X195061094Y-90944900D01*
X194666026Y-90866316D01*
X194448026Y-90776017D01*
X194293877Y-90712167D01*
X193958952Y-90488377D01*
X193674123Y-90203548D01*
X193450333Y-89868623D01*
X193347049Y-89619272D01*
X193296184Y-89496474D01*
X193217600Y-89101406D01*
X193217600Y-88698594D01*
X193296184Y-88303526D01*
X193417938Y-88009586D01*
X193450333Y-87931377D01*
X193674123Y-87596452D01*
X193958952Y-87311623D01*
X194293877Y-87087833D01*
X194448026Y-87023983D01*
X194666026Y-86933684D01*
X195061094Y-86855100D01*
X195463906Y-86855100D01*
X195858974Y-86933684D01*
X195858974Y-86933684D01*
G37*
G36*
X176808974Y-86933684D02*
G01*
X177026974Y-87023983D01*
X177181123Y-87087833D01*
X177516048Y-87311623D01*
X177800877Y-87596452D01*
X178024667Y-87931377D01*
X178057062Y-88009586D01*
X178178816Y-88303526D01*
X178257400Y-88698594D01*
X178257400Y-89101406D01*
X178178816Y-89496474D01*
X178127951Y-89619272D01*
X178024667Y-89868623D01*
X177800877Y-90203548D01*
X177516048Y-90488377D01*
X177181123Y-90712167D01*
X177026974Y-90776017D01*
X176808974Y-90866316D01*
X176413906Y-90944900D01*
X176011094Y-90944900D01*
X175616026Y-90866316D01*
X175398026Y-90776017D01*
X175243877Y-90712167D01*
X174908952Y-90488377D01*
X174624123Y-90203548D01*
X174400333Y-89868623D01*
X174297049Y-89619272D01*
X174246184Y-89496474D01*
X174167600Y-89101406D01*
X174167600Y-88698594D01*
X174246184Y-88303526D01*
X174367938Y-88009586D01*
X174400333Y-87931377D01*
X174624123Y-87596452D01*
X174908952Y-87311623D01*
X175243877Y-87087833D01*
X175398026Y-87023983D01*
X175616026Y-86933684D01*
X176011094Y-86855100D01*
X176413906Y-86855100D01*
X176808974Y-86933684D01*
X176808974Y-86933684D01*
G37*
G36*
X134315468Y-89333565D02*
G01*
X134354138Y-89345296D01*
X134389777Y-89364346D01*
X134421017Y-89389983D01*
X134446654Y-89421223D01*
X134465704Y-89456862D01*
X134477435Y-89495532D01*
X134482000Y-89541888D01*
X134482000Y-90193112D01*
X134477435Y-90239468D01*
X134465704Y-90278138D01*
X134446654Y-90313777D01*
X134421017Y-90345017D01*
X134389777Y-90370654D01*
X134354138Y-90389704D01*
X134315468Y-90401435D01*
X134269112Y-90406000D01*
X133192888Y-90406000D01*
X133146532Y-90401435D01*
X133107862Y-90389704D01*
X133072223Y-90370654D01*
X133040983Y-90345017D01*
X133015346Y-90313777D01*
X132996296Y-90278138D01*
X132984565Y-90239468D01*
X132980000Y-90193112D01*
X132980000Y-89541888D01*
X132984565Y-89495532D01*
X132996296Y-89456862D01*
X133015346Y-89421223D01*
X133040983Y-89389983D01*
X133072223Y-89364346D01*
X133107862Y-89345296D01*
X133146532Y-89333565D01*
X133192888Y-89329000D01*
X134269112Y-89329000D01*
X134315468Y-89333565D01*
X134315468Y-89333565D01*
G37*
G36*
X130981718Y-89333565D02*
G01*
X131020388Y-89345296D01*
X131056027Y-89364346D01*
X131087267Y-89389983D01*
X131112904Y-89421223D01*
X131131954Y-89456862D01*
X131143685Y-89495532D01*
X131148250Y-89541888D01*
X131148250Y-90193112D01*
X131143685Y-90239468D01*
X131131954Y-90278138D01*
X131112904Y-90313777D01*
X131087267Y-90345017D01*
X131056027Y-90370654D01*
X131020388Y-90389704D01*
X130981718Y-90401435D01*
X130935362Y-90406000D01*
X129859138Y-90406000D01*
X129812782Y-90401435D01*
X129774112Y-90389704D01*
X129738473Y-90370654D01*
X129707233Y-90345017D01*
X129681596Y-90313777D01*
X129662546Y-90278138D01*
X129650815Y-90239468D01*
X129646250Y-90193112D01*
X129646250Y-89541888D01*
X129650815Y-89495532D01*
X129662546Y-89456862D01*
X129681596Y-89421223D01*
X129707233Y-89389983D01*
X129738473Y-89364346D01*
X129774112Y-89345296D01*
X129812782Y-89333565D01*
X129859138Y-89329000D01*
X130935362Y-89329000D01*
X130981718Y-89333565D01*
X130981718Y-89333565D01*
G37*
G36*
X200612604Y-88009585D02*
G01*
X200781126Y-88079389D01*
X200932791Y-88180728D01*
X201061772Y-88309709D01*
X201163111Y-88461374D01*
X201232915Y-88629896D01*
X201268500Y-88808797D01*
X201268500Y-88991203D01*
X201232915Y-89170104D01*
X201163111Y-89338626D01*
X201061772Y-89490291D01*
X200932791Y-89619272D01*
X200781126Y-89720611D01*
X200612604Y-89790415D01*
X200433703Y-89826000D01*
X200251297Y-89826000D01*
X200072396Y-89790415D01*
X199903874Y-89720611D01*
X199752209Y-89619272D01*
X199623228Y-89490291D01*
X199521889Y-89338626D01*
X199452085Y-89170104D01*
X199416500Y-88991203D01*
X199416500Y-88808797D01*
X199452085Y-88629896D01*
X199521889Y-88461374D01*
X199623228Y-88309709D01*
X199752209Y-88180728D01*
X199903874Y-88079389D01*
X200072396Y-88009585D01*
X200251297Y-87974000D01*
X200433703Y-87974000D01*
X200612604Y-88009585D01*
X200612604Y-88009585D01*
G37*
G36*
X190452604Y-88009585D02*
G01*
X190621126Y-88079389D01*
X190772791Y-88180728D01*
X190901772Y-88309709D01*
X191003111Y-88461374D01*
X191072915Y-88629896D01*
X191108500Y-88808797D01*
X191108500Y-88991203D01*
X191072915Y-89170104D01*
X191003111Y-89338626D01*
X190901772Y-89490291D01*
X190772791Y-89619272D01*
X190621126Y-89720611D01*
X190452604Y-89790415D01*
X190273703Y-89826000D01*
X190091297Y-89826000D01*
X189912396Y-89790415D01*
X189743874Y-89720611D01*
X189592209Y-89619272D01*
X189463228Y-89490291D01*
X189361889Y-89338626D01*
X189292085Y-89170104D01*
X189256500Y-88991203D01*
X189256500Y-88808797D01*
X189292085Y-88629896D01*
X189361889Y-88461374D01*
X189463228Y-88309709D01*
X189592209Y-88180728D01*
X189743874Y-88079389D01*
X189912396Y-88009585D01*
X190091297Y-87974000D01*
X190273703Y-87974000D01*
X190452604Y-88009585D01*
X190452604Y-88009585D01*
G37*
G36*
X171402604Y-88009585D02*
G01*
X171571126Y-88079389D01*
X171722791Y-88180728D01*
X171851772Y-88309709D01*
X171953111Y-88461374D01*
X172022915Y-88629896D01*
X172058500Y-88808797D01*
X172058500Y-88991203D01*
X172022915Y-89170104D01*
X171953111Y-89338626D01*
X171851772Y-89490291D01*
X171722791Y-89619272D01*
X171571126Y-89720611D01*
X171402604Y-89790415D01*
X171223703Y-89826000D01*
X171041297Y-89826000D01*
X170862396Y-89790415D01*
X170693874Y-89720611D01*
X170542209Y-89619272D01*
X170413228Y-89490291D01*
X170311889Y-89338626D01*
X170242085Y-89170104D01*
X170206500Y-88991203D01*
X170206500Y-88808797D01*
X170242085Y-88629896D01*
X170311889Y-88461374D01*
X170413228Y-88309709D01*
X170542209Y-88180728D01*
X170693874Y-88079389D01*
X170862396Y-88009585D01*
X171041297Y-87974000D01*
X171223703Y-87974000D01*
X171402604Y-88009585D01*
X171402604Y-88009585D01*
G37*
G36*
X181562604Y-88009585D02*
G01*
X181731126Y-88079389D01*
X181882791Y-88180728D01*
X182011772Y-88309709D01*
X182113111Y-88461374D01*
X182182915Y-88629896D01*
X182218500Y-88808797D01*
X182218500Y-88991203D01*
X182182915Y-89170104D01*
X182113111Y-89338626D01*
X182011772Y-89490291D01*
X181882791Y-89619272D01*
X181731126Y-89720611D01*
X181562604Y-89790415D01*
X181383703Y-89826000D01*
X181201297Y-89826000D01*
X181022396Y-89790415D01*
X180853874Y-89720611D01*
X180702209Y-89619272D01*
X180573228Y-89490291D01*
X180471889Y-89338626D01*
X180402085Y-89170104D01*
X180366500Y-88991203D01*
X180366500Y-88808797D01*
X180402085Y-88629896D01*
X180471889Y-88461374D01*
X180573228Y-88309709D01*
X180702209Y-88180728D01*
X180853874Y-88079389D01*
X181022396Y-88009585D01*
X181201297Y-87974000D01*
X181383703Y-87974000D01*
X181562604Y-88009585D01*
X181562604Y-88009585D01*
G37*
G36*
X141078218Y-88222315D02*
G01*
X141116888Y-88234046D01*
X141152527Y-88253096D01*
X141183767Y-88278733D01*
X141209404Y-88309973D01*
X141228454Y-88345612D01*
X141240185Y-88384282D01*
X141244750Y-88430638D01*
X141244750Y-89081862D01*
X141240185Y-89128218D01*
X141228454Y-89166888D01*
X141209404Y-89202527D01*
X141183767Y-89233767D01*
X141152527Y-89259404D01*
X141116888Y-89278454D01*
X141078218Y-89290185D01*
X141031862Y-89294750D01*
X139955638Y-89294750D01*
X139909282Y-89290185D01*
X139870612Y-89278454D01*
X139834973Y-89259404D01*
X139803733Y-89233767D01*
X139778096Y-89202527D01*
X139759046Y-89166888D01*
X139747315Y-89128218D01*
X139742750Y-89081862D01*
X139742750Y-88430638D01*
X139747315Y-88384282D01*
X139759046Y-88345612D01*
X139778096Y-88309973D01*
X139803733Y-88278733D01*
X139834973Y-88253096D01*
X139870612Y-88234046D01*
X139909282Y-88222315D01*
X139955638Y-88217750D01*
X141031862Y-88217750D01*
X141078218Y-88222315D01*
X141078218Y-88222315D01*
G37*
G36*
X144253218Y-88222315D02*
G01*
X144291888Y-88234046D01*
X144327527Y-88253096D01*
X144358767Y-88278733D01*
X144384404Y-88309973D01*
X144403454Y-88345612D01*
X144415185Y-88384282D01*
X144419750Y-88430638D01*
X144419750Y-89081862D01*
X144415185Y-89128218D01*
X144403454Y-89166888D01*
X144384404Y-89202527D01*
X144358767Y-89233767D01*
X144327527Y-89259404D01*
X144291888Y-89278454D01*
X144253218Y-89290185D01*
X144206862Y-89294750D01*
X143130638Y-89294750D01*
X143084282Y-89290185D01*
X143045612Y-89278454D01*
X143009973Y-89259404D01*
X142978733Y-89233767D01*
X142953096Y-89202527D01*
X142934046Y-89166888D01*
X142922315Y-89128218D01*
X142917750Y-89081862D01*
X142917750Y-88430638D01*
X142922315Y-88384282D01*
X142934046Y-88345612D01*
X142953096Y-88309973D01*
X142978733Y-88278733D01*
X143009973Y-88253096D01*
X143045612Y-88234046D01*
X143084282Y-88222315D01*
X143130638Y-88217750D01*
X144206862Y-88217750D01*
X144253218Y-88222315D01*
X144253218Y-88222315D01*
G37*
G36*
X203851000Y-87751000D02*
G01*
X202549000Y-87751000D01*
X202549000Y-86749000D01*
X203851000Y-86749000D01*
X203851000Y-87751000D01*
X203851000Y-87751000D01*
G37*
G36*
X184801000Y-87751000D02*
G01*
X183499000Y-87751000D01*
X183499000Y-86749000D01*
X184801000Y-86749000D01*
X184801000Y-87751000D01*
X184801000Y-87751000D01*
G37*
G36*
X192785705Y-83723881D02*
G01*
X192791145Y-83724000D01*
X192878328Y-83724000D01*
X192894597Y-83727236D01*
X192913456Y-83729515D01*
X192930032Y-83730246D01*
X193014723Y-83751010D01*
X193020018Y-83752184D01*
X193105527Y-83769193D01*
X193120862Y-83775545D01*
X193138901Y-83781455D01*
X193155021Y-83785407D01*
X193234004Y-83822280D01*
X193238994Y-83824477D01*
X193319545Y-83857842D01*
X193333341Y-83867060D01*
X193349893Y-83876382D01*
X193364926Y-83883400D01*
X193435194Y-83934971D01*
X193439692Y-83938122D01*
X193512156Y-83986541D01*
X193523883Y-83998268D01*
X193538309Y-84010648D01*
X193551679Y-84020461D01*
X193551680Y-84020462D01*
X193610521Y-84084733D01*
X193614329Y-84088714D01*
X193675959Y-84150344D01*
X193685174Y-84164135D01*
X193696896Y-84179078D01*
X193708105Y-84191321D01*
X193753299Y-84265874D01*
X193756246Y-84270501D01*
X193804658Y-84342955D01*
X193811005Y-84358277D01*
X193819592Y-84375231D01*
X193828191Y-84389417D01*
X193857978Y-84471368D01*
X193859952Y-84476448D01*
X193893307Y-84556973D01*
X193893307Y-84556974D01*
X193896541Y-84573233D01*
X193901658Y-84591542D01*
X193907325Y-84607134D01*
X193920555Y-84693345D01*
X193921501Y-84698713D01*
X193938500Y-84784173D01*
X193938500Y-84800752D01*
X193939944Y-84819692D01*
X193942463Y-84836104D01*
X193938620Y-84923249D01*
X193938500Y-84928689D01*
X193938500Y-85015825D01*
X193935266Y-85032083D01*
X193932988Y-85050941D01*
X193932256Y-85067531D01*
X193911488Y-85152237D01*
X193910312Y-85157537D01*
X193893307Y-85243027D01*
X193886957Y-85258357D01*
X193881049Y-85276393D01*
X193877095Y-85292520D01*
X193840211Y-85371526D01*
X193838011Y-85376523D01*
X193804658Y-85457045D01*
X193795444Y-85470835D01*
X193786122Y-85487387D01*
X193779102Y-85502424D01*
X193727511Y-85572720D01*
X193724366Y-85577210D01*
X193675961Y-85649654D01*
X193618960Y-85706655D01*
X193614311Y-85711563D01*
X193182811Y-86192470D01*
X192289223Y-87188376D01*
X192161179Y-87305602D01*
X192062131Y-87365645D01*
X191963083Y-87425689D01*
X191745366Y-87504823D01*
X191516395Y-87539961D01*
X191284970Y-87529754D01*
X191059981Y-87474593D01*
X190955227Y-87425689D01*
X190850079Y-87376602D01*
X190753338Y-87305602D01*
X190663323Y-87239539D01*
X190588894Y-87158241D01*
X190506898Y-87068679D01*
X190425064Y-86933685D01*
X190386811Y-86870583D01*
X190307677Y-86652866D01*
X190272539Y-86423895D01*
X190282746Y-86192470D01*
X190337907Y-85967481D01*
X190389472Y-85857028D01*
X190435898Y-85757580D01*
X190435900Y-85757577D01*
X190538614Y-85617622D01*
X191227933Y-84849375D01*
X191825287Y-84183621D01*
X191836181Y-84169589D01*
X191849039Y-84150346D01*
X191906073Y-84093312D01*
X191910723Y-84088403D01*
X191925778Y-84071624D01*
X191947201Y-84052011D01*
X191951182Y-84048203D01*
X192012846Y-83986539D01*
X192026643Y-83977320D01*
X192041602Y-83965585D01*
X192053821Y-83954398D01*
X192085885Y-83934961D01*
X192128330Y-83909231D01*
X192132921Y-83906308D01*
X192205455Y-83857842D01*
X192220800Y-83851486D01*
X192237748Y-83842901D01*
X192251916Y-83834312D01*
X192251917Y-83834312D01*
X192251918Y-83834311D01*
X192333812Y-83804545D01*
X192338910Y-83802563D01*
X192419473Y-83769193D01*
X192435752Y-83765955D01*
X192454042Y-83760844D01*
X192469635Y-83755177D01*
X192555800Y-83741954D01*
X192561163Y-83741009D01*
X192646673Y-83724000D01*
X192663266Y-83724000D01*
X192682209Y-83722555D01*
X192698606Y-83720039D01*
X192785705Y-83723881D01*
X192785705Y-83723881D01*
G37*
G36*
X173735705Y-83723881D02*
G01*
X173741145Y-83724000D01*
X173828328Y-83724000D01*
X173844597Y-83727236D01*
X173863456Y-83729515D01*
X173880032Y-83730246D01*
X173964723Y-83751010D01*
X173970018Y-83752184D01*
X174055527Y-83769193D01*
X174070862Y-83775545D01*
X174088901Y-83781455D01*
X174105021Y-83785407D01*
X174184004Y-83822280D01*
X174188994Y-83824477D01*
X174269545Y-83857842D01*
X174283341Y-83867060D01*
X174299893Y-83876382D01*
X174314926Y-83883400D01*
X174385194Y-83934971D01*
X174389692Y-83938122D01*
X174462156Y-83986541D01*
X174473883Y-83998268D01*
X174488309Y-84010648D01*
X174501679Y-84020461D01*
X174501680Y-84020462D01*
X174560521Y-84084733D01*
X174564329Y-84088714D01*
X174625959Y-84150344D01*
X174635174Y-84164135D01*
X174646896Y-84179078D01*
X174658105Y-84191321D01*
X174703299Y-84265874D01*
X174706246Y-84270501D01*
X174754658Y-84342955D01*
X174761005Y-84358277D01*
X174769592Y-84375231D01*
X174778191Y-84389417D01*
X174807978Y-84471368D01*
X174809952Y-84476448D01*
X174843307Y-84556973D01*
X174843307Y-84556974D01*
X174846541Y-84573233D01*
X174851658Y-84591542D01*
X174857325Y-84607134D01*
X174870555Y-84693345D01*
X174871501Y-84698713D01*
X174888500Y-84784173D01*
X174888500Y-84800752D01*
X174889944Y-84819692D01*
X174892463Y-84836104D01*
X174888620Y-84923249D01*
X174888500Y-84928689D01*
X174888500Y-85015825D01*
X174885266Y-85032083D01*
X174882988Y-85050941D01*
X174882256Y-85067531D01*
X174861488Y-85152237D01*
X174860312Y-85157537D01*
X174843307Y-85243027D01*
X174836957Y-85258357D01*
X174831049Y-85276393D01*
X174827095Y-85292520D01*
X174790211Y-85371526D01*
X174788011Y-85376523D01*
X174754658Y-85457045D01*
X174745444Y-85470835D01*
X174736122Y-85487387D01*
X174729102Y-85502424D01*
X174677511Y-85572720D01*
X174674366Y-85577210D01*
X174625961Y-85649654D01*
X174568960Y-85706655D01*
X174564311Y-85711563D01*
X174132811Y-86192470D01*
X173239223Y-87188376D01*
X173111179Y-87305602D01*
X173012131Y-87365645D01*
X172913083Y-87425689D01*
X172695366Y-87504823D01*
X172466395Y-87539961D01*
X172234970Y-87529754D01*
X172009981Y-87474593D01*
X171905227Y-87425689D01*
X171800079Y-87376602D01*
X171703338Y-87305602D01*
X171613323Y-87239539D01*
X171538894Y-87158241D01*
X171456898Y-87068679D01*
X171375064Y-86933685D01*
X171336811Y-86870583D01*
X171257677Y-86652866D01*
X171222539Y-86423895D01*
X171232746Y-86192470D01*
X171287907Y-85967481D01*
X171339472Y-85857028D01*
X171385898Y-85757580D01*
X171385900Y-85757577D01*
X171488614Y-85617622D01*
X172177933Y-84849375D01*
X172775287Y-84183621D01*
X172786181Y-84169589D01*
X172799039Y-84150346D01*
X172856073Y-84093312D01*
X172860723Y-84088403D01*
X172875778Y-84071624D01*
X172897201Y-84052011D01*
X172901182Y-84048203D01*
X172962846Y-83986539D01*
X172976643Y-83977320D01*
X172991602Y-83965585D01*
X173003821Y-83954398D01*
X173035885Y-83934961D01*
X173078330Y-83909231D01*
X173082921Y-83906308D01*
X173155455Y-83857842D01*
X173170800Y-83851486D01*
X173187748Y-83842901D01*
X173201916Y-83834312D01*
X173201917Y-83834312D01*
X173201918Y-83834311D01*
X173283812Y-83804545D01*
X173288910Y-83802563D01*
X173369473Y-83769193D01*
X173385752Y-83765955D01*
X173404042Y-83760844D01*
X173419635Y-83755177D01*
X173505800Y-83741954D01*
X173511163Y-83741009D01*
X173596673Y-83724000D01*
X173613266Y-83724000D01*
X173632209Y-83722555D01*
X173648606Y-83720039D01*
X173735705Y-83723881D01*
X173735705Y-83723881D01*
G37*
G36*
X136287627Y-84138037D02*
G01*
X136457466Y-84189557D01*
X136613991Y-84273222D01*
X136649729Y-84302552D01*
X136751186Y-84385814D01*
X136821374Y-84471340D01*
X136863778Y-84523009D01*
X136947443Y-84679534D01*
X136998963Y-84849373D01*
X136998963Y-84849375D01*
X137012000Y-84981740D01*
X137012000Y-86070260D01*
X137005481Y-86136443D01*
X136998963Y-86202627D01*
X136947443Y-86372466D01*
X136863778Y-86528991D01*
X136834448Y-86564729D01*
X136751186Y-86666186D01*
X136613989Y-86778779D01*
X136471203Y-86855100D01*
X136457465Y-86862443D01*
X136287626Y-86913963D01*
X136111000Y-86931359D01*
X135934373Y-86913963D01*
X135764534Y-86862443D01*
X135608009Y-86778778D01*
X135571725Y-86749000D01*
X135470814Y-86666186D01*
X135358221Y-86528989D01*
X135274558Y-86372467D01*
X135274557Y-86372465D01*
X135223037Y-86202626D01*
X135216519Y-86136442D01*
X135210000Y-86070259D01*
X135210001Y-84981740D01*
X135223038Y-84849375D01*
X135223038Y-84849373D01*
X135274558Y-84679534D01*
X135358223Y-84523009D01*
X135400627Y-84471340D01*
X135470815Y-84385814D01*
X135572272Y-84302552D01*
X135608010Y-84273222D01*
X135764535Y-84189557D01*
X135934374Y-84138037D01*
X136111000Y-84120641D01*
X136287627Y-84138037D01*
X136287627Y-84138037D01*
G37*
G36*
X128987627Y-84138037D02*
G01*
X129157466Y-84189557D01*
X129313991Y-84273222D01*
X129349729Y-84302552D01*
X129451186Y-84385814D01*
X129521374Y-84471340D01*
X129563778Y-84523009D01*
X129647443Y-84679534D01*
X129698963Y-84849373D01*
X129698963Y-84849375D01*
X129712000Y-84981740D01*
X129712000Y-86070260D01*
X129705481Y-86136443D01*
X129698963Y-86202627D01*
X129647443Y-86372466D01*
X129563778Y-86528991D01*
X129534448Y-86564729D01*
X129451186Y-86666186D01*
X129313989Y-86778779D01*
X129171203Y-86855100D01*
X129157465Y-86862443D01*
X128987626Y-86913963D01*
X128811000Y-86931359D01*
X128634373Y-86913963D01*
X128464534Y-86862443D01*
X128308009Y-86778778D01*
X128271725Y-86749000D01*
X128170814Y-86666186D01*
X128058221Y-86528989D01*
X127974558Y-86372467D01*
X127974557Y-86372465D01*
X127923037Y-86202626D01*
X127916519Y-86136442D01*
X127910000Y-86070259D01*
X127910001Y-84981740D01*
X127923038Y-84849375D01*
X127923038Y-84849373D01*
X127974558Y-84679534D01*
X128058223Y-84523009D01*
X128100627Y-84471340D01*
X128170815Y-84385814D01*
X128272272Y-84302552D01*
X128308010Y-84273222D01*
X128464535Y-84189557D01*
X128634374Y-84138037D01*
X128811000Y-84120641D01*
X128987627Y-84138037D01*
X128987627Y-84138037D01*
G37*
G36*
X134362000Y-86702000D02*
G01*
X130560000Y-86702000D01*
X130560000Y-84350000D01*
X134362000Y-84350000D01*
X134362000Y-86702000D01*
X134362000Y-86702000D01*
G37*
G36*
X154251000Y-85638500D02*
G01*
X152749000Y-85638500D01*
X152749000Y-84336500D01*
X154251000Y-84336500D01*
X154251000Y-85638500D01*
X154251000Y-85638500D01*
G37*
G36*
X152051000Y-85638500D02*
G01*
X150549000Y-85638500D01*
X150549000Y-84336500D01*
X152051000Y-84336500D01*
X152051000Y-85638500D01*
X152051000Y-85638500D01*
G37*
G36*
X156953218Y-84541065D02*
G01*
X156991888Y-84552796D01*
X157027527Y-84571846D01*
X157058767Y-84597483D01*
X157084404Y-84628723D01*
X157103454Y-84664362D01*
X157115185Y-84703032D01*
X157119750Y-84749388D01*
X157119750Y-85400612D01*
X157115185Y-85446968D01*
X157103454Y-85485638D01*
X157084404Y-85521277D01*
X157058767Y-85552517D01*
X157027527Y-85578154D01*
X156991888Y-85597204D01*
X156953218Y-85608935D01*
X156906862Y-85613500D01*
X155830638Y-85613500D01*
X155784282Y-85608935D01*
X155745612Y-85597204D01*
X155709973Y-85578154D01*
X155678733Y-85552517D01*
X155653096Y-85521277D01*
X155634046Y-85485638D01*
X155622315Y-85446968D01*
X155617750Y-85400612D01*
X155617750Y-84749388D01*
X155622315Y-84703032D01*
X155634046Y-84664362D01*
X155653096Y-84628723D01*
X155678733Y-84597483D01*
X155709973Y-84571846D01*
X155745612Y-84552796D01*
X155784282Y-84541065D01*
X155830638Y-84536500D01*
X156906862Y-84536500D01*
X156953218Y-84541065D01*
X156953218Y-84541065D01*
G37*
G36*
X149015718Y-84541065D02*
G01*
X149054388Y-84552796D01*
X149090027Y-84571846D01*
X149121267Y-84597483D01*
X149146904Y-84628723D01*
X149165954Y-84664362D01*
X149177685Y-84703032D01*
X149182250Y-84749388D01*
X149182250Y-85400612D01*
X149177685Y-85446968D01*
X149165954Y-85485638D01*
X149146904Y-85521277D01*
X149121267Y-85552517D01*
X149090027Y-85578154D01*
X149054388Y-85597204D01*
X149015718Y-85608935D01*
X148969362Y-85613500D01*
X147893138Y-85613500D01*
X147846782Y-85608935D01*
X147808112Y-85597204D01*
X147772473Y-85578154D01*
X147741233Y-85552517D01*
X147715596Y-85521277D01*
X147696546Y-85485638D01*
X147684815Y-85446968D01*
X147680250Y-85400612D01*
X147680250Y-84749388D01*
X147684815Y-84703032D01*
X147696546Y-84664362D01*
X147715596Y-84628723D01*
X147741233Y-84597483D01*
X147772473Y-84571846D01*
X147808112Y-84552796D01*
X147846782Y-84541065D01*
X147893138Y-84536500D01*
X148969362Y-84536500D01*
X149015718Y-84541065D01*
X149015718Y-84541065D01*
G37*
G36*
X178840627Y-82642261D02*
G01*
X178861400Y-82644000D01*
X178868327Y-82644000D01*
X178963254Y-82662882D01*
X178966848Y-82663542D01*
X179062230Y-82679624D01*
X179068703Y-82682085D01*
X179088728Y-82687841D01*
X179095527Y-82689193D01*
X179138220Y-82706877D01*
X179184943Y-82726230D01*
X179188344Y-82727581D01*
X179278755Y-82761961D01*
X179284627Y-82765640D01*
X179303136Y-82775187D01*
X179309545Y-82777842D01*
X179390063Y-82831642D01*
X179393054Y-82833578D01*
X179475057Y-82884959D01*
X179480084Y-82889700D01*
X179496396Y-82902691D01*
X179502152Y-82906537D01*
X179570610Y-82974995D01*
X179573189Y-82977499D01*
X179643590Y-83043889D01*
X179647595Y-83049519D01*
X179661059Y-83065444D01*
X179665959Y-83070344D01*
X179719744Y-83150839D01*
X179721791Y-83153807D01*
X179777880Y-83232645D01*
X179780714Y-83238958D01*
X179790808Y-83257193D01*
X179794658Y-83262955D01*
X179831720Y-83352430D01*
X179833124Y-83355685D01*
X179872765Y-83443973D01*
X179874315Y-83450725D01*
X179880652Y-83470562D01*
X179883307Y-83476973D01*
X179902192Y-83571917D01*
X179902938Y-83575401D01*
X179924598Y-83669751D01*
X179924598Y-83669754D01*
X179924800Y-83676654D01*
X179927147Y-83697370D01*
X179928500Y-83704174D01*
X179928500Y-83800986D01*
X179928553Y-83804584D01*
X179929688Y-83843277D01*
X179928795Y-83856225D01*
X179928500Y-83864797D01*
X179928500Y-83935826D01*
X179922581Y-83965585D01*
X179922104Y-83967979D01*
X179920000Y-83983750D01*
X179881738Y-84538545D01*
X179852876Y-84709730D01*
X179770538Y-84926255D01*
X179647541Y-85122557D01*
X179488611Y-85291090D01*
X179299855Y-85425380D01*
X179088527Y-85520265D01*
X178862749Y-85572098D01*
X178631198Y-85578889D01*
X178631197Y-85578889D01*
X178567343Y-85568123D01*
X178402770Y-85540376D01*
X178186245Y-85458038D01*
X177989943Y-85335041D01*
X177821410Y-85176111D01*
X177687120Y-84987355D01*
X177592235Y-84776027D01*
X177540402Y-84550249D01*
X177535312Y-84376723D01*
X177576204Y-83783794D01*
X177576500Y-83775196D01*
X177576500Y-83704175D01*
X177581019Y-83681455D01*
X177595388Y-83609219D01*
X177596044Y-83605645D01*
X177601731Y-83571917D01*
X177612124Y-83510270D01*
X177614585Y-83503799D01*
X177620342Y-83483767D01*
X177621693Y-83476974D01*
X177624892Y-83469250D01*
X177658764Y-83387476D01*
X177660053Y-83384230D01*
X177694462Y-83293745D01*
X177698136Y-83287881D01*
X177707687Y-83269365D01*
X177710342Y-83262955D01*
X177764157Y-83182415D01*
X177766077Y-83179449D01*
X177817459Y-83097443D01*
X177822211Y-83092404D01*
X177835189Y-83076107D01*
X177839037Y-83070348D01*
X177907493Y-83001892D01*
X177910046Y-82999262D01*
X177930523Y-82977548D01*
X177976389Y-82928910D01*
X177982021Y-82924903D01*
X177997947Y-82911438D01*
X178002846Y-82906539D01*
X178083324Y-82852766D01*
X178086306Y-82850710D01*
X178165145Y-82794620D01*
X178171455Y-82791787D01*
X178189694Y-82781691D01*
X178195451Y-82777844D01*
X178195454Y-82777843D01*
X178195455Y-82777842D01*
X178284929Y-82740781D01*
X178288187Y-82739375D01*
X178376473Y-82699735D01*
X178383225Y-82698185D01*
X178403062Y-82691848D01*
X178409473Y-82689193D01*
X178504399Y-82670311D01*
X178507946Y-82669551D01*
X178602251Y-82647901D01*
X178604630Y-82647831D01*
X178609165Y-82647698D01*
X178629881Y-82645351D01*
X178636674Y-82644000D01*
X178733459Y-82644000D01*
X178737084Y-82643947D01*
X178833802Y-82641110D01*
X178840627Y-82642261D01*
X178840627Y-82642261D01*
G37*
G36*
X197890627Y-82642261D02*
G01*
X197911400Y-82644000D01*
X197918327Y-82644000D01*
X198013254Y-82662882D01*
X198016848Y-82663542D01*
X198112230Y-82679624D01*
X198118703Y-82682085D01*
X198138728Y-82687841D01*
X198145527Y-82689193D01*
X198188220Y-82706877D01*
X198234943Y-82726230D01*
X198238344Y-82727581D01*
X198328755Y-82761961D01*
X198334627Y-82765640D01*
X198353136Y-82775187D01*
X198359545Y-82777842D01*
X198440063Y-82831642D01*
X198443054Y-82833578D01*
X198525057Y-82884959D01*
X198530084Y-82889700D01*
X198546396Y-82902691D01*
X198552152Y-82906537D01*
X198620610Y-82974995D01*
X198623189Y-82977499D01*
X198693590Y-83043889D01*
X198697595Y-83049519D01*
X198711059Y-83065444D01*
X198715959Y-83070344D01*
X198769744Y-83150839D01*
X198771791Y-83153807D01*
X198827880Y-83232645D01*
X198830714Y-83238958D01*
X198840808Y-83257193D01*
X198844658Y-83262955D01*
X198881720Y-83352430D01*
X198883124Y-83355685D01*
X198922765Y-83443973D01*
X198924315Y-83450725D01*
X198930652Y-83470562D01*
X198933307Y-83476973D01*
X198952192Y-83571917D01*
X198952938Y-83575401D01*
X198974598Y-83669751D01*
X198974598Y-83669754D01*
X198974800Y-83676654D01*
X198977147Y-83697370D01*
X198978500Y-83704174D01*
X198978500Y-83800986D01*
X198978553Y-83804584D01*
X198979688Y-83843277D01*
X198978795Y-83856225D01*
X198978500Y-83864797D01*
X198978500Y-83935826D01*
X198972581Y-83965585D01*
X198972104Y-83967979D01*
X198970000Y-83983750D01*
X198931738Y-84538545D01*
X198902876Y-84709730D01*
X198820538Y-84926255D01*
X198697541Y-85122557D01*
X198538611Y-85291090D01*
X198349855Y-85425380D01*
X198138527Y-85520265D01*
X197912749Y-85572098D01*
X197681198Y-85578889D01*
X197681197Y-85578889D01*
X197617343Y-85568123D01*
X197452770Y-85540376D01*
X197236245Y-85458038D01*
X197039943Y-85335041D01*
X196871410Y-85176111D01*
X196737120Y-84987355D01*
X196642235Y-84776027D01*
X196590402Y-84550249D01*
X196585312Y-84376723D01*
X196626204Y-83783794D01*
X196626500Y-83775196D01*
X196626500Y-83704175D01*
X196631019Y-83681455D01*
X196645388Y-83609219D01*
X196646044Y-83605645D01*
X196651731Y-83571917D01*
X196662124Y-83510270D01*
X196664585Y-83503799D01*
X196670342Y-83483767D01*
X196671693Y-83476974D01*
X196674892Y-83469250D01*
X196708764Y-83387476D01*
X196710053Y-83384230D01*
X196744462Y-83293745D01*
X196748136Y-83287881D01*
X196757687Y-83269365D01*
X196760342Y-83262955D01*
X196814157Y-83182415D01*
X196816077Y-83179449D01*
X196867459Y-83097443D01*
X196872211Y-83092404D01*
X196885189Y-83076107D01*
X196889037Y-83070348D01*
X196957493Y-83001892D01*
X196960046Y-82999262D01*
X196980523Y-82977548D01*
X197026389Y-82928910D01*
X197032021Y-82924903D01*
X197047947Y-82911438D01*
X197052846Y-82906539D01*
X197133324Y-82852766D01*
X197136306Y-82850710D01*
X197215145Y-82794620D01*
X197221455Y-82791787D01*
X197239694Y-82781691D01*
X197245451Y-82777844D01*
X197245454Y-82777843D01*
X197245455Y-82777842D01*
X197334929Y-82740781D01*
X197338187Y-82739375D01*
X197426473Y-82699735D01*
X197433225Y-82698185D01*
X197453062Y-82691848D01*
X197459473Y-82689193D01*
X197554399Y-82670311D01*
X197557946Y-82669551D01*
X197652251Y-82647901D01*
X197654630Y-82647831D01*
X197659165Y-82647698D01*
X197679881Y-82645351D01*
X197686674Y-82644000D01*
X197783459Y-82644000D01*
X197787084Y-82643947D01*
X197883802Y-82641110D01*
X197890627Y-82642261D01*
X197890627Y-82642261D01*
G37*
G36*
X152051000Y-83938500D02*
G01*
X150549000Y-83938500D01*
X150549000Y-82636500D01*
X152051000Y-82636500D01*
X152051000Y-83938500D01*
X152051000Y-83938500D01*
G37*
G36*
X154251000Y-83938500D02*
G01*
X152749000Y-83938500D01*
X152749000Y-82636500D01*
X154251000Y-82636500D01*
X154251000Y-83938500D01*
X154251000Y-83938500D01*
G37*
G36*
X149015718Y-82666065D02*
G01*
X149054388Y-82677796D01*
X149090027Y-82696846D01*
X149121267Y-82722483D01*
X149146904Y-82753723D01*
X149165954Y-82789362D01*
X149177685Y-82828032D01*
X149182250Y-82874388D01*
X149182250Y-83525612D01*
X149177685Y-83571968D01*
X149165954Y-83610638D01*
X149146904Y-83646277D01*
X149121267Y-83677517D01*
X149090027Y-83703154D01*
X149054388Y-83722204D01*
X149015718Y-83733935D01*
X148969362Y-83738500D01*
X147893138Y-83738500D01*
X147846782Y-83733935D01*
X147808112Y-83722204D01*
X147772473Y-83703154D01*
X147741233Y-83677517D01*
X147715596Y-83646277D01*
X147696546Y-83610638D01*
X147684815Y-83571968D01*
X147680250Y-83525612D01*
X147680250Y-82874388D01*
X147684815Y-82828032D01*
X147696546Y-82789362D01*
X147715596Y-82753723D01*
X147741233Y-82722483D01*
X147772473Y-82696846D01*
X147808112Y-82677796D01*
X147846782Y-82666065D01*
X147893138Y-82661500D01*
X148969362Y-82661500D01*
X149015718Y-82666065D01*
X149015718Y-82666065D01*
G37*
G36*
X156953218Y-82666065D02*
G01*
X156991888Y-82677796D01*
X157027527Y-82696846D01*
X157058767Y-82722483D01*
X157084404Y-82753723D01*
X157103454Y-82789362D01*
X157115185Y-82828032D01*
X157119750Y-82874388D01*
X157119750Y-83525612D01*
X157115185Y-83571968D01*
X157103454Y-83610638D01*
X157084404Y-83646277D01*
X157058767Y-83677517D01*
X157027527Y-83703154D01*
X156991888Y-83722204D01*
X156953218Y-83733935D01*
X156906862Y-83738500D01*
X155830638Y-83738500D01*
X155784282Y-83733935D01*
X155745612Y-83722204D01*
X155709973Y-83703154D01*
X155678733Y-83677517D01*
X155653096Y-83646277D01*
X155634046Y-83610638D01*
X155622315Y-83571968D01*
X155617750Y-83525612D01*
X155617750Y-82874388D01*
X155622315Y-82828032D01*
X155634046Y-82789362D01*
X155653096Y-82753723D01*
X155678733Y-82722483D01*
X155709973Y-82696846D01*
X155745612Y-82677796D01*
X155784282Y-82666065D01*
X155830638Y-82661500D01*
X156906862Y-82661500D01*
X156953218Y-82666065D01*
X156953218Y-82666065D01*
G37*
G36*
X136287627Y-79638037D02*
G01*
X136457466Y-79689557D01*
X136613991Y-79773222D01*
X136649729Y-79802552D01*
X136751186Y-79885814D01*
X136834448Y-79987271D01*
X136863778Y-80023009D01*
X136947443Y-80179534D01*
X136998963Y-80349373D01*
X137012000Y-80481742D01*
X137012000Y-81570258D01*
X136998963Y-81702627D01*
X136947443Y-81872466D01*
X136863778Y-82028991D01*
X136834448Y-82064729D01*
X136751186Y-82166186D01*
X136613989Y-82278779D01*
X136457467Y-82362442D01*
X136457465Y-82362443D01*
X136287626Y-82413963D01*
X136111000Y-82431359D01*
X135934373Y-82413963D01*
X135764534Y-82362443D01*
X135608009Y-82278778D01*
X135572271Y-82249448D01*
X135470814Y-82166186D01*
X135358221Y-82028989D01*
X135274558Y-81872467D01*
X135274557Y-81872465D01*
X135223037Y-81702626D01*
X135210000Y-81570257D01*
X135210001Y-80481742D01*
X135223038Y-80349373D01*
X135274558Y-80179534D01*
X135358223Y-80023009D01*
X135387553Y-79987271D01*
X135470815Y-79885814D01*
X135572272Y-79802552D01*
X135608010Y-79773222D01*
X135764535Y-79689557D01*
X135934374Y-79638037D01*
X136111000Y-79620641D01*
X136287627Y-79638037D01*
X136287627Y-79638037D01*
G37*
G36*
X128987627Y-79638037D02*
G01*
X129157466Y-79689557D01*
X129313991Y-79773222D01*
X129349729Y-79802552D01*
X129451186Y-79885814D01*
X129534448Y-79987271D01*
X129563778Y-80023009D01*
X129647443Y-80179534D01*
X129698963Y-80349373D01*
X129712000Y-80481742D01*
X129712000Y-81570258D01*
X129698963Y-81702627D01*
X129647443Y-81872466D01*
X129563778Y-82028991D01*
X129534448Y-82064729D01*
X129451186Y-82166186D01*
X129313989Y-82278779D01*
X129157467Y-82362442D01*
X129157465Y-82362443D01*
X128987626Y-82413963D01*
X128811000Y-82431359D01*
X128634373Y-82413963D01*
X128464534Y-82362443D01*
X128308009Y-82278778D01*
X128272271Y-82249448D01*
X128170814Y-82166186D01*
X128058221Y-82028989D01*
X127974558Y-81872467D01*
X127974557Y-81872465D01*
X127923037Y-81702626D01*
X127910000Y-81570257D01*
X127910001Y-80481742D01*
X127923038Y-80349373D01*
X127974558Y-80179534D01*
X128058223Y-80023009D01*
X128087553Y-79987271D01*
X128170815Y-79885814D01*
X128272272Y-79802552D01*
X128308010Y-79773222D01*
X128464535Y-79689557D01*
X128634374Y-79638037D01*
X128811000Y-79620641D01*
X128987627Y-79638037D01*
X128987627Y-79638037D01*
G37*
M02*
